/* XPM */
static char *_[] = {
/* columns rows colors chars-per-pixel */
"64 64 163 2 ",
"   c #6BBE31",
".  c #6CBC3A",
"X  c #6BB732",
"o  c #6CC12C",
"O  c #71BE2D",
"+  c #71BD32",
"@  c #6ABD2D",
"#  c #66BA2B",
"$  c #6DC133",
"%  c #96E854",
"&  c #8FE254",
"*  c #71C334",
"=  c #6BC125",
"-  c #66C225",
";  c #65C22C",
":  c #64B732",
">  c #72C92C",
",  c #8FE14E",
"<  c #3A8B4C",
"1  c #368C44",
"2  c #41924A",
"3  c #508E25",
"4  c black",
"5  c #1B300C",
"6  c #348D3D",
"7  c #35913A",
"8  c #349234",
"9  c #3C9143",
"0  c #65BC26",
"q  c #65BB32",
"w  c #6DC239",
"e  c #1B2F0B",
"r  c #358C4A",
"t  c #3A913B",
"y  c #3B8B50",
"u  c #6ABD25",
"i  c #67C031",
"p  c #35904A",
"a  c #359142",
"s  c #50911C",
"d  c #0D2313",
"f  c #5C6CDD",
"g  c #566DDD",
"h  c #66BC3A",
"j  c #22572A",
"k  c #0E2311",
"l  c #1B300D",
"z  c #1B2F0F",
"x  c #142408",
"c  c gray19",
"v  c gray75",
"b  c #606060",
"n  c #030904",
"m  c #5A71E1",
"M  c #5373D8",
"N  c #6AB72A",
"B  c #95E453",
"V  c #1D481D",
"C  c gray25",
"Z  c white",
"A  c #808080",
"S  c #71C23A",
"D  c #94E34E",
"F  c #63B72C",
"G  c #3A8E33",
"H  c #368C2D",
"J  c #1B4616",
"K  c #73C935",
"L  c #65BA41",
"P  c #6AC144",
"I  c #356022",
"U  c #366019",
"Y  c #72C22D",
"T  c #366016",
"R  c #202020",
"E  c #9F9F9F",
"W  c #355E16",
"Q  c #4D7226",
"!  c #4D7427",
"~  c #68B726",
"^  c #4C7329",
"/  c #9BE84E",
"(  c #9AE54D",
")  c #72BB3B",
"_  c #99E653",
"`  c #6BBD43",
"'  c #355E12",
"]  c #71BE22",
"[  c #9CEB59",
"{  c #93DE46",
"}  c #A0EA59",
"|  c #53A527",
" . c #53A72D",
".. c #63B626",
"X. c #355F18",
"o. c #9BE359",
"O. c #90DF4E",
"+. c #57AA28",
"@. c #97E84D",
"#. c #325D19",
"$. c #326116",
"%. c #6CB73E",
"&. c #5B72D8",
"*. c #5A75E8",
"=. c #566BD6",
"-. c #5FB323",
";. c #519121",
":. c #4F8E22",
">. c #7BD03F",
",. c #82D747",
"<. c #E073C4",
"1. c #D981BE",
"2. c #6CC11A",
"3. c #74CB3A",
"4. c #7FD544",
"5. c #4C8B20",
"6. c #5BC424",
"7. c #DB73BE",
"8. c #DD7FB1",
"9. c #71B649",
"0. c #348C35",
"q. c #73BA44",
"w. c #5EC32B",
"e. c #193D21",
"r. c #1B3009",
"t. c #192F0A",
"y. c #19310B",
"u. c #1A2F0B",
"i. c #142409",
"p. c #1B300B",
"a. c #1C300B",
"s. c #4A9F1D",
"d. c #558E25",
"f. c #7BB53A",
"g. c #3B8D3B",
"h. c #0F2311",
"j. c #469220",
"k. c #6CC827",
"l. c #66BB1E",
"z. c #1A2F0F",
"x. c #508925",
"c. c #93E545",
"v. c #95E842",
"b. c #5EC922",
"n. c #88EE44",
"m. c #A2DF60",
"M. c #4F8E1C",
"N. c #559122",
"B. c #8DDF4B",
"V. c #529126",
"C. c #94E55A",
"Z. c #74AA43",
"A. c #70AB3E",
"S. c #3B8C43",
"D. c #558E22",
"F. c #73AC3E",
"G. c #55912B",
"H. c #1D4528",
"J. c #325D20",
"K. c #5EA62B",
"L. c #52912B",
"P. c #64B22E",
"I. c #64B63B",
/* pixels */
"          . . . X o O + @               @ #   @     X @     @ @ @   @ $               $ @     @         $ @               % & * ",
"  @       = - ; : >   @           o       @ *   * $ @ $   *   +     @ * @             @             $ @ @       $ @ @     % , $ ",
"      @   < 1 1 2 : . $ o @         3 4 4 4 4 4 4 4 4 4 4 4 4 4 4 4 4 4 4 4 4 4 4 4 4 4 5 o         @       $ @ #     $ @ @ * = ",
"    @ $ @ 6 7 8 9 0 q $ @           3 4 4 4 4 4 4 4 4 4 4 4 4 4 4 4 4 4 4 4 4 4 4 4 4 4 5       @         $ #   $     @ @ @   * ",
"        @ 1 6 8 < - w $ o $ @       3 4 4 4 4 4 4 4 4 4 4 4 4 4 4 4 4 4 4 4 4 4 4 4 4 4 e       $ #     @ $     @         $   @ ",
"$ @     @ r 1 t y u . + @ @         3 4 4 4 4 4 4 4 4 4 4 4 4 4 4 4 4 4 4 4 4 4 4 4 4 4 5 $ @     $     $ #               @ + @ ",
"@ $ $   $ # w = . = i 1 p a 1 ; u + s 4 4 4 4 4 4 4 4 4 4 4 4 4 4 4 4 4 4 4 4 4 4 4 4 4 d $       @ $       @             f g + ",
"    @   @ o h u X @ i 1 1 j k l e z x 4 4 4 4 c v v v v v v v v v v v v v v v b 4 4 4 4 n e e 5 5 5 @       $ @           m M N ",
"+ @ * B % #   @ . $ $ < 1 V 4 4 4 4 4 4 4 4 4 C Z Z Z Z Z Z Z Z Z Z Z Z Z Z Z A 4 4 4 4 4 4 4 4 4 4 @ $           @       + @ S ",
"S @   D % o   o h @ F G H J 4 4 4 4 4 4 4 4 4 C Z Z Z Z Z Z Z Z Z Z Z Z Z Z Z A 4 4 4 4 4 4 4 4 4 4   @ @     @         @ S 0 q ",
"  @ @ * @   @ @   @ K L P I 4 4 4 4 4 4 4 4 4 C Z Z Z Z Z Z Z Z Z Z Z Z Z Z Z A 4 4 4 4 4 4 4 4 4 4     $ @         @     = . o ",
"$ X * @ u w o o . u u @ ; U 4 4 4 4 4 4 4 4 4 C Z Z Z Z Z Z Z Z Z Z Z Z Z Z Z A 4 4 4 4 4 4 4 4 4 4                 $ @     @ $ ",
"$   @   +   @ . + @ Y @ = T 4 4 4 4 R A A A A E Z Z Z Z Z Z Z Z Z Z Z Z Z Z Z A 4 4 4 4 4 4 4 4 4 4             $ @   @ @ o X @ ",
"  $ @ $ @ $ u   X @ . . @ W 4 4 4 4 C Z Z Z Z Z Z Z Z Z Z Z Z Z Z Z Z Z Z Z Z A 4 4 4 4 4 4 4 4 4 4   o         @     $   . ; $ ",
"@             @ $ @   @ @ Q 4 4 4 4 C Z Z Z Z Z Z Z Z Z Z Z Z Z Z Z Z Z Z Z Z A 4 4 4 4 4 4 4 4 4 4     @   X . $ ; o S . o # $ ",
"                  @       ! 4 4 4 4 C Z Z Z Z Z Z Z Z Z Z Z Z Z Z Z Z Z Z Z Z A 4 4 4 4 4 4 4 4 4 4 $ @ @ * @ u @ 0 # X + ~ o # ",
"    @     #   . X $ @ $ $ ^ 4 4 4 4 C Z Z Z Z Z Z Z Z Z Z Z Z Z Z Z Z Z Z Z Z A 4 4 4 4 4 4 4 4 4 4 w 0   B / ( D * i $ o B % * ",
"      @ $   $ $     # # # ^ 4 4 4 4 C Z Z Z Z Z Z Z Z Z Z Z Z Z Z Z Z Z Z Z Z A 4 4 4 4 4 4 4 4 4 4 i # ) _ ( ( _ . ` w - _ B @ ",
"      $   o #       $ $ $ ' 4 4 4 4 C Z Z Z Z Z Z Z Z Z Z Z Z Z Z Z Z Z Z Z Z A 4 4 4 4 4 4 4 4 4 4 h Y ] [ { } B |  .q = @ O @ ",
"@         @ o @ * ..@ @   X.4 4 4 4 C Z Z Z Z Z Z Z Z Z Z Z Z Z Z Z Z Z Z Z Z A 4 4 4 4 4 4 4 4 4 4 h $ u o.O.[ B +.| X * @ @ $ ",
"  @       _ @.D B o * $   W 4 4 4 4 C Z Z Z Z Z Z Z Z Z Z Z Z Z Z Z Z Z Z Z Z A 4 4 4 4 4 4 4 4 4 4 $   S $ @   $ q i $ N * # X ",
"  $ @     ( ( D _ # o @   U 4 4 4 4 C Z Z Z Z Z Z Z Z Z Z Z Z Z Z Z Z Z Z Z Z A 4 4 4 4 4 4 4 4 4 4 w ..o 0 S   X o @ @ )     $ ",
"        @ ( ( D _ u @   i #.4 4 4 4 C Z Z Z Z Z Z Z Z Z Z Z Z Z Z Z Z Z Z Z Z A 4 4 4 4 4 4 4 4 4 4         @   $ @   @   @ 0 S ",
"    @ $ @ _ _ D B * $ $   ' 4 4 4 4 4 4 4 4 4 C Z Z Z Z Z Z Z Z Z Z Z Z Z Z Z A 4 4 4 4 4 4 4 4 4 4         $ @ @ $       w ` 0 ",
"@         @ o @ * ..@ # @ $.4 4 4 4 4 4 4 4 4 C Z Z Z Z Z Z Z Z Z Z Z Z Z Z Z A 4 4 4 4 4 4 4 4 4 4         $ @     $ @   - 0 o ",
"$ @       @   @ $ $ $ $ $ W 4 4 4 4 4 4 4 4 4 C Z Z Z Z Z Z Z Z Z Z Z Z Z Z Z A 4 4 4 4 4 4 4 4 4 4 @       @       @     %.X $ ",
"      @ @ $ $ .     @ # # W 4 4 4 4 4 4 4 4 4 C Z Z Z Z Z Z Z Z Z Z Z Z Z Z Z A 4 4 4 4 4 4 4 4 4 4               # $     &.*.u ",
"    @ $ $ q #           $ W 4 4 4 4 4 4 4 4 4 C Z Z Z Z Z Z Z Z Z Z Z Z Z Z Z A 4 4 4 4 4 4 4 4 4 4   @ $ @     @ $       =.m + ",
"  $       $         +     ..-.@ @ @ ;.4 4 4 4 C Z Z Z Z Z Z Z Z Z Z Z Z Z Z Z A 4 4 4 4 4 4 4 4 4 4 $ @           @       + u   ",
"  @   @       #   #   @ @ F -...# ..:.4 4 4 4 C Z Z Z Z Z Z Z Z Z Z Z Z Z Z Z A 4 4 4 4 4 4 4 4 4 4           @           . . ; ",
"@ $ #   @ + @ o o . +   @ >.,.-...# :.4 4 4 4 C Z Z Z Z Z Z Z Z Z Z Z Z Z Z Z A 4 4 4 4 4 4 4 4 4 4 $ #   ) - <.1.# $ ; 2.$ @ $ ",
"    $     q q w h o @   $ 3.4...# # 5.4 4 4 4 C Z Z Z Z Z Z Z Z Z Z Z Z Z Z Z A 4 4 4 4 4 4 4 4 4 4 @ $ @ 6.h 7.8.) *   9.$   $ ",
"    @   q 1 7 0.9 o )   @ = # # # @ :.4 4 4 4 C Z Z Z Z Z Z Z Z Z Z Z Z Z Z Z A 4 4 4 4 4 4 4 4 4 4 $   $ q.=   ; # %.w.u @ @ @ ",
"        @ a a 6 e.r.z 5 l t.y.e y.u.i.4 4 4 4 C Z Z Z Z Z Z Z Z Z Z Z Z Z Z Z A 4 4 4 4 4 4 4 4 4 4 5 u.p.a.l s.6.; o $ $ *     ",
"  @       6 a 6 d 4 4 4 4 4 4 4 4 4 4 4 4 4 4 C Z Z Z Z Z Z Z Z Z Z Z Z Z Z Z A 4 4 4 4 4 4 4 4 4 4 4 4 4 4 4 d.f.q.q + ~ @     ",
"$         a t g.h.4 4 4 4 4 4 4 4 4 4 4 4 4 4 C Z Z Z Z Z Z Z Z Z Z Z Z Z Z Z A 4 4 4 4 4 4 4 4 4 4 4 4 4 4 4 j.w.k.l.$ $ O * ~ ",
"@         q q i z.4 4 4 4 4 4 4 4 4 4 4 4 4 4 C Z Z Z Z Z Z Z Z Z Z Z Z Z Z Z A 4 4 4 4 4 4 4 4 4 4 4 4 4 4 4 x.+ . ) c.v.@.B + ",
"    $ @   + @ o p.4 4 4 4 4 4 4 4 4 4 4 4 4 4 C Z Z Z Z Z Z Z Z Z Z Z Z Z Z Z A 4 4 4 4 4 4 4 4 4 4 4 4 4 4 4 3 b.O + n.m.( _ @ ",
"@ $ @   @     $ 5 4 4 4 4 C A A A A A A A A A E Z Z Z Z Z Z Z Z Z Z Z Z Z Z Z v A A A A b 4 4 4 4 4 4 4 4 4 4 M.O [ _ @     Y B ",
"@     $     @ @ 5 4 4 4 4 A Z Z Z Z Z Z Z Z Z Z Z Z Z Z Z Z Z Z Z Z Z Z Z Z Z Z Z Z Z Z v 4 4 4 4 4 4 4 4 4 4 N.u B.B       ~ @.",
"  q     @       5 4 4 4 4 A Z Z Z Z Z Z Z Z Z Z Z Z Z Z Z Z Z Z Z Z Z Z Z Z Z Z Z Z Z Z v 4 4 4 4 4 4 4 4 4 4 V.O [ } u @ @ u } ",
"* @ @ $ $     @ e 4 4 4 4 A Z Z Z Z Z Z Z Z Z Z Z Z Z Z Z Z Z Z Z Z Z Z Z Z Z Z Z Z Z Z v 4 4 4 4 4 4 4 4 4 4 V.  O.O.@ + Y Y , ",
"B.* @ @ @ @     e 4 4 4 4 A Z Z Z Z Z Z Z Z Z Z Z Z Z Z Z Z Z Z Z Z Z Z Z Z Z Z Z Z Z Z v 4 4 4 4 4 4 4 4 4 4 3 . u * B B % , * ",
"B $   $ $       5 4 4 4 4 A Z Z Z Z Z Z Z Z Z Z Z Z Z Z Z Z Z Z Z Z Z Z Z Z Z Z Z Z Z Z v 4 4 4 4 4 4 4 4 4 4 3 @ @ + _ _ _ B u ",
"B O @   i       5 4 4 4 4 A Z Z Z Z Z Z Z Z Z Z Z Z Z Z Z Z Z Z Z Z Z Z Z Z Z Z Z Z Z Z v 4 4 4 4 4 4 4 4 4 4 :.# S @ o o @ * 0 ",
"B O $           5 4 4 4 4 A Z Z Z Z Z Z Z Z Z Z Z Z Z Z Z Z Z Z Z Z Z Z Z Z Z Z Z Z Z Z v 4 4 4 4 4 4 4 4 4 4 3 # $       + @ @ ",
"C.@ * : Y       5 4 4 4 4 A Z Z Z Z Z Z Z Z Z Z Z Z Z Z Z Z Z Z Z Z Z Z Z Z Z Z Z Z Z Z v 4 4 4 4 4 4 4 4 4 4 Z.C.@   * . ; f.; ",
"@.@ # * .       5 4 4 4 4 A Z Z Z Z Z Z Z Z Z Z Z Z Z Z Z Z Z Z Z Z Z Z Z Z Z Z Z Z Z Z v 4 4 4 4 4 4 4 4 4 4 A.D * # # @ o w -.",
"$ S.g.  #     @ 5 4 4 4 4 A Z Z Z Z Z Z Z Z Z Z Z Z Z Z Z Z Z Z Z Z Z Z Z Z Z Z Z Z Z Z v 4 4 4 4 4 4 4 4 4 4 D.@ [ _ +   # = . ",
"$ y S.. @   @ $ 5 4 4 4 4 4 4 4 4 4 4 4 4 4 4 4 4 4 4 4 4 4 4 4 4 4 4 4 4 4 4 4 4 4 4 4 4 4 4 4 4 4 4 4 4 4 4 N.~ _ O.@   o b.  ",
"= F F * q.o   @ 5 4 4 4 4 4 4 4 4 4 4 4 4 4 4 4 4 4 4 4 4 4 4 4 4 4 4 4 4 4 4 4 4 4 4 4 4 4 4 4 4 4 4 4 4 4 4 Z.B * O @ @ ) $ # ",
"O k.k.@       $ 5 4 4 4 4 4 4 4 4 4 4 4 4 4 4 4 4 4 4 4 4 4 4 4 4 4 4 4 4 4 4 4 4 4 4 4 4 4 4 4 4 4 4 4 4 4 4 F.B u + *   %.+ @ ",
"X h h # @     @ 5 4 4 4 4 4 4 4 4 4 4 4 4 4 4 4 4 4 4 4 4 4 4 4 4 4 4 4 4 4 4 4 4 4 4 4 4 4 4 4 4 4 4 4 4 4 4 G.@ @ @ @ + $ b.X ",
"= i = o .       5 4 4 4 4 4 4 4 4 4 4 4 4 4 4 4 4 4 4 4 4 4 4 4 4 4 4 4 4 4 4 4 4 4 4 4 4 4 4 4 4 4 4 4 4 4 4 :.@ $ $   i . = @ ",
"i       @   @           $ H.4 4 4 4 4 4 4 4 4 4 4 4 4 4 4 4 4 4 4 4 4 4 4 4 4 4 4 4 4 4 4 4 4 4 4 4 4 4 4 4 4 3 @               ",
"                @     @   V 4 4 4 4 4 4 4 4 4 4 4 4 4 4 4 4 4 4 4 4 4 4 4 4 4 4 4 4 4 4 4 4 4 4 4 4 4 4 4 4 4 3                 ",
"    $ @       @ $ q $   @ J.4 4 4 4 4 4 4 4 4 4 4 4 4 4 4 4 4 4 4 4 4 4 4 4 4 4 4 4 4 4 4 4 4 4 4 4 4 4 4 4 4 3           $   @ ",
"    @             o @     U 4 4 4 4 4 4 4 4 4 4 4 4 4 4 4 4 4 4 4 4 4 4 4 4 4 4 4 4 4 4 4 4 4 4 4 4 4 4 4 4 4 :.@     @   @     ",
"  $     @ $       @     @ W 4 4 4 4 4 4 4 4 4 4 4 4 4 4 4 4 4 4 4 4 4 4 4 4 4 4 4 4 4 4 4 4 4 4 4 4 4 4 4 4 4 V.        @       ",
"  @       @             @ K.G.3 L.V.3 :.:.V.3 5.5.V.V.V.V.3 3 3 :.3 3 3 3 3 3 3 3 V.:.3 :.V.3 3 V.5.3 3 3 V.3 P.    @ $   $ @   ",
"@ $ @                     @   @ $ # $ $ $ @ $ $   $   @ @       @     @ @ $ # $             $ @     @ $ @ $ #   $ @         @ $ ",
"              @   @       @ @   $ # $ # .   @ $   @       $ $ @ $     $           $ @       @         @     $   #           @   ",
"@ $ @ - .     $ @   @ @ @       @ $     @ @     @         @ @ $     $ # @ @ @   X $ $ @ o       $ @         $ @ $   @           ",
"w I.X * @ *         @   @             @ $               @ $ $ $ . # X o * $ $ #   @ @ $ #     $ #           @       $ @   @ $   "
};
