/* XPM */
static char *_[] = {
/* columns rows colors chars-per-pixel */
"64 64 138 2 ",
"   c #6BBE31",
".  c #6CBC3A",
"X  c #6BB732",
"o  c #6CC12C",
"O  c #71BE2D",
"+  c #71BD32",
"@  c #6ABD2D",
"#  c #66BA2B",
"$  c #6DC133",
"%  c #96E854",
"&  c #8FE254",
"*  c #71C334",
"=  c #6BC125",
"-  c #66C225",
";  c #65C22C",
":  c #64B732",
">  c #72C92C",
",  c #8FE14E",
"<  c #3A8B4C",
"1  c #368C44",
"2  c #41924A",
"3  c #569925",
"4  c #1B300C",
"5  c #1B2F0B",
"6  c #1C310D",
"7  c #1B300D",
"8  c #1A2E0A",
"9  c #1C310F",
"0  c #1B300B",
"q  c #348D3D",
"w  c #35913A",
"e  c #349234",
"r  c #3C9143",
"t  c #65BC26",
"y  c #65BB32",
"u  c #508E25",
"i  c black",
"p  c #6DC239",
"a  c #529126",
"s  c #358C4A",
"d  c #3A913B",
"f  c #3B8B50",
"g  c #6ABD25",
"h  c #4F8E22",
"j  c #67C031",
"k  c #35904A",
"l  c #286D31",
"z  c #5C6CDD",
"x  c #566DDD",
"c  c #66BC3A",
"v  c #43721F",
"b  c #355E16",
"n  c #336018",
"m  c #1B4622",
"M  c #14351A",
"N  c #808080",
"B  c #606060",
"V  c #355F18",
"C  c #5A71E1",
"Z  c #5373D8",
"A  c #6AB72A",
"S  c #95E453",
"D  c #1B2F0F",
"F  c white",
"G  c gray75",
"H  c #366019",
"J  c #71C23A",
"K  c #94E34E",
"L  c #1A2F0F",
"P  c #1C2F0D",
"I  c #1B2E0D",
"U  c gray25",
"Y  c #68B726",
"T  c #253914",
"R  c #263A15",
"E  c #6BBD43",
"W  c #99E653",
"Q  c #9F9F9F",
"!  c gray81",
"~  c #253915",
"^  c #53A527",
"/  c #53A72D",
"(  c #57AA28",
")  c #97E84D",
"_  c #9AE54D",
"`  c #72BB3B",
"'  c #101010",
"]  c #6CB73E",
"[  c #5B72D8",
"{  c #5A75E8",
"}  c #566BD6",
"|  c #362030",
" . c #6CC11A",
".. c #37202C",
"X. c #71B649",
"o. c #348C35",
"O. c #0F2411",
"+. c #19310B",
"@. c #5EC32B",
"#. c #359142",
"$. c #0F2313",
"%. c #173109",
"&. c #0D2313",
"*. c #1F2D0F",
"=. c #73BA44",
"-. c #3B8D3B",
";. c #0F2311",
":. c #18310B",
">. c #6CC827",
",. c #66BB1E",
"<. c #93E545",
"1. c #95E842",
"2. c #183209",
"3. c #88EE44",
"4. c #A2DF60",
"5. c #1C300B",
"6. c #9CEB59",
"7. c #72C22D",
"8. c gray44",
"9. c #1B2F09",
"0. c #8DDF4B",
"q. c #A0EA59",
"w. c #90DF4E",
"e. c #1A2F0B",
"r. c #94E55A",
"t. c #253917",
"y. c #7BB53A",
"u. c #5FB323",
"i. c #3B8C43",
"p. c #5EC922",
"a. c #63B72C",
"s. c #202020",
"d. c #4C8B31",
"f. c #63B12A",
"g. c #4C8B20",
"h. c #518D2B",
"j. c #539723",
"k. c #64B63B",
/* pixels */
"          . . . X o O + @               @ #   @     X @     @ @ @   @ $               $ @     @         $ @               % & * ",
"  @       = - ; : >   @           o       @ *   * $ @ $   *   +     @ * @             @             $ @ @       $ @ @     % , $ ",
"      @   < 1 1 2 : . $ o 3 4 4 4 4 4 5 4 6 4 5 5 5 5 7 5 8 5 5 9 4 4 4 5 4 5 4 7 5 4 4 4 0         @       $ @ #     $ @ @ * = ",
"    @ $ @ q w e r t y $ @ u i i i i i i i i i i i i i i i i i i i i i i i i i i i i i i i i     @         $ #   $     @ @ @   * ",
"        @ 1 q e < - p $ o a i i i i i i i i i i i i i i i i i i i i i i i i i i i i i i i i     $ #     @ $     @         $   @ ",
"$ @     @ s 1 d f g . + @ h i i i i i i i i i i i i i i i i i i i i i i i i i i i i i i i i @     $     $ #               @ + @ ",
"@ $ $   $ # p = . = j 1 k l i i i i i i i i i i i i i i i i i i i i i i i i i i i i i i i i       @ $       @             z x + ",
"    @   @ o c g v b n m m M i i i i i N N N N N N N N N N N N N N N N N N N N N B i i i i i b V V V b u     $ @           C Z A ",
"+ @ * S % #   @ D i i i i i i i i i i F F F F F F F F F F F F F F F F F F F F F G i i i i i i i i i i H           @       + @ J ",
"J @   K % o   o L i i i i i i i i i i F F F F F F F F F F F F F F F F F F F F F G i i i i i i i i i i b @     @         @ J t y ",
"  @ @ * @   @ @ 4 i i i i i i i i i i F F F F F F F F F F F F F F F F F F F F F G i i i i i i i i i i V $ @         @     = . o ",
"$ X * @ g p o o D i i i i i i i i i i F F F F F F F F F F F F F F F F F F F F F G i i i i i i i i i i V             $ @     @ $ ",
"$   @   +   @ . P i i i i i i i i i i F F F F F F F F F F F F F F F F F F F F F G i i i i i i i i i i V         $ @   @ @ o X @ ",
"  $ @ $ @ $ g   I i i i i U F F F F F F F F F F F F F F F F F F F F F F F F F F F F F F F F i i i i i i i i i i 5     $   . ; $ ",
"@             @ 7 i i i i U F F F F F F F F F F F F F F F F F F F F F F F F F F F F F F F F i i i i i i i i i i 7 ; o J . o # $ ",
"                4 i i i i U F F F F F F F F F F F F F F F F F F F F F F F F F F F F F F F F i i i i i i i i i i 5 t # X + Y o # ",
"    @     #   . I i i i i U F F F F F F F F F F F F F F F F F F F F F F F F F F F F F F F F i i i i i i i i i i T * j $ o S % * ",
"      @ $   $ $ 4 i i i i U F F F F F F F F F F F F F F F F F F F F F F F F F F F F F F F F i i i i i i i i i i R . E p - W S @ ",
"      $   o #   4 i i i i U F F F F F F F F F F Q U U U U U U U U U U ! F F F F F F F F F F i i i i i i i i i i ~ ^ / y = @ O @ ",
"@         @ o @ 6 i i i i U F F F F F F F F F F N i i i i i i i i i i G F F F F F F F F F F i i i i i i i i i i ~ ( ^ X * @ @ $ ",
"  @       W ) K ~ i i i i U F F F F F F F F F F N i i i i i i i i i i G F F F F F F F F F F i i i i i i i i i i 7 y j $ A * # X ",
"  $ @     _ _ K R i i i i U F F F F F F F F F F N i i i i i i i i i i G F F F F F F F F F F i i i i i i i i i i I o @ @ `     $ ",
"        @ _ _ K R i i i i U F F F F F F F F F F N i i i i i i i i i i G F F F F F F F F F F i i i i i i i i i i 7 @   @   @ t J ",
"    @ $ @ W W K ~ i i i i U F F F F F F F F F F N i i i i ' U U U U U ! F F F F F F F F F F i i i i i i i i i i 5 $       p E t ",
"@         @ o @ 6 i i i i U F F F F F F F F F F N i i i i U F F F F F F F F F F F F F F F F i i i i i i i i i i 4   $ @   - t o ",
"$ @       @   @ 7 i i i i U F F F F F F F F F F N i i i i U F F F F F F F F F F F F F F F F i i i i i i i i i i 4   @     ] X $ ",
"      @ @ $ $ . 4 i i i i U F F F F F F F F F F N i i i i U F F F F F F F F F F F F F F F F i i i i i i i i i i 4 # $     [ { g ",
"    @ $ $ y #   4 i i i i U F F F F F F F F F F N i i i i U F F F F F F F F F F F F F F F F i i i i i i i i i i 5 $       } C + ",
"  $       $     4 i i i i U F F F F F F F F F F N i i i i U F F F F F F F F F F F F F F F F i i i i i i i i i i 4 @       + g   ",
"  @   @       # 4 i i i i i i i i i i i i i i i N F F F F F F F F F F F F F F F G i i i i i i i i i i i i i i i 4         . . ; ",
"@ $ #   @ + @ o 0 i i i i i i i i i i i i i i i N F F F F F F F F F F F F F F F G i i i i i i i i i i i i i i i | # $ ;  .$ @ $ ",
"    $     y y p L i i i i i i i i i i i i i i i N F F F F F F F F F F F F F F F G i i i i i i i i i i i i i i i ..` *   X.$   $ ",
"    @   y 1 w o.O.i i i i i i i i i i i i i i i N F F F F F F F F F F F F F F F G i i i i i i i i i i i i i i i +.# ] @.g @ @ @ ",
"        @ #.#.q $.i i i i i i i i i i i i i i i N F F F F F F F F F F F F F F F G i i i i i i i i i i i i i i i %.; o $ $ *     ",
"  @       q #.q &.i i i i i i i i i i N N N N N G F F F F F F F F F F Q N N N N B i i i i i i i i i i i i i i i *.=.y + Y @     ",
"$         #.d -.;.i i i i i i i i i i F F F F F F F F F F F F F F F F U i i i i i i i i i i i i i i i i i i i i :.>.,.$ $ O * Y ",
"@         y y j L i i i i i i i i i i F F F F F F F F F F F F F F F F U i i i i i i i i i i i i i i i i i i i i P . ` <.1.) S + ",
"    $ @   + @ o 0 i i i i i i i i i i F F F F F F F F F F F F F F F F U i i i i i i i i i i i i i i i i i i i i 2.O + 3.4._ W @ ",
"@ $ @   @     $ 4 i i i i i i i i i i F F F F F F F F F F F F F F F F U i i i i i i i i i i i i i i i i i i i i 5.6.W @     7.S ",
"@     $     @ @ 4 i i i i ' U U U U U F F F F F F F F F F F F F F F F 8.U U U U U U U U U U i i i i i i i i i i 9.0.S       Y ) ",
"  y     @       4 i i i i U F F F F F F F F F F F F F F F F F F F F F F F F F F F F F F F F i i i i i i i i i i 5.6.q.g @ @ g q.",
"* @ @ $ $     @ 5 i i i i U F F F F F F F F F F F F F F F F F F F F F F F F F F F F F F F F i i i i i i i i i i 4 w.w.@ + 7.7., ",
"0.* @ @ @ @     5 i i i i U F F F F F F F F F F F F F F F F F F F F F F F F F F F F F F F F i i i i i i i i i i D g * S S % , * ",
"S $   $ $       4 i i i i U F F F F F F F F F F F F F F F F F F F F F F F F F F F F F F F F i i i i i i i i i i 5 @ + W W W S g ",
"S O @   j       4 i i i i U F F F F F F F F F F F F F F F F F F F F F F F F F F F F F F F F i i i i i i i i i i e.J @ o o @ * t ",
"S O $           4 i i i i U F F F F F F F F F F F F F F F F F F F F F F F F F F F F F F F F i i i i i i i i i i e.$       + @ @ ",
"r.@ * : 7.      4 i i i i U F F F F F F F F F F F F F F F F F F F F F F F F F F F F F F F F i i i i i i i i i i t.@   * . ; y.; ",
") @ # * .       4 i i i i U F F F F F F F F F F F F F F F F F F F F F F F F F F F F F F F F i i i i i i i i i i T * # # @ o p u.",
"$ i.-.  #     @ 4 i i i i U F F F F F F F F F F F F F F F F F F F F F F F F F F F F F F F F i i i i i i i i i i 5 6.W +   # = . ",
"$ f i.. @   @ $ 4 i i i i U F F F F F F F F F F F F F F F F F F F F F F F F F F F F F F F F i i i i i i i i i i 8 W w.@   o p.  ",
"= a.a.* =.o   @ 4 i i i i s.N N N N N N N N N N N N N N N N N N N N N N N N N N N N N N N N i i i i i i i i i i ~ * O @ @ ` $ # ",
"O >.>.@       $ 4 i i i i i i i i i i i i i i i i i i i i i i i i i i i i i i i i i i i i i i i i i i i i i i i ~ g + *   ] + @ ",
"X c c # @     @ 4 i i i i i i i i i i i i i i i i i i i i i i i i i i i i i i i i i i i i i i i i i i i i i i i 5 @ @ @ + $ p.X ",
"= j = o .       4 i i i i i i i i i i i i i i i i i i i i i i i i i i i i i i i i i i i i i i i i i i i i i i i 5 $ $   j . = @ ",
"j       @   @   4 i i i i i i i i i i i i i i i i i i i i i i i i i i i i i i i i i i i i i i i i i i i i i i i 5               ",
"                5 i i i i i i i i i i i i i i i i i i i i i i i i i i i i i i i i i i i i i i i i i i i i i i i 4               ",
"    $ @       @ $ y $   @ d.i i i i i i i i i i i i i i i i i i i i i i i i i i i i i i i i i i i i i i i i i i 4         $   @ ",
"    @             o @     a i i i i i i i i i i i i i i i i i i i i i i i i i i i i i i i i i i i i i i i i i i 5     @   @     ",
"  $     @ $       @     @ h i i i i i i i i i i i i i i i i i i i i i i i i i i i i i i i i i i i i i i i i i i 4       @       ",
"  @       @             @ u i i i i i i i i i i i i i i i i i i i i i i i i i i i i i i i i i i i i i i i i i i 4   @ $   $ @   ",
"@ $ @                     h i i i i i i i i i i i i i i i i i i i i i i i i i i i i i i i i i i i i i i i i i i 7 @         @ $ ",
"              @   @       f.h u a g.a g.h.u h a u h u u u a a h a u u a u u u u u a h u u u h u u u u h u u a u j.          @   ",
"@ $ @ - .     $ @   @ @ @       @ $     @ @     @         @ @ $     $ # @ @ @   X $ $ @ o       $ @         $ @ $   @           ",
"p k.X * @ *         @   @             @ $               @ $ $ $ . # X o * $ $ #   @ @ $ #     $ #           @       $ @   @ $   "
};
