/* XPM */
static char *_[] = {
/* columns rows colors chars-per-pixel */
"64 64 160 2 ",
"   c #6BBE31",
".  c #6CBC3A",
"X  c #6BB732",
"o  c #6CC12C",
"O  c #71BE2D",
"+  c #71BD32",
"@  c #6ABD2D",
"#  c #66BA2B",
"$  c #6DC133",
"%  c #96E854",
"&  c #8FE254",
"*  c #71C334",
"=  c #6BC125",
"-  c #66C225",
";  c #65C22C",
":  c #64B732",
">  c #72C92C",
",  c #8FE14E",
"<  c #3A8B4C",
"1  c #368C44",
"2  c #41924A",
"3  c #68B726",
"4  c #71C23A",
"5  c #348D3D",
"6  c #35913A",
"7  c #349234",
"8  c #3C9143",
"9  c #2C5311",
"0  c #192F0D",
"q  c #1B300D",
"w  c #1B2F0B",
"e  c #1B300C",
"r  c #192E0B",
"t  c #1C310D",
"y  c #1C300B",
"u  c #1A2E0A",
"i  c #1B300B",
"p  c #1A3109",
"a  c black",
"s  c #358C4A",
"d  c #3A913B",
"f  c #3B8B50",
"g  c #1B2F09",
"h  c #6DC239",
"j  c #1B3009",
"k  c #5C6CDD",
"l  c #566DDD",
"z  c #66BC3A",
"x  c #6ABD25",
"c  c #5A71E1",
"v  c #5373D8",
"b  c #6AB72A",
"n  c #95E453",
"m  c gray25",
"M  c #808080",
"N  c #606060",
"B  c #355F18",
"V  c #355E16",
"C  c #5FA92D",
"Z  c #94E34E",
"A  c white",
"S  c gray75",
"D  c #4F8E22",
"F  c #65BC26",
"G  c #65BB32",
"H  c #508E25",
"J  c gray81",
"K  c #3D6C19",
"L  c #5DA527",
"P  c #366019",
"I  c #4A7127",
"U  c #67C031",
"Y  c #4C7329",
"T  c #6BBD43",
"R  c #99E653",
"E  c #4A7229",
"W  c #53A527",
"Q  c #53A72D",
"!  c #192E0A",
"~  c #57AA28",
"^  c #97E84D",
"/  c #9AE54D",
"(  c #1A2F0B",
")  c #355B19",
"_  c #72BB3B",
"`  c #50941F",
"'  c #4C8B20",
"]  c #4C9121",
"[  c #284711",
"{  c #DFDFDF",
"}  c #6CB73E",
"|  c #315B13",
" . c #5B72D8",
".. c #5A75E8",
"X. c #566BD6",
"o. c #63B626",
"O. c #2F5911",
"+. c #63B72C",
"@. c #47861A",
"#. c #335D15",
"$. c #264610",
"%. c #7BD03F",
"&. c #82D747",
"*. c #5FB323",
"=. c #6C405F",
"-. c #6CC11A",
";. c #74CB3A",
":. c #7FD544",
">. c #6E3F58",
",. c #71B649",
"<. c #348C35",
"1. c #326116",
"2. c #5EC32B",
"3. c #359142",
"4. c #519121",
"5. c #2D6212",
"6. c #407917",
"7. c #366016",
"8. c #38611A",
"9. c #336018",
"0. c #264613",
"q. c #3D5A1D",
"w. c #73BA44",
"e. c #3B8D3B",
"r. c #3B8C43",
"t. c #2F6115",
"y. c #6CC827",
"u. c #66BB1E",
"i. c #385E19",
"p. c #93E545",
"a. c #95E842",
"s. c #2F6411",
"d. c #88EE44",
"f. c #A2DF60",
"g. c #385F16",
"h. c #9CEB59",
"j. c #72C22D",
"k. c #202020",
"l. c #9F9F9F",
"z. c #355E12",
"x. c #8DDF4B",
"c. c #A0EA59",
"v. c #90DF4E",
"b. c #365E1D",
"n. c #94E55A",
"m. c #4A722D",
"M. c #7BB53A",
"N. c #345B13",
"B. c #5EC922",
"V. c gray19",
"C. c #43761F",
"Z. c #1D481D",
"A. c #0F2509",
"S. c #284812",
"D. c #65BA41",
"F. c #325B19",
"G. c #529126",
"H. c #38611D",
"J. c #589D29",
"K. c #64B63B",
/* pixels */
"          . . . X o O + @               @ #   @     X @     @ @ @   @ $               $ @     @         $ @               % & * ",
"  @       = - ; : >   @           o       @ *   * $ @ $   *   +     @ * @             @             $ @ @       $ @ @     % , $ ",
"      @   < 1 1 2 : . $ o @           @   *   @ @ @ @ $ @ 3 @ @ 4       @   @   $ @       o         @       $ @ #     $ @ @ * = ",
"    @ $ @ 5 6 7 8 9 0 q w e e e e e e e e e r t t w q e w y t u e e e e i e e e w e e e e e     @         $ #   $     @ @ @   * ",
"        @ 1 5 7 < p a a a a a a a a a a a a a a a a a a a a a a a a a a a a a a a a a a a a     $ #     @ $     @         $   @ ",
"$ @     @ s 1 d f g a a a a a a a a a a a a a a a a a a a a a a a a a a a a a a a a a a a a @     $     $ #               @ + @ ",
"@ $ $   $ # h = . j a a a a a a a a a a a a a a a a a a a a a a a a a a a a a a a a a a a a       @ $       @             k l + ",
"    @   @ o z x X w a a a a a a a a a a a a a a a a a a a a a a a a a a a a a a a a a a a a @       @       $ @           c v b ",
"+ @ * n % #   @ . q a a a a m M M M M M M M M M M M M M M M M M M M M M M M M M N a a a a a B B B B V C           @       + @ 4 ",
"4 @   Z % o   o z w a a a a M A A A A A A A A A A A A A A A A A A A A A A A A A S a a a a a a a a a a D @     @         @ 4 F G ",
"  @ @ * @   @ @   w a a a a M A A A A A A A A A A A A A A A A A A A A A A A A A S a a a a a a a a a a H $ @         @     = . o ",
"$ X * @ x h o o . g a a a a M A A A A A A A A A A A A A A A A A A A A A A A A A S a a a a a a a a a a H             $ @     @ $ ",
"$   @   +   @ . + w a a a a M A A A A A A A A A A A A A A A A A A A A A A A A A S a a a a a a a a a a H         $ @   @ @ o X @ ",
"  $ @ $ @ $ x   X w a a a a M A A A A A A A A A A A A A A A A A A A A A A A A A J m m m m m a a a a a K H H H H L     $   . ; $ ",
"@             @ $ w a a a a M A A A A A A A A A A A A A A A A A A A A A A A A A A A A A A A a a a a a a a a a a P ; o 4 . o # $ ",
"                  w a a a a M A A A A A A A A A A A A A A A A A A A A A A A A A A A A A A A a a a a a a a a a a V F # X + 3 o # ",
"    @     #   . X q a a a a M A A A A A A A A A A A A A A A A A A A A A A A A A A A A A A A a a a a a a a a a a I * U $ o n % * ",
"      @ $   $ $   e a a a a M A A A A A A A A A A A A A A A A A A A A A A A A A A A A A A A a a a a a a a a a a Y . T h - R n @ ",
"      $   o #     e a a a a M A A A A A A A A A A A A A A A A A A A A A A A A A A A A A A A a a a a a a a a a a E W Q G = @ O @ ",
"@         @ o @ * ! a a a a a a a a a a a a a a a a a a a a a a a a a M A A A A A A A A A A a a a a a a a a a a E ~ W X * @ @ $ ",
"  @       R ^ Z n i a a a a a a a a a a a a a a a a a a a a a a a a a M A A A A A A A A A A a a a a a a a a a a P G U $ b * # X ",
"  $ @     / / Z R ( a a a a a a a a a a a a a a a a a a a a a a a a a M A A A A A A A A A A a a a a a a a a a a ) o @ @ _     $ ",
"        @ / / Z R g a a a a a a a a a a a a a a a a a a a a a a a a a M A A A A A A A A A A a a a a a a a a a a P @   @   @ F 4 ",
"    @ $ @ R R Z n t a a a a a a a a a a a a a a a a a a a a a a a a a M A A A A A A A A A A a a a a a a a a a a V $       h T F ",
"@         @ o @ * ` D ' D ] [ a a a a a a a a a a S S S S S S S S S S { A A A A A A A A A A a a a a a a a a a a B   $ @   - F o ",
"$ @       @   @ $ $ $ $ $ @ V a a a a a a a a a a A A A A A A A A A A A A A A A A A A A A A a a a a a a a a a a B   @     } X $ ",
"      @ @ $ $ .     @ # # @ | a a a a a a a a a a A A A A A A A A A A A A A A A A A A A A A a a a a a a a a a a B # $      ...x ",
"    @ $ $ G #           $ @ P a a a a a a a a a a A A A A A A A A A A A A A A A A A A A A A a a a a a a a a a a V $       X.c + ",
"  $       $         +     o.O.a a a a a a a a a a A A A A A A A A A A A A A A A A A A A A A a a a a a a a a a a B @       + x   ",
"  @   @       #   #   @ @ +.@.| #.| V $.a a a a a A A A A A A A A A A A A A A A { M M M M M a a a a a a a a a a B         . . ; ",
"@ $ #   @ + @ o o . +   @ %.&.*.o.# @ D a a a a a A A A A A A A A A A A A A A A S a a a a a a a a a a a a a a a =.# $ ; -.$ @ $ ",
"    $     G G h z o @   $ ;.:.o.# # # D a a a a a A A A A A A A A A A A A A A A S a a a a a a a a a a a a a a a >._ *   ,.$   $ ",
"    @   G 1 6 <.8 o _   @ = # # # @ @ ' a a a a a A A A A A A A A A A A A A A A S a a a a a a a a a a a a a a a 1.# } 2.x @ @ @ ",
"        @ 3.3.5 < = .   $ F ; @ ; #   4.a a a a a A A A A A A A A A A A A A A A S a a a a a a a a a a a a a a a 5.; o $ $ *     ",
"  @       5 3.5 s 6.B B 7.8.P 7.9.P 7.0.a a a a a M M M M M M M M M M S A A A A { M M M M M a a a a a a a a a a q.w.G + 3 @     ",
"$         3.d e.r.w a a a a a a a a a a a a a a a a a a a a a a a a a M A A A A A A A A A A a a a a a a a a a a t.y.u.$ $ O * 3 ",
"@         G G U z w a a a a a a a a a a a a a a a a a a a a a a a a a M A A A A A A A A A A a a a a a a a a a a i.. _ p.a.^ n + ",
"    $ @   + @ o o e a a a a a a a a a a a a a a a a a a a a a a a a a M A A A A A A A A A A a a a a a a a a a a s.O + d.f./ R @ ",
"@ $ @   @     $   e a a a a a a a a a a a a a a a a a a a a a a a a a M A A A A A A A A A A a a a a a a a a a a g.h.R @     j.n ",
"@     $     @ @   e a a a a k.m m m m m m m m m m m m m m m m m m m m l.A A A A A A A A A A a a a a a a a a a a z.x.n       3 ^ ",
"  G     @         e a a a a M A A A A A A A A A A A A A A A A A A A A A A A A A A A A A A A a a a a a a a a a a g.h.c.x @ @ x c.",
"* @ @ $ $     @ @ e a a a a M A A A A A A A A A A A A A A A A A A A A A A A A A A A A A A A a a a a a a a a a a B v.v.@ + j.j., ",
"x.* @ @ @ @     @ q a a a a M A A A A A A A A A A A A A A A A A A A A A A A A A A A A A A A a a a a a a a a a a b.x * n n % , * ",
"n $   $ $         e a a a a M A A A A A A A A A A A A A A A A A A A A A A A A A A A A A A A a a a a a a a a a a V @ + R R R n x ",
"n O @   U         e a a a a M A A A A A A A A A A A A A A A A A A A A A A A A A A A A A A A a a a a a a a a a a #.4 @ o o @ * F ",
"n O $             w a a a a M A A A A A A A A A A A A A A A A A A A A A A A A A S a a a a a a a a a a a a a a a #.$       + @ @ ",
"n.@ * : j.        q a a a a M A A A A A A A A A A A A A A A A A A A A A A A A A S a a a a a a a a a a a a a a a m.@   * . ; M.; ",
"^ @ # * .         w a a a a M A A A A A A A A A A A A A A A A A A A A A A A A A S a a a a a a a a a a a a a a a I * # # @ o h *.",
"$ r.e.  #     @   e a a a a M A A A A A A A A A A A A A A A A A A A A A A A A A S a a a a a a a a a a a a a a a V h.R +   # = . ",
"$ f r.. @   @ $   e a a a a M A A A A A A A A A A A A A A A A A A A A A A A A A S a a a a a a a a a a a a a a a N.R v.@   o B.  ",
"= +.+.* w.o   @   q a a a a k.m m m m m m m m m m m m m m m m m m m m m m m m m V.a a a a a a a a a a a a a a a E * O @ @ _ $ # ",
"O y.y.@       $   w a a a a a a a a a a a a a a a a a a a a a a a a a a a a a a a a a a a a a a a a a a a a a a E x + *   } + @ ",
"X z z # @     @   w a a a a a a a a a a a a a a a a a a a a a a a a a a a a a a a a a a a a a a a a a a a a a a V @ @ @ + $ B.X ",
"= U = o .         e a a a a a a a a a a a a a a a a a a a a a a a a a a a a a a a a a a a a a a a a a a a a a a V $ $   U . = @ ",
"U       @   @     e a a a a a a a a a a a a a a a a a a a a a a a a a a a a a a a a a a a a a a a a a a a a a a V               ",
"                @ C.B V B Z.A.a a a a a a a a a a a a a a a a a a a a a a a a a a a a a a a a a a a a S.B V B B H               ",
"    $ @       @ $ G $   @ D.F.a a a a a a a a a a a a a a a a a a a a a a a a a a a a a a a a a a a a D                   $   @ ",
"    @             o @     $ P a a a a a a a a a a a a a a a a a a a a a a a a a a a a a a a a a a a a G.@     @ @     @   @     ",
"  $     @ $       @     @ @ 7.a a a a a a a a a a a a a a a a a a a a a a a a a a a a a a a a a a a a D $ # @ $         @       ",
"  @       @             @   H.a a a a a a a a a a a a a a a a a a a a a a a a a a a a a a a a a a a a H   $         @ $   $ @   ",
"@ $ @                     @ C.w q ( q q q w q q e q e w w e e e w e e w w q ( q e e e e e e q w e e w J.@ $ #   $ @         @ $ ",
"              @   @       @ @   $ # $ # .   @ $   @       $ $ @ $     $           $ @       @         @     $   #           @   ",
"@ $ @ - .     $ @   @ @ @       @ $     @ @     @         @ @ $     $ # @ @ @   X $ $ @ o       $ @         $ @ $   @           ",
"h K.X * @ *         @   @             @ $               @ $ $ $ . # X o * $ $ #   @ @ $ #     $ #           @       $ @   @ $   "
};
