/* XPM */
static char *_[] = {
/* columns rows colors chars-per-pixel */
"64 64 151 2 ",
"   c #6BBE31",
".  c #6CBC3A",
"X  c #6BB732",
"o  c #6CC12C",
"O  c #71BE2D",
"+  c #71BD32",
"@  c #6ABD2D",
"#  c #66BA2B",
"$  c #6DC133",
"%  c #96E854",
"&  c #8FE254",
"*  c #71C334",
"=  c #6BC125",
"-  c #66C225",
";  c #65C22C",
":  c #64B732",
">  c #72C92C",
",  c #8FE14E",
"<  c #3A8B4C",
"1  c #368C44",
"2  c #35773C",
"3  c #4B8925",
"4  c #518D2B",
"5  c #529126",
"6  c #519121",
"7  c #4F8E22",
"8  c #508E25",
"9  c #559227",
"0  c #4E891C",
"q  c #55912B",
"w  c #348D3D",
"e  c #35913A",
"r  c #349234",
"t  c #0F2411",
"y  c black",
"u  c #0F2313",
"i  c #358C4A",
"p  c #3A913B",
"a  c #0F2314",
"s  c #6DC239",
"d  c #1B2F0F",
"f  c #5C6CDD",
"g  c #566DDD",
"h  c #66BC3A",
"j  c #6ABD25",
"k  c #1B2E0D",
"l  c #5A71E1",
"z  c #5373D8",
"x  c #6AB72A",
"c  c #95E453",
"v  c gray25",
"b  c white",
"n  c #808080",
"m  c gray75",
"M  c #71C23A",
"N  c #94E34E",
"B  c #1A2F0F",
"V  c #65BC26",
"C  c #65BB32",
"Z  c #1B300C",
"A  c #1C2F0D",
"S  c #1B300D",
"D  c #67C031",
"F  c #3A8E33",
"G  c #68B726",
"H  c #9BE84E",
"J  c #9AE54D",
"K  c #41924A",
"L  c #72BB3B",
"P  c #99E653",
"I  c #6BBD43",
"U  c #508925",
"Y  c #519113",
"T  c #4F8E1C",
"R  c #4C8D2B",
"E  c #64AA27",
"W  c #71BE22",
"Q  c #9CEB59",
"!  c #93DE46",
"~  c #A0EA59",
"^  c #53A527",
"/  c #53A72D",
"(  c #1C310D",
")  c #366019",
"_  c #9BE359",
"`  c #90DF4E",
"'  c #57AA28",
"]  c #97E84D",
"[  c #253915",
"{  c #355F18",
"}  c #263A15",
"|  c #315B13",
" . c #DFDFDF",
".. c gray81",
"X. c #EFEFEF",
"o. c #0D1806",
"O. c #1B2F0B",
"+. c #2F5316",
"@. c #6CB73E",
"#. c #5B72D8",
"$. c #5A75E8",
"%. c #566BD6",
"&. c #1B300B",
"*. c #362030",
"=. c #6CC11A",
"-. c #37202C",
";. c #71B649",
":. c #348C35",
">. c #19310B",
",. c #5EC32B",
"<. c #359142",
"1. c #173109",
"2. c #0D2313",
"3. c #1F2D0F",
"4. c #73BA44",
"5. c #3B8D3B",
"6. c #0F2311",
"7. c #18310B",
"8. c #6CC827",
"9. c #66BB1E",
"0. c #93E545",
"q. c #95E842",
"w. c #183209",
"e. c #88EE44",
"r. c #A2DF60",
"t. c #1C300B",
"y. c #72C22D",
"u. c #1B2F09",
"i. c #8DDF4B",
"p. c #579A28",
"a. c #39691C",
"s. c #1A2F0B",
"d. c #273A15",
"f. c #2D5213",
"g. c #94E55A",
"h. c #7BB53A",
"j. c #5FB323",
"k. c #3B8C43",
"l. c #3B8B50",
"z. c #5EC922",
"x. c #63B72C",
"c. c #95E859",
"v. c #63B626",
"b. c #3C9225",
"n. c #65BA41",
"m. c #4A722D",
"M. c #243915",
"N. c #47712A",
"B. c #335D15",
"V. c #43761F",
"C. c #64B63B",
/* pixels */
"          . . . X o O + @               @ #   @     X @     @ @ @   @ $               $ @     @         $ @               % & * ",
"  @       = - ; : >   @           o       @ *   * $ @ $   *   +     @ * @             @             $ @ @       $ @ @     % , $ ",
"      @   < 1 1 2 3 4 5 6 7 8 8 8 8 8 7 8 9 8 7 7 7 7 5 7 0 7 7 q 8 8 8 7 8 7 8 5 7 8 8 8 6         @       $ @ #     $ @ @ * = ",
"    @ $ @ w e r t y y y y y y y y y y y y y y y y y y y y y y y y y y y y y y y y y y y y y     @         $ #   $     @ @ @   * ",
"        @ 1 w r u y y y y y y y y y y y y y y y y y y y y y y y y y y y y y y y y y y y y y     $ #     @ $     @         $   @ ",
"$ @     @ i 1 p a y y y y y y y y y y y y y y y y y y y y y y y y y y y y y y y y y y y y y @     $     $ #               @ + @ ",
"@ $ $   $ # s = d y y y y y y y y y y y y y y y y y y y y y y y y y y y y y y y y y y y y y       @ $       @             f g + ",
"    @   @ o h j k y y y y y y y y y y y y y y y y y y y y y y y y y y y y y y y y y y y y y @       @       $ @           l z x ",
"+ @ * c % #   @ d y y y y v b b b b b b b b b b n y y y y v b b b b b b b b b b m y y y y y         @ $           @       + @ M ",
"M @   N % o   o B y y y y v b b b b b b b b b b n y y y y v b b b b b b b b b b m y y y y y           @ @     @         @ M V C ",
"  @ @ * @   @ @ Z y y y y v b b b b b b b b b b n y y y y v b b b b b b b b b b m y y y y y       @     $ @         @     = . o ",
"$ X * @ j s o o d y y y y v b b b b b b b b b b n y y y y v b b b b b b b b b b m y y y y y     @ $                 $ @     @ $ ",
"$   @   +   @ . A y y y y v b b b b b b b b b b n y y y y v b b b b b b b b b b m y y y y y                     $ @   @ @ o X @ ",
"  $ @ $ @ $ j   k y y y y v b b b b b b b b b b n y y y y v b b b b b b b b b b m y y y y y           o         @     $   . ; $ ",
"@             @ S y y y y v b b b b b b b b b b n y y y y v b b b b b b b b b b m y y y y y 1 D $ @     @   X . $ ; o M . o # $ ",
"                Z y y y y v b b b b b b b b b b n y y y y v b b b b b b b b b b m y y y y y F # @ @ $ @ @ * @ j @ V # X + G o # ",
"    @     #   . k y y y y v b b b b b b b b b b n y y y y v b b b b b b b b b b m y y y y y < h $ = s V   c H J N * D $ o c % * ",
"      @ $   $ $ Z y y y y v b b b b b b b b b b n y y y y v b b b b b b b b b b m y y y y y K @ # o D # L P J J P . I s - P c @ ",
"      $   o #   Z y y y y v b b b b b b b b b b n y y y y v b b b b b b b b b b m y y y y y U Y T q R E W Q ! ~ c ^ / C = @ O @ ",
"@         @ o @ ( y y y y v b b b b b b b b b b n y y y y v b b b b b b b b b b m y y y y y y y y y y ) j _ ` Q c ' ^ X * @ @ $ ",
"  @       P ] N [ y y y y v b b b b b b b b b b n y y y y v b b b b b b b b b b m y y y y y y y y y y { M $ @   $ C D $ x * # X ",
"  $ @     J J N } y y y y v b b b b b b b b b b n y y y y v b b b b b b b b b b m y y y y y y y y y y | o V M   X o @ @ L     $ ",
"        @ J J N } y y y y v b b b b b b b b b b n y y y y v b b b b b b b b b b m y y y y y y y y y y {     @   $ @   @   @ V M ",
"    @ $ @ P P N [ y y y y v b b b b b b b b b b n y y y y v b b b b b b b b b b m y y y y y y y y y y {     $ @ @ $       s I V ",
"@         @ o @ ( y y y y v b b b b b b b b b b  .m m m m ..b b b b b b b b b b X.m m m m m y y y y y o.Z Z S O.+.  $ @   - V o ",
"$ @       @   @ S y y y y v b b b b b b b b b b b b b b b b b b b b b b b b b b b b b b b b y y y y y y y y y y Z   @     @.X $ ",
"      @ @ $ $ . Z y y y y v b b b b b b b b b b b b b b b b b b b b b b b b b b b b b b b b y y y y y y y y y y Z # $     #.$.j ",
"    @ $ $ C #   Z y y y y v b b b b b b b b b b b b b b b b b b b b b b b b b b b b b b b b y y y y y y y y y y O.$       %.l + ",
"  $       $     Z y y y y v b b b b b b b b b b b b b b b b b b b b b b b b b b b b b b b b y y y y y y y y y y Z @       + j   ",
"  @   @       # Z y y y y v b b b b b b b b b b b b b b b b b b b b b b b b b b b b b b b b y y y y y y y y y y Z         . . ; ",
"@ $ #   @ + @ o &.y y y y v b b b b b b b b b b b b b b b b b b b b b b b b b b b b b b b b y y y y y y y y y y *.# $ ; =.$ @ $ ",
"    $     C C s B y y y y v b b b b b b b b b b b b b b b b b b b b b b b b b b b b b b b b y y y y y y y y y y -.L *   ;.$   $ ",
"    @   C 1 e :.t y y y y v b b b b b b b b b b b b b b b b b b b b b b b b b b b b b b b b y y y y y y y y y y >.# @.,.j @ @ @ ",
"        @ <.<.w u y y y y v b b b b b b b b b b b b b b b b b b b b b b b b b b b b b b b b y y y y y y y y y y 1.; o $ $ *     ",
"  @       w <.w 2.y y y y v b b b b b b b b b b b b b b b b b b b b b b b b b b b b b b b b y y y y y y y y y y 3.4.C + G @     ",
"$         <.p 5.6.y y y y y y y y y y y y y y y y y y y y v b b b b b b b b b b m y y y y y y y y y y y y y y y 7.8.9.$ $ O * G ",
"@         C C D B y y y y y y y y y y y y y y y y y y y y v b b b b b b b b b b m y y y y y y y y y y y y y y y A . L 0.q.] c + ",
"    $ @   + @ o &.y y y y y y y y y y y y y y y y y y y y v b b b b b b b b b b m y y y y y y y y y y y y y y y w.O + e.r.J P @ ",
"@ $ @   @     $ Z y y y y y y y y y y y y y y y y y y y y v b b b b b b b b b b m y y y y y y y y y y y y y y y t.Q P @     y.c ",
"@     $     @ @ Z y y y y y y y y y y y y y y y y y y y y v b b b b b b b b b b m y y y y y y y y y y y y y y y u.i.c       G ] ",
"  C     @       p.8 8 7 5 a.y y y y y y y y y y y y y y y v b b b b b b b b b b m y y y y y y y y y y y y y y y t.Q ~ j @ @ j ~ ",
"* @ @ $ $     @ @         6 y y y y y y y y y y y y y y y v b b b b b b b b b b m y y y y y y y y y y y y y y y Z ` ` @ + y.y., ",
"i.* @ @ @ @     @ $       8 y y y y y y y y y y y y y y y v b b b b b b b b b b m y y y y y y y y y y y y y y y d j * c c % , * ",
"c $   $ $             @   7 y y y y y y y y y y y y y y y v b b b b b b b b b b m y y y y y y y y y y y y y y y O.@ + P P P c j ",
"c O @   D                 8 y y y y y y y y y y y y y y y v b b b b b b b b b b m y y y y y y y y y y y y y y y s.M @ o o @ * V ",
"c O $             @ @ $   p.Z Z Z Z Z y y y y y y y y y y v b b b b b b b b b b m y y y y y d.O.s.( Z O.&.O.Z Z f.$       + @ @ ",
"g.@ * : y.        $     @ $     @ $ $ y y y y y y y y y y v b b b b b b b b b b m y y y y y % = @ $   @ + * V _ g.@   * . ; h.; ",
"] @ # * .         @     @ $ @ $ $ @ @ y y y y y y y y y y v b b b b b b b b b b m y y y y y , o #   $   @ G * c N * # # @ o s j.",
"$ k.5.  #     @       @ $ $ $ # # $ $ y y y y y y y y y y v b b b b b b b b b b m y y y y y @ $ @ # $     P c O @ Q P +   # = . ",
"$ l.k.. @   @ $         @ @   $     $ y y y y y y y y y y v b b b b b b b b b b m y y y y y @ @ $ $ $ @ + c c y.G P ` @   o z.  ",
"= x.x.* 4.o   @   $ @     $ # g.&     y y y y y y y y y y v b b b b b b b b b b m y y y y y % @ # o   #   O * _ c * O @ @ L $ # ",
"O 8.8.@       $   @       $ @ c.c $ $ y y y y y y y y y y y y y y y y y y y y y y y y y y y g.@   . $ #   $ v.P c j + *   @.+ @ ",
"X h h # @     @   @ @     @ @ $     @ y y y y y y y y y y y y y y y y y y y y y y y y y y y * @ $ D   #   s @ M @ @ @ @ + $ z.X ",
"= D = o .           $     $   # $   @ y y y y y y y y y y y y y y y y y y y y y y y y y y y @ $ .   $ @       @ @ $ $   D . = @ ",
"D       @   @           $ l.:.I $ #   y y y y y y y y y y y y y y y y y y y y y y y y y y y $   @ @             @               ",
"                @     @   p b.C @ @ * y y y y y y y y y y y y y y y y y y y y y y y y y y y @   @ $       @                     ",
"    $ @       @ $ C $   @ n.: $ @ @ + { { ) { m.M.y y y y y y y y y y y y y y y y y y y y y           @                   $   @ ",
"    @             o @     $ $ - @     $ $     g.N.y y y y y y y y y y y y y y y y y y y y y @         $ @     @ @     @   @     ",
"  $     @ $       @     @ @ o @ @ *   $     # * ) y y y y y y y y y y y y y y y y y y y y y o   @ $   @ $ # @ $         @       ",
"  @       @             @   M   s $   @ @ $   # B.y y y y y y y y y y y y y y y y y y y y y     $ #       $         @ $   $ @   ",
"@ $ @                     @   @ $ # $ $ $ @ $ $ { y y y y y y y y y y y y y y y y y y y y y $ @     @ $ @ $ #   $ @         @ $ ",
"              @   @       @ @   $ # $ # .   @ $ V.O.Z Z Z S S O.S Z Z S Z Z Z Z Z S O.Z Z Z @         @     $   #           @   ",
"@ $ @ - .     $ @   @ @ @       @ $     @ @     @         @ @ $     $ # @ @ @   X $ $ @ o       $ @         $ @ $   @           ",
"s C.X * @ *         @   @             @ $               @ $ $ $ . # X o * $ $ #   @ @ $ #     $ #           @       $ @   @ $   "
};
