/* XPM */
static char *_[] = {
/* columns rows colors chars-per-pixel */
"64 64 135 2 ",
"   c #6BBE31",
".  c #6CBC3A",
"X  c #6BB732",
"o  c #6CC12C",
"O  c #71BE2D",
"+  c #71BD32",
"@  c #6ABD2D",
"#  c #66BA2B",
"$  c #6DC133",
"%  c #96E854",
"&  c #8FE254",
"*  c #71C334",
"=  c #6BC125",
"-  c #66C225",
";  c #65C22C",
":  c #64B732",
">  c #72C92C",
",  c #8FE14E",
"<  c #3A8B4C",
"1  c #368C44",
"2  c #35773C",
"3  c #4B8925",
"4  c #518D2B",
"5  c #529126",
"6  c #519121",
"7  c #4F8E22",
"8  c #508E25",
"9  c #559227",
"0  c #4E891C",
"q  c #55912B",
"w  c #5DA527",
"e  c #348D3D",
"r  c #35913A",
"t  c #349234",
"y  c #0F2411",
"u  c black",
"i  c #355F18",
"p  c #0F2313",
"a  c #358C4A",
"s  c #3A913B",
"d  c #0F2314",
"f  c #6DC239",
"g  c #1B2F0F",
"h  c #366019",
"j  c #5C6CDD",
"k  c #566DDD",
"l  c #66BC3A",
"z  c #6ABD25",
"x  c #1B2E0D",
"c  c #355E16",
"v  c #5A71E1",
"b  c #5373D8",
"n  c #6AB72A",
"m  c #95E453",
"M  c #808080",
"N  c white",
"B  c gray25",
"V  c #1B300C",
"C  c #71C23A",
"Z  c #94E34E",
"A  c #1A2F0F",
"S  c #1B2F0B",
"D  c #65BC26",
"F  c #65BB32",
"G  c #1C2F0D",
"H  c #1B300D",
"J  c #1B2F09",
"K  c #68B726",
"L  c #273913",
"P  c #67C031",
"I  c #99E653",
"U  c #6BBD43",
"Y  c gray75",
"T  c gray19",
"R  c #283B16",
"E  c #53A527",
"W  c #53A72D",
"Q  c #1C310D",
"!  c #273B16",
"~  c #57AA28",
"^  c #97E84D",
"/  c #253915",
"(  c #9AE54D",
")  c #263A15",
"_  c #72BB3B",
"`  c #6CB73E",
"'  c #5B72D8",
"]  c #5A75E8",
"[  c #566BD6",
"{  c #1B300B",
"}  c #381D31",
"|  c #D981BE",
" . c #6CC11A",
".. c #371D30",
"X. c #DD7FB1",
"o. c #71B649",
"O. c #348C35",
"+. c #5EC32B",
"@. c #359142",
"#. c #173109",
"$. c #5BC424",
"%. c #0D2313",
"&. c #606060",
"*. c gray81",
"=. c #7BB53A",
"-. c #73BA44",
";. c #3B8D3B",
":. c #0F2311",
">. c #18310B",
",. c #6CC827",
"<. c #66BB1E",
"1. c #93E545",
"2. c #95E842",
"3. c #5EC922",
"4. c #88EE44",
"5. c #A2DF60",
"6. c #9CEB59",
"7. c #72C22D",
"8. c #1D310B",
"9. c #8DDF4B",
"0. c #A0EA59",
"q. c #90DF4E",
"w. c #101010",
"e. c #94E55A",
"r. c #273916",
"t. c #5FB323",
"y. c #3B8C43",
"u. c #1C300B",
"i. c #3B8B50",
"p. c #63B72C",
"a. c #1C310F",
"s. c #325D20",
"d. c #4C8B20",
"f. c #5EA62B",
"g. c #64B63B",
/* pixels */
"          . . . X o O + @               @ #   @     X @     @ @ @   @ $               $ @     @         $ @               % & * ",
"  @       = - ; : >   @           o       @ *   * $ @ $   *   +     @ * @             @             $ @ @       $ @ @     % , $ ",
"      @   < 1 1 2 3 4 5 6 7 8 8 8 8 8 7 8 9 8 7 7 7 7 5 7 0 7 7 q 8 8 8 7 8 7 8 5 7 8 8 8 6 8 8 8 8 w       $ @ #     $ @ @ * = ",
"    @ $ @ e r t y u u u u u u u u u u u u u u u u u u u u u u u u u u u u u u u u u u u u u u u u u i     $ #   $     @ @ @   * ",
"        @ 1 e t p u u u u u u u u u u u u u u u u u u u u u u u u u u u u u u u u u u u u u u u u u i   @ $     @         $   @ ",
"$ @     @ a 1 s d u u u u u u u u u u u u u u u u u u u u u u u u u u u u u u u u u u u u u u u u u i   $ #               @ + @ ",
"@ $ $   $ # f = g u u u u u u u u u u u u u u u u u u u u u u u u u u u u u u u u u u u u u u u u u h       @             j k + ",
"    @   @ o l z x u u u u u u u u u u u u u u u u u u u u u u u u u u u u u u u u u u u u u u u u u c       $ @           v b n ",
"+ @ * m % #   @ g u u u u M N N N N N N N N N N N N N N N N N N N N N N N N N N N N N N N B u u u u u u u u u V   @       + @ C ",
"C @   Z % o   o A u u u u M N N N N N N N N N N N N N N N N N N N N N N N N N N N N N N N B u u u u u u u u u S         @ C D F ",
"  @ @ * @   @ @ V u u u u M N N N N N N N N N N N N N N N N N N N N N N N N N N N N N N N B u u u u u u u u u V     @     = . o ",
"$ X * @ z f o o g u u u u M N N N N N N N N N N N N N N N N N N N N N N N N N N N N N N N B u u u u u u u u u V     $ @     @ $ ",
"$   @   +   @ . G u u u u M N N N N N N N N N N N N N N N N N N N N N N N N N N N N N N N B u u u u u u u u u V $ @   @ @ o X @ ",
"  $ @ $ @ $ z   x u u u u M N N N N N N N N N N N N N N N N N N N N N N N N N N N N N N N B u u u u u u u u u V @     $   . ; $ ",
"@             @ H u u u u M N N N N N N N N N N N N N N N N N N N N N N N N N N N N N N N B u u u u u u u u u g $ ; o C . o # $ ",
"                V u u u u M N N N N N N N N N N N N N N N N N N N N N N N N N N N N N N N B u u u u u u u u u J @ D # X + K o # ",
"    @     #   . x u u u u M N N N N N N N N N N N N N N N N N N N N N N N N N N N N N N N B u u u u u u u u u L Z * P $ o m % * ",
"      @ $   $ $ V u u u u M N N N N N N N N N N N N N N N N N N N N N N N N N N N N N N N B u u u u u u u u u L I . U f - I m @ ",
"      $   o #   V u u u u M N N N N N N N N N N Y Y Y Y Y Y Y Y Y Y Y Y Y Y Y Y Y Y Y Y Y T u u u u u u u u u R m E W F = @ O @ ",
"@         @ o @ Q u u u u M N N N N N N N N N N u u u u u u u u u u u u u u u u u u u u u u u u u u u u u u u ! m ~ E X * @ @ $ ",
"  @       I ^ Z / u u u u M N N N N N N N N N N u u u u u u u u u u u u u u u u u u u u u u u u u u u u u u u V $ F P $ n * # X ",
"  $ @     ( ( Z ) u u u u M N N N N N N N N N N u u u u u u u u u u u u u u u u u u u u u u u u u u u u u u u V X o @ @ _     $ ",
"        @ ( ( Z ) u u u u M N N N N N N N N N N u u u u u u u u u u u u u u u u u u u u u u u u u u u u u u u V $ @   @   @ D C ",
"    @ $ @ I I Z / u u u u M N N N N N N N N N N u u u u u u u u u u u u u u u u u u u u u u u u u u u u u u u S @ $       f U D ",
"@         @ o @ Q u u u u M N N N N N N N N N N N N N N N N N N N N N N N N N N u u u u u u u u u u u u u u u S     $ @   - D o ",
"$ @       @   @ H u u u u M N N N N N N N N N N N N N N N N N N N N N N N N N N u u u u u u u u u u u u u u u V     @     ` X $ ",
"      @ @ $ $ . V u u u u M N N N N N N N N N N N N N N N N N N N N N N N N N N u u u u u u u u u u u u u u u V   # $     ' ] z ",
"    @ $ $ F #   V u u u u M N N N N N N N N N N N N N N N N N N N N N N N N N N u u u u u u u u u u u u u u u V @ $       [ v + ",
"  $       $     V u u u u M N N N N N N N N N N N N N N N N N N N N N N N N N N u u u u u u u u u u u u u u u V   @       + z   ",
"  @   @       # V u u u u M N N N N N N N N N N N N N N N N N N N N N N N N N N Y Y Y Y Y T u u u u u u u u u S           . . ; ",
"@ $ #   @ + @ o { u u u u M N N N N N N N N N N N N N N N N N N N N N N N N N N N N N N N B u u u u u u u u u } | # $ ;  .$ @ $ ",
"    $     F F f A u u u u M N N N N N N N N N N N N N N N N N N N N N N N N N N N N N N N B u u u u u u u u u ..X._ *   o.$   $ ",
"    @   F 1 r O.y u u u u M N N N N N N N N N N N N N N N N N N N N N N N N N N N N N N N B u u u u u u u u u V ; # ` +.z @ @ @ ",
"        @ @.@.e p u u u u M N N N N N N N N N N N N N N N N N N N N N N N N N N N N N N N B u u u u u u u u u #.$.; o $ $ *     ",
"  @       e @.e %.u u u u &.Y Y Y Y Y Y Y Y Y Y Y Y Y Y Y Y Y Y Y Y *.N N N N N N N N N N B u u u u u u u u u G =.-.F + K @     ",
"$         @.s ;.:.u u u u u u u u u u u u u u u u u u u u u u u u u B N N N N N N N N N N B u u u u u u u u u >.+.,.<.$ $ O * K ",
"@         F F P A u u u u u u u u u u u u u u u u u u u u u u u u u B N N N N N N N N N N B u u u u u u u u u x + . _ 1.2.^ m + ",
"    $ @   + @ o { u u u u u u u u u u u u u u u u u u u u u u u u u B N N N N N N N N N N B u u u u u u u u u V 3.O + 4.5.( I @ ",
"@ $ @   @     $ V u u u u u u u u u u u u u u u u u u u u u u u u u B N N N N N N N N N N B u u u u u u u u u J O 6.I @     7.m ",
"@     $     @ @ V u u u u u u u u u u u u u u u u u u u u u u u u u B N N N N N N N N N N B u u u u u u u u u 8.z 9.m       K ^ ",
"  F     @       V u u u u M N N N N N N N N N N N N N N N N N N N N N N N N N N N N N N N B u u u u u u u u u H O 6.0.z @ @ z 0.",
"* @ @ $ $     @ S u u u u M N N N N N N N N N N N N N N N N N N N N N N N N N N N N N N N B u u u u u u u u u H   q.q.@ + 7.7., ",
"9.* @ @ @ @     S u u u u M N N N N N N N N N N N N N N N N N N N N N N N N N N N N N N N B u u u u u u u u u V . z * m m % , * ",
"m $   $ $       V u u u u M N N N N N N N N N N N N N N N N N N N N N N N N N N N N N N N B u u u u u u u u u V @ @ + I I I m z ",
"m O @   P       V u u u u M N N N N N N N N N N N N N N N N N N N N N N N N N N N N N N N B u u u u u u u u u S # C @ o o @ * D ",
"m O $           V u u u u M N N N N N N N N N N N N N N N N N N N N N N N N N N B B B B B w.u u u u u u u u u V # $       + @ @ ",
"e.@ * : 7.      V u u u u M N N N N N N N N N N N N N N N N N N N N N N N N N N u u u u u u u u u u u u u u u r.e.@   * . ; =.; ",
"^ @ # * .       V u u u u M N N N N N N N N N N N N N N N N N N N N N N N N N N u u u u u u u u u u u u u u u / Z * # # @ o f t.",
"$ y.;.  #     @ V u u u u M N N N N N N N N N N N N N N N N N N N N N N N N N N u u u u u u u u u u u u u u u u.@ 6.I +   # = . ",
"$ i.y.. @   @ $ V u u u u M N N N N N N N N N N N N N N N N N N N N N N N N N N u u u u u u u u u u u u u u u 8.K I q.@   o 3.  ",
"= p.p.* -.o   @ V u u u u &.Y Y Y Y Y Y Y Y Y Y Y Y Y Y Y Y Y Y Y Y Y Y Y Y Y Y u u u u u u u u u u u u u u u r.m * O @ @ _ $ # ",
"O ,.,.@       $ V u u u u u u u u u u u u u u u u u u u u u u u u u u u u u u u u u u u u u u u u u u u u u u ) m z + *   ` + @ ",
"X l l # @     @ V u u u u u u u u u u u u u u u u u u u u u u u u u u u u u u u u u u u u u u u u u u u u u u a.@ @ @ @ + $ 3.X ",
"= P = o .       V u u u u u u u u u u u u u u u u u u u u u u u u u u u u u u u u u u u u u u u u u u u u u u S @ $ $   P . = @ ",
"P       @   @   V u u u u u u u u u u u u u u u u u u u u u u u u u u u u u u u u u u u u u u u u u u u u u u V @               ",
"                S u u u u u u u u u u u u u u u u u u u u u u u u u u u u u u u u u u u u u u u u u u u u u u V                 ",
"    $ @       @ $ F $   @ s.u u u u u u u u u u u u u u u u u u u u u u u u u u u u u u u u u u u u i @                   $   @ ",
"    @             o @     h u u u u u u u u u u u u u u u u u u u u u u u u u u u u u u u u u u u u i $ @     @ @     @   @     ",
"  $     @ $       @     @ c u u u u u u u u u u u u u u u u u u u u u u u u u u u u u u u u u u u u i @ $ # @ $         @       ",
"  @       @             @ i u u u u u u u u u u u u u u u u u u u u u u u u u u u u u u u u u u u u i     $         @ $   $ @   ",
"@ $ @                     c u u u u u u u u u u u u u u u u u u u u u u u u u u u u u u u u u u u u c $ @ $ #   $ @         @ $ ",
"              @   @       w 7 8 5 d.5 d.4 8 7 5 8 7 8 8 8 5 5 7 5 8 8 5 8 8 8 8 8 5 7 8 8 8 7 8 8 8 f.@     $   #           @   ",
"@ $ @ - .     $ @   @ @ @       @ $     @ @     @         @ @ $     $ # @ @ @   X $ $ @ o       $ @         $ @ $   @           ",
"f g.X * @ *         @   @             @ $               @ $ $ $ . # X o * $ $ #   @ @ $ #     $ #           @       $ @   @ $   "
};
