/* XPM */
static char *_[] = {
/* columns rows colors chars-per-pixel */
"64 64 160 2 ",
"   c #6BBE31",
".  c #6CBC3A",
"X  c #6BB732",
"o  c #6CC12C",
"O  c #71BE2D",
"+  c #71BD32",
"@  c #6ABD2D",
"#  c #66BA2B",
"$  c #6DC133",
"%  c #96E854",
"&  c #8FE254",
"*  c #71C334",
"=  c #6BC125",
"-  c #66C225",
";  c #65C22C",
":  c #64B732",
">  c #72C92C",
",  c #8FE14E",
"<  c #3A8B4C",
"1  c #368C44",
"2  c #3D8945",
"3  c #4B8925",
"4  c #518D2B",
"5  c #529126",
"6  c #519121",
"7  c #4F8E22",
"8  c #508E25",
"9  c #559227",
"0  c #4E891C",
"q  c #71C23A",
"w  c #348D3D",
"e  c #35913A",
"r  c #349234",
"t  c #2D6D32",
"y  c black",
"u  c #68B726",
"i  c #2B6839",
"p  c #95E453",
"a  c #358C4A",
"s  c #3A913B",
"d  c #2C683C",
"f  c #99E653",
"g  c #67C031",
"h  c #6DC239",
"j  c #6CB73E",
"k  c #3B8B50",
"l  c #5C6CDD",
"z  c #566DDD",
"x  c #66BC3A",
"c  c #6ABD25",
"v  c #508925",
"b  c #359142",
"n  c #5A71E1",
"m  c #5373D8",
"M  c #6AB72A",
"N  c white",
"B  c gray75",
"V  c #336018",
"C  c #65BC26",
"Z  c #3C9143",
"A  c #94E34E",
"S  c #4C8D2B",
"D  c #36611C",
"F  c #6CC827",
"G  c #65BB32",
"H  c #355E16",
"J  c #72BB3B",
"K  c #558E25",
"L  c #355F18",
"P  c #356012",
"I  c #366019",
"U  c #365E1D",
"Y  c #74CB3A",
"T  c #3A8E33",
"R  c #38611D",
"E  c #72C22D",
"W  c #41924A",
"Q  c #9BE84E",
"!  c #9AE54D",
"~  c #356022",
"^  c #449342",
"/  c #368C2D",
"(  c #3B8C43",
")  c #6BBD43",
"_  c #264516",
"`  c #558C2C",
"'  c #50911C",
"]  c #508E32",
"[  c #4C911C",
"{  c #64AC2F",
"}  c #6CC11A",
"|  c #71BE22",
" . c #9CEB59",
".. c #93DE46",
"X. c #A0EA59",
"o. c #53A527",
"O. c #53A72D",
"+. c #72C421",
"@. c #9BE359",
"#. c #90DF4E",
"$. c #57AA28",
"%. c #97E84D",
"&. c #70AB3E",
"*. c #2C6932",
"=. c #73AC3E",
"-. c #276928",
";. c #63B626",
":. c #5B72D8",
">. c #5A75E8",
",. c #566BD6",
"<. c #EFEFEF",
"1. c gray19",
"2. c #0D1806",
"3. c #1B300C",
"4. c #1B2F0B",
"5. c #2F5316",
"6. c gray25",
"7. c #362030",
"8. c #37202C",
"9. c #71B649",
"0. c #348C35",
"q. c #19310B",
"w. c #5EC32B",
"e. c #173109",
"r. c #286937",
"t. c #DFDFDF",
"y. c #1F2D0F",
"u. c #73BA44",
"i. c #3B8D3B",
"p. c #808080",
"a. c #18310B",
"s. c #66BB1E",
"d. c #1C2F0D",
"f. c #93E545",
"g. c #95E842",
"h. c #183209",
"j. c #88EE44",
"k. c #A2DF60",
"l. c #1C300B",
"z. c #1B2F09",
"x. c #8DDF4B",
"c. c #1B2F0F",
"v. c #1A2F0B",
"b. c #9F9F9F",
"n. c #94E55A",
"m. c #253917",
"M. c #7BB53A",
"N. c #253914",
"B. c #5FB323",
"V. c #1A2E0A",
"C. c #5EC922",
"Z. c #63B72C",
"A. c #579A28",
"S. c #1B300D",
"D. c #606060",
"F. c #253915",
"G. c #65BA41",
"H. c #59A326",
"J. c #5DA527",
"K. c #64B63B",
/* pixels */
"          . . . X o O + @               @ #   @     X @     @ @ @   @ $               $ @     @         $ @               % & * ",
"  @       = - ; : >   @           o       @ *   * $ @ $   *   +     @ * @             @             $ @ @       $ @ @     % , $ ",
"      @   < 1 1 2 3 4 5 6 7 8 8 8 8 8 7 8 9 8 7 7 7 7 5 7 0 @ @ q       @   @   $ @       o         @       $ @ #     $ @ @ * = ",
"    @ $ @ w e r t y y y y y y y y y y y y y y y y y y y y y * u         o       @               @         $ #   $     @ @ @   * ",
"        @ 1 w r i y y y y y y y y y y y y y y y y y y y y y p *         o               @       $ #     @ $     @         $   @ ",
"$ @     @ a 1 s d y y y y y y y y y y y y y y y y y y y y y f @ @ q g                 @   $ @     $     $ #               @ + @ ",
"@ $ $   $ # h = 4 y y y y y y y y y y y y y y y y y y y y y u q j @ * X = @   . - k w 1 a $       @ $       @             l z + ",
"    @   @ o x c v y y y y y y y y y y y y y y y y y y y y y * o o # # @ $   $   - < e s b @ @       @       $ @           n m M ",
"+ @ * p % #   @ 4 y y y y y N N N N N N N N N N B y y y y y y y y y y V # # $ x C Z r e w           @ $           @       + @ q ",
"q @   A % o   o S y y y y y N N N N N N N N N N B y y y y y y y y y y D # F $ G : Z Z a a $           @ @     @         @ q C G ",
"  @ @ * @   @ @ 8 y y y y y N N N N N N N N N N B y y y y y y y y y y H J X + O > G ; - = $       @     $ @         @     = . o ",
"$ X * @ c h o o 4 y y y y y N N N N N N N N N N B y y y y y y y y y y H .   O + O x   x X $     @ $                 $ @     @ $ ",
"$   @   +   @ . K y y y y y N N N N N N N N N N B y y y y y y y y y y L @     @       . @ @                     $ @   @ @ o X @ ",
"  $ @ $ @ $ c   v y y y y y N N N N N N N N N N B y y y y y y y y y y P . g       @ ; @ @ $           o         @     $   . ; $ ",
"@             @ 5 y y y y y N N N N N N N N N N B y y y y y y y y y y I = o g = @   o < b b 1 g $ @     @   X . $ ; o q . o # $ ",
"                8 y y y y y N N N N N N N N N N B y y y y y y y y y y U q X G Y   + @ 1 w r T # @ @ $ @ @ * @ c @ C # X + u o # ",
"    @     #   . v y y y y y N N N N N N N N N N B y y y y y y y y y y R @ E # @ # X @ W w a < x $ = h C   p Q ! A * g $ o p % * ",
"      @ $   $ $ 8 y y y y y N N N N N N N N N N B y y y y y y y y y y ~ o - c @ $ . # ^ / ( W @ # o g # J f ! ! f . ) h - f p @ ",
"      $   o #   8 y y y y y N N N N N N N N N N B y y y y y y y y y y _ 7 ` 8 4 5 7 ' ] S [ { } c q x E |  ...X.p o.O.G = @ O @ ",
"@         @ o @ 9 y y y y y N N N N N N N N N N B y y y y y y y y y y y y y y y y y y y y y S +.+ J x $ c @.#. .p $.o.X * @ @ $ ",
"  @       f %.A &.y y y y y N N N N N N N N N N B y y y y y y y y y y y y y y y y y y y y y *.@   @ $   q $ @   $ G g $ M * # X ",
"  $ @     ! ! A =.y y y y y N N N N N N N N N N B y y y y y y y y y y y y y y y y y y y y y -.h   # h ;.o C q   X o @ @ J     $ ",
"        @ ! ! A =.y y y y y N N N N N N N N N N B y y y y y y y y y y y y y y y y y y y y y 7 $   @         @   $ @   @   @ C q ",
"    @ $ @ f f A &.y y y y y N N N N N N N N N N B y y y y y y y y y y y y y y y y y y y y y 8               $ @ @ $       h ) C ",
"@         @ o @ 9 y y y y y N N N N N N N N N N N N N N N N N N N N N N N N N N B y y y y y y y y y y L     $ @     $ @   - C o ",
"$ @       @   @ 5 y y y y y N N N N N N N N N N N N N N N N N N N N N N N N N N B y y y y y y y y y y L     @       @     j X $ ",
"      @ @ $ $ . 8 y y y y y N N N N N N N N N N N N N N N N N N N N N N N N N N B y y y y y y y y y y L           # $     :.>.c ",
"    @ $ $ G #   8 y y y y y N N N N N N N N N N N N N N N N N N N N N N N N N N B y y y y y y y y y y H $ @     @ $       ,.n + ",
"  $       $     8 y y y y y N N N N N N N N N N N N N N N N N N N N N N N N N N B y y y y y y y y y y H           @       + c   ",
"  @   @       # 8 y y y y y N N N N N N N N N N N N N N N N N N N N N N N N N N <.B B B B B 1.y y y y 2.3.3.3.4.5.        . . ; ",
"@ $ #   @ + @ o 6 y y y y y N N N N N N N N N N N N N N N N N N N N N N N N N N N N N N N N 6.y y y y y y y y y 7.# $ ; } $ @ $ ",
"    $     G G h S y y y y y N N N N N N N N N N N N N N N N N N N N N N N N N N N N N N N N 6.y y y y y y y y y 8.J *   9.$   $ ",
"    @   G 1 e 0.t y y y y y N N N N N N N N N N N N N N N N N N N N N N N N N N N N N N N N 6.y y y y y y y y y q.# j w.c @ @ @ ",
"        @ b b w i y y y y y N N N N N N N N N N N N N N N N N N N N N N N N N N N N N N N N 6.y y y y y y y y y e.; o $ $ *     ",
"  @       w b w r.y y y y y N N N N N N N N N N <.B B B B B B B B B B t.N N N N N N N N N N 6.y y y y y y y y y y.u.G + u @     ",
"$         b s i.*.y y y y y N N N N N N N N N N B y y y y y y y y y y p.N N N N N N N N N N 6.y y y y y y y y y a.F s.$ $ O * u ",
"@         G G g S y y y y y N N N N N N N N N N B y y y y y y y y y y p.N N N N N N N N N N 6.y y y y y y y y y d.. J f.g.%.p + ",
"    $ @   + @ o 6 y y y y y N N N N N N N N N N B y y y y y y y y y y p.N N N N N N N N N N 6.y y y y y y y y y h.O + j.k.! f @ ",
"@ $ @   @     $ 8 y y y y y N N N N N N N N N N B y y y y y y y y y y p.N N N N N N N N N N 6.y y y y y y y y y l. .f @     E p ",
"@     $     @ @ 8 y y y y y N N N N N N N N N N B y y y y y y y y y y p.N N N N N N N N N N 6.y y y y y y y y y z.x.p       u %.",
"  G     @       8 y y y y y N N N N N N N N N N N N N N N N N N N N N N N N N N N N N N N N 6.y y y y y y y y y l. .X.c @ @ c X.",
"* @ @ $ $     @ 7 y y y y y N N N N N N N N N N N N N N N N N N N N N N N N N N N N N N N N 6.y y y y y y y y y 3.#.#.@ + E E , ",
"x.* @ @ @ @     7 y y y y y N N N N N N N N N N N N N N N N N N N N N N N N N N N N N N N N 6.y y y y y y y y y c.c * p p % , * ",
"p $   $ $       8 y y y y y N N N N N N N N N N N N N N N N N N N N N N N N N N N N N N N N 6.y y y y y y y y y 4.@ + f f f p c ",
"p O @   g       8 y y y y y N N N N N N N N N N N N N N N N N N N N N N N N N N N N N N N N 6.y y y y y y y y y v.q @ o o @ * C ",
"p O $           8 y y y y y 6.6.6.6.6.b.N N N N N N N N N N N N N N N N N N N N N N N N N N 6.y y y y y y y y y v.$       + @ @ ",
"n.@ * : E       8 y y y y y y y y y y p.N N N N N N N N N N N N N N N N N N N N N N N N N N 6.y y y y y y y y y m.@   * . ; M.; ",
"%.@ # * .       8 y y y y y y y y y y p.N N N N N N N N N N N N N N N N N N N N N N N N N N 6.y y y y y y y y y N.* # # @ o h B.",
"$ ( i.  #     @ 8 y y y y y y y y y y p.N N N N N N N N N N N N N N N N N N N N N N N N N N 6.y y y y y y y y y 4. .f +   # = . ",
"$ k ( . @   @ $ 8 y y y y y y y y y y p.N N N N N N N N N N N N N N N N N N N N N N N N N N 6.y y y y y y y y y V.f #.@   o C.  ",
"= Z.Z.* u.o   @ A.S.4.3.3.S.y y y y y D.B B B B B B B B B B B B B B B B B B B B B B B B B B 1.y y y y y y y y y F.* O @ @ J $ # ",
"O F F @       $   @       $ y y y y y y y y y y y y y y y y y y y y y y y y y y y y y y y y y y y y y y y y y y F.c + *   j + @ ",
"X x x # @     @   @ @     @ y y y y y y y y y y y y y y y y y y y y y y y y y y y y y y y y y y y y y y y y y y 4.@ @ @ + $ C.X ",
"= g = o .           $     $ y y y y y y y y y y y y y y y y y y y y y y y y y y y y y y y y y y y y y y y y y y 4.$ $   g . = @ ",
"g       @   @           $ k y y y y y y y y y y y y y y y y y y y y y y y y y y y y y y y y y y y y y y y y y y 4.              ",
"                @     @   s y y y y y y y y y y y y y y y y y y y y y y y y y y y y y y y y y y y y y y y y y y 3.              ",
"    $ @       @ $ G $   @ G.: $ @ @ + L y y y y y y y y y y y y y y y y y y y y y y y y y y y y y y y H                   $   @ ",
"    @             o @     $ $ - @     I y y y y y y y y y y y y y y y y y y y y y y y y y y y y y y y I @     @ @     @   @     ",
"  $     @ $       @     @ @ o @ @ *   I y y y y y y y y y y y y y y y y y y y y y y y y y y y y y y y H $ # @ $         @       ",
"  @       @             @   q   h $   H y y y y y y y y y y y y y y y y y y y y y y y y y y y y y y y L   $         @ $   $ @   ",
"@ $ @                     @   @ $ # $ I y y y y y y y y y y y y y y y y y y y y y y y y y y y y y y y I @ $ #   $ @         @ $ ",
"              @   @       @ @   $ # $ H.4 8 7 5 8 7 8 8 8 5 5 7 5 8 8 5 8 8 8 8 8 5 7 8 8 8 7 8 8 8 8 J.    $   #           @   ",
"@ $ @ - .     $ @   @ @ @       @ $     @ @     @         @ @ $     $ # @ @ @   X $ $ @ o       $ @         $ @ $   @           ",
"h K.X * @ *         @   @             @ $               @ $ $ $ . # X o * $ $ #   @ @ $ #     $ #           @       $ @   @ $   "
};
