/* XPM */
static char *_[] = {
/* columns rows colors chars-per-pixel */
"64 64 150 2 ",
"   c #6BBE31",
".  c #6CBC3A",
"X  c #6BB732",
"o  c #6CC12C",
"O  c #71BE2D",
"+  c #71BD32",
"@  c #6ABD2D",
"#  c #66BA2B",
"$  c #6DC133",
"%  c #96E854",
"&  c #8FE254",
"*  c #71C334",
"=  c #6BC125",
"-  c #66C225",
";  c #65C22C",
":  c #64B732",
">  c #72C92C",
",  c #8FE14E",
"<  c #3A8B4C",
"1  c #368C44",
"2  c #3D8945",
"3  c #4B8925",
"4  c #518D2B",
"5  c #529126",
"6  c #519121",
"7  c #4F8E22",
"8  c #508E25",
"9  c #559227",
"0  c #4E891C",
"q  c #55912B",
"w  c #348D3D",
"e  c #35913A",
"r  c #349234",
"t  c #2D6D32",
"y  c black",
"u  c #2B6839",
"i  c #358C4A",
"p  c #3A913B",
"a  c #2C683C",
"s  c #6DC239",
"d  c #5C6CDD",
"f  c #566DDD",
"g  c #66BC3A",
"h  c #6ABD25",
"j  c #508925",
"k  c #5A71E1",
"l  c #5373D8",
"z  c #6AB72A",
"x  c #95E453",
"c  c white",
"v  c gray75",
"b  c #71C23A",
"n  c #94E34E",
"m  c #4C8D2B",
"M  c #65BC26",
"N  c #65BB32",
"B  c #558E25",
"V  c #68B726",
"C  c #6FAA3A",
"Z  c #67C031",
"A  c #73AC3E",
"S  c #6BBD43",
"D  c #99E653",
"F  c #EFEFEF",
"G  c #70AB3E",
"H  c #53A527",
"J  c #53A72D",
"K  c #57AA28",
"L  c #97E84D",
"P  c #9AE54D",
"I  c #72BB3B",
"U  c #63B626",
"Y  c #808080",
"T  c #6CB73E",
"R  c #5B72D8",
"E  c #5A75E8",
"W  c #566BD6",
"Q  c #63B72C",
"!  c #47861A",
"~  c #4A881C",
"^  c #4C8B20",
"/  c #132308",
"(  c #7BD03F",
")  c #82D747",
"_  c #5FB323",
"`  c #1B2F0B",
"'  c #A3618E",
"]  c #6CC11A",
"[  c #74CB3A",
"{  c #7FD544",
"}  c #A65F85",
"|  c #71B649",
" . c #348C35",
".. c #3C9143",
"X. c #1A2F0B",
"o. c #4C9121",
"O. c #5EC32B",
"+. c #359142",
"@. c #1B300B",
"#. c #44931B",
"$. c #192F0D",
"%. c #606060",
"&. c #5C882B",
"*. c #73BA44",
"=. c #3B8D3B",
"-. c #3B8C43",
";. c #6BBA1D",
":. c #72C421",
">. c #469220",
",. c #6CC827",
"<. c #66BB1E",
"1. c #6AC144",
"2. c #1B300D",
"3. c #93E545",
"4. c #95E842",
"5. c #71BE22",
"6. c #469719",
"7. c #88EE44",
"8. c #A2DF60",
"9. c #558E22",
"0. c #9CEB59",
"q. c #72C22D",
"w. c #4F8E1C",
"e. c #8DDF4B",
"r. c #355E16",
"t. c #A0EA59",
"y. c #335D15",
"u. c #90DF4E",
"i. c #38611A",
"p. c #385E19",
"a. c #385F16",
"s. c #5DA527",
"d. c #73AC3A",
"f. c #57822C",
"g. c #94E55A",
"h. c #6FAC43",
"j. c #7BB53A",
"k. c #9BE954",
"l. c #50911C",
"z. c #3B8B50",
"x. c #5EC922",
"c. c gray56",
"v. c #95E859",
"b. c #559122",
"n. c #3C9225",
"m. c #65BA41",
"M. c #355F18",
"N. c #5EA62B",
"B. c #60AE28",
"V. c #64B63B",
/* pixels */
"          . . . X o O + @               @ #   @     X @     @ @ @   @ $               $ @     @         $ @               % & * ",
"  @       = - ; : >   @           o       @ *   * $ @ $   *   +     @ * @             @             $ @ @       $ @ @     % , $ ",
"      @   < 1 1 2 3 4 5 6 7 8 8 8 8 8 7 8 9 8 7 7 7 7 5 7 0 7 7 q 8 8 8 7 8 7 8 5 7 8 8 8 6 8 8 8 8 7       $ @ #     $ @ @ * = ",
"    @ $ @ w e r t y y y y y y y y y y y y y y y y y y y y y y y y y y y y y y y y y y y y y y y y y y     $ #   $     @ @ @   * ",
"        @ 1 w r u y y y y y y y y y y y y y y y y y y y y y y y y y y y y y y y y y y y y y y y y y y   @ $     @         $   @ ",
"$ @     @ i 1 p a y y y y y y y y y y y y y y y y y y y y y y y y y y y y y y y y y y y y y y y y y y   $ #               @ + @ ",
"@ $ $   $ # s = 4 y y y y y y y y y y y y y y y y y y y y y y y y y y y y y y y y y y y y y y y y y y       @             d f + ",
"    @   @ o g h j y y y y y y y y y y y y y y y y y y y y y y y y y y y y y y y y y y y y y y y y y y       $ @           k l z ",
"+ @ * x % #   @ 4 y y y y y c c c c c c c c c c c c c c c c c c c c c c c c c c c c c c c v y y y y y y y y y y 8 @       + @ b ",
"b @   n % o   o m y y y y y c c c c c c c c c c c c c c c c c c c c c c c c c c c c c c c v y y y y y y y y y y 8       @ b M N ",
"  @ @ * @   @ @ 8 y y y y y c c c c c c c c c c c c c c c c c c c c c c c c c c c c c c c v y y y y y y y y y y 8   @     = . o ",
"$ X * @ h s o o 4 y y y y y c c c c c c c c c c c c c c c c c c c c c c c c c c c c c c c v y y y y y y y y y y 8   $ @     @ $ ",
"$   @   +   @ . B y y y y y c c c c c c c c c c c c c c c c c c c c c c c c c c c c c c c v y y y y y y y y y y 5 @   @ @ o X @ ",
"  $ @ $ @ $ h   j y y y y y c c c c c c c c c c c c c c c c c c c c c c c c c c c c c c c v y y y y y y y y y y 7     $   . ; $ ",
"@             @ 5 y y y y y c c c c c c c c c c c c c c c c c c c c c c c c c c c c c c c v y y y y y y y y y y 5 ; o b . o # $ ",
"                8 y y y y y c c c c c c c c c c c c c c c c c c c c c c c c c c c c c c c v y y y y y y y y y y 7 M # X + V o # ",
"    @     #   . j y y y y y c c c c c c c c c c c c c c c c c c c c c c c c c c c c c c c v y y y y y y y y y y C * Z $ o x % * ",
"      @ $   $ $ 8 y y y y y c c c c c c c c c c c c c c c c c c c c c c c c c c c c c c c v y y y y y y y y y y A . S s - D x @ ",
"      $   o #   8 y y y y y v v v v v v v v v v v v v v v v v v v v v F c c c c c c c c c v y y y y y y y y y y G H J N = @ O @ ",
"@         @ o @ 9 y y y y y y y y y y y y y y y y y y y y y y y y y y v c c c c c c c c c v y y y y y y y y y y G K H X * @ @ $ ",
"  @       D L n G y y y y y y y y y y y y y y y y y y y y y y y y y y v c c c c c c c c c v y y y y y y y y y y 5 N Z $ z * # X ",
"  $ @     P P n A y y y y y y y y y y y y y y y y y y y y y y y y y y v c c c c c c c c c v y y y y y y y y y y j o @ @ I     $ ",
"        @ P P n A y y y y y y y y y y y y y y y y y y y y y y y y y y v c c c c c c c c c v y y y y y y y y y y 5 @   @   @ M b ",
"    @ $ @ D D n G y y y y y y y y y y y y y y y y y y y y y y y y y y v c c c c c c c c c v y y y y y y y y y y 7 $       s S M ",
"@         @ o @ * U @ # @ ; y y y y y y y y y y Y c c c c c c c c c c c c c c c c c c c c v y y y y y y y y y y 8   $ @   - M o ",
"$ @       @   @ $ $ $ $ $ @ y y y y y y y y y y Y c c c c c c c c c c c c c c c c c c c c v y y y y y y y y y y 8   @     T X $ ",
"      @ @ $ $ .     @ # # @ y y y y y y y y y y Y c c c c c c c c c c c c c c c c c c c c v y y y y y y y y y y 8 # $     R E h ",
"    @ $ $ N #           $ @ y y y y y y y y y y Y c c c c c c c c c c c c c c c c c c c c v y y y y y y y y y y 7 $       W k + ",
"  $       $         +     U y y y y y y y y y y Y c c c c c c c c c c c c c c c c c c c c v y y y y y y y y y y 8 @       + h   ",
"  @   @       #   #   @ @ Q ! ~ ^ ~ 7 / y y y y Y c c c c c c c c c c c c c c c c c c c c v y y y y y y y y y y 8         . . ; ",
"@ $ #   @ + @ o o . +   @ ( ) _ U # @ ` y y y y Y c c c c c c c c c c c c c c c c c c c c v y y y y y y y y y y ' # $ ; ] $ @ $ ",
"    $     N N s g o @   $ [ { U # # # ` y y y y Y c c c c c c c c c c c c c c c c c c c c v y y y y y y y y y y } I *   | $   $ ",
"    @   N 1 e  ...o I   @ = # # # @ @ X.y y y y Y c c c c c c c c c c c c c c c c c c c c v y y y y y y y y y y o.# T O.h @ @ @ ",
"        @ +.+.w < = .   $ M ; @ ; #   @.y y y y Y c c c c c c c c c c c c c c c c c c c c v y y y y y y y y y y #.; o $ $ *     ",
"  @       w +.w i -     o * $ o Z $ o $.y y y y %.v v v v v v v v v v F c c c c c c c c c v y y y y y y y y y y &.*.N + V @     ",
"$         +.p =.-.@ +   @ ;.@ :.o $ $ ` y y y y y y y y y y y y y y y v c c c c c c c c c v y y y y y y y y y y >.,.<.$ $ O * V ",
"@         N N Z g @ @   Z 1.. @ $ s $ 2.y y y y y y y y y y y y y y y v c c c c c c c c c v y y y y y y y y y y B . I 3.4.L x + ",
"    $ @   + @ o o   + + ; #   5.@ h ; $.y y y y y y y y y y y y y y y v c c c c c c c c c v y y y y y y y y y y 6.O + 7.8.P D @ ",
"@ $ @   @     $         @ $         $ ` y y y y y y y y y y y y y y y v c c c c c c c c c v y y y y y y y y y y 9.0.D @     q.x ",
"@     $     @ @                     @ 2.y y y y y y y y y y y y y y y v c c c c c c c c c v y y y y y y y y y y w.e.x       V L ",
"  N     @             @ $ N $ @           #   @ r.y y y y y y y y y y v c c c c c c c c c v y y y y y y y y y y 9.0.t.h @ @ h t.",
"* @ @ $ $     @ @         o @   $ @ @ $ $ $ $ @ y.y y y y y y y y y y v c c c c c c c c c v y y y y y y y y y y 8 u.u.@ + q.q., ",
"e.* @ @ @ @     @ $             @     @     #   i.y y y y y y y y y y v c c c c c c c c c v y y y y y y y y y y 4 h * x x % , * ",
"x $   $ $             @   @               $     p.y y y y y y y y y y v c c c c c c c c c v y y y y y y y y y y 7 @ + D D D x h ",
"x O @   Z                         @       N   @ a.y y y y y y y y y y v c c c c c c c c c v y y y y y y y y y y ^ b @ o o @ * M ",
"x O $             @ @ $                     $ @ s.G A d.d.f.y y y y y v c c c c c c c c c v y y y y y y y y y y ^ $       + @ @ ",
"g.@ * : q.        $     @ $     @ $ $ # $ $ @ $ @ D n P P d.y y y y y v c c c c c c c c c v y y y y y y y y y y h.@   * . ; j.; ",
"L @ # * .         @     @ $ @ $ $ @ @ $ @ # @ $ + x x k.k.C y y y y y v c c c c c c c c c v y y y y y y y y y y C * # # @ o s _ ",
"$ -.=.  #     @       @ $ $ $ # # $ $   $     @ # * @ V M l.y y y y y v c c c c c c c c c v y y y y y y y y y y 7 0.D +   # = . ",
"$ z.-.. @   @ $         @ @   $     $ # $   @       $ $ $ 7 y y y y y v c c c c c c c c c v y y y y y y y y y y 0 D u.@   o x.  ",
"= Q Q * *.o   @   $ @     $ # g.&       @ $     $ X     # 4 y y y y y c.v v v v v v v v v c.y y y y y y y y y y G * O @ @ I $ # ",
"O ,.,.@       $   @       $ @ v.x $ $       @ @ $     Z . 7 y y y y y y y y y y y y y y y y y y y y y y y y y y G h + *   T + @ ",
"X g g # @     @   @ @     @ @ $     @ @   $   $ @ $ @   @ b.y y y y y y y y y y y y y y y y y y y y y y y y y y 7 @ @ @ + $ x.X ",
"= Z = o .           $     $   # $   @ b @ #   $ # $ @ @   j y y y y y y y y y y y y y y y y y y y y y y y y y y 7 $ $   Z . = @ ",
"Z       @   @           $ z. .S $ #   @ @   $ #   $ # b   8 y y y y y y y y y y y y y y y y y y y y y y y y y y 7               ",
"                @     @   p n.N @ @ *   @   # $ * # @   # 8 y y y y y y y y y y y y y y y y y y y y y y y y y y 8               ",
"    $ @       @ $ N $   @ m.: $ @ @ +     $   g.& $ $   $     @     @         @ M.y y y y y y y y y y y y y y y 8         $   @ ",
"    @             o @     $ $ - @     $ $     g.& $   @ $     $     $ @     @ $ M.y y y y y y y y y y y y y y y 7     @   @     ",
"  $     @ $       @     @ @ o @ @ *   $     # * $ @   @ #     @         @ $     r.y y y y y y y y y y y y y y y 8       @       ",
"  @       @             @   b   s $   @ @ $   # # $ $ $ $       @               M.y y y y y y y y y y y y y y y 8   @ $   $ @   ",
"@ $ @                     @   @ $ # $ $ $ @ $ $   $   @ @       @     @ @ $ # $ M.y y y y y y y y y y y y y y y 5 @         @ $ ",
"              @   @       @ @   $ # $ # .   @ $   @       $ $ @ $     $         N.5 7 8 8 8 7 8 8 8 8 7 8 8 5 8 B.          @   ",
"@ $ @ - .     $ @   @ @ @       @ $     @ @     @         @ @ $     $ # @ @ @   X $ $ @ o       $ @         $ @ $   @           ",
"s V.X * @ *         @   @             @ $               @ $ $ $ . # X o * $ $ #   @ @ $ #     $ #           @       $ @   @ $   "
};
