/* XPM */
static char *_[] = {
/* columns rows colors chars-per-pixel */
"64 64 142 2 ",
"   c #6BBE31",
".  c #6CBC3A",
"X  c #6BB732",
"o  c #6CC12C",
"O  c #71BE2D",
"+  c #71BD32",
"@  c #6ABD2D",
"#  c #66BA2B",
"$  c #6DC133",
"%  c #96E854",
"&  c #8FE254",
"*  c #71C334",
"=  c #6BC125",
"-  c #66C225",
";  c #65C22C",
":  c #64B732",
">  c #72C92C",
",  c #8FE14E",
"<  c #3A8B4C",
"1  c #368C44",
"2  c #41924A",
"3  c #508E25",
"4  c #4F8E22",
"5  c #559227",
"6  c #529126",
"7  c #4E891C",
"8  c #55912B",
"9  c #519121",
"0  c #64B22E",
"q  c #348D3D",
"w  c #35913A",
"e  c #349234",
"r  c #3C9143",
"t  c #65BC26",
"y  c #65BB32",
"u  c black",
"i  c #6DC239",
"p  c #358C4A",
"a  c #3A913B",
"s  c #3B8B50",
"d  c #6ABD25",
"f  c #67C031",
"g  c #35904A",
"h  c #359142",
"j  c #5C6CDD",
"k  c #566DDD",
"l  c #66BC3A",
"z  c #5A71E1",
"x  c #5373D8",
"c  c #6AB72A",
"v  c #95E453",
"b  c #518D2B",
"n  c #808080",
"m  c white",
"M  c gray75",
"N  c #366019",
"B  c #71C23A",
"V  c #94E34E",
"C  c #4C8D2B",
"Z  c #355E16",
"A  c #355F18",
"S  c #558E25",
"D  c #508925",
"F  c #DFDFDF",
"G  c #202020",
"H  c #1B300B",
"J  c #42761C",
"K  c gray25",
"L  c #1B300D",
"P  c #1B2F0B",
"I  c #68B726",
"U  c #253914",
"Y  c #263A15",
"T  c #6BBD43",
"R  c #99E653",
"E  c #EFEFEF",
"W  c #253915",
"Q  c #53A527",
"!  c #53A72D",
"~  c #57AA28",
"^  c #97E84D",
"/  c #70AB3E",
"(  c #9AE54D",
")  c #73AC3E",
"_  c #1B2E0D",
"`  c #72BB3B",
"'  c #9F9F9F",
"]  c gray81",
"[  c #101010",
"{  c #1B300C",
"}  c #6CB73E",
"|  c #5B72D8",
" . c #5A75E8",
".. c #566BD6",
"X. c #362030",
"o. c #6CC11A",
"O. c #37202C",
"+. c #71B649",
"@. c #348C35",
"#. c #2D6D32",
"$. c #19310B",
"%. c #5EC32B",
"&. c #2B6839",
"*. c #173109",
"=. c #286937",
"-. c #1F2D0F",
";. c #73BA44",
":. c #3B8D3B",
">. c #2C6932",
",. c #18310B",
"<. c #6CC827",
"1. c #66BB1E",
"2. c #1C2F0D",
"3. c #93E545",
"4. c #95E842",
"5. c #183209",
"6. c #88EE44",
"7. c #A2DF60",
"8. c #1C300B",
"9. c #9CEB59",
"0. c #72C22D",
"q. c #1B2F09",
"w. c #8DDF4B",
"e. c #A0EA59",
"r. c #90DF4E",
"t. c #1B2F0F",
"y. c #1A2F0B",
"u. c gray19",
"i. c #94E55A",
"p. c #253917",
"a. c #7BB53A",
"s. c #5FB323",
"d. c #3B8C43",
"f. c #1A2E0A",
"g. c #5EC922",
"h. c #63B72C",
"j. c #65BA41",
"k. c #325B19",
"l. c #385E19",
"z. c #43761F",
"x. c #40741B",
"c. c #64B63B",
/* pixels */
"          . . . X o O + @               @ #   @     X @     @ @ @   @ $               $ @     @         $ @               % & * ",
"  @       = - ; : >   @           o       @ *   * $ @ $   *   +     @ * @             @             $ @ @       $ @ @     % , $ ",
"      @   < 1 1 2 : . $ o @ 3 3 3 3 3 4 3 5 3 4 4 4 4 6 4 7 4 4 8 3 3 3 4 3 4 3 6 4 3 3 3 9 0       @       $ @ #     $ @ @ * = ",
"    @ $ @ q w e r t y $ @   u u u u u u u u u u u u u u u u u u u u u u u u u u u u u u u u 3   @         $ #   $     @ @ @   * ",
"        @ 1 q e < - i $ o $ u u u u u u u u u u u u u u u u u u u u u u u u u u u u u u u u 3   $ #     @ $     @         $   @ ",
"$ @     @ p 1 a s d . + @ @ u u u u u u u u u u u u u u u u u u u u u u u u u u u u u u u u 4     $     $ #               @ + @ ",
"@ $ $   $ # i = . = f 1 g h u u u u u u u u u u u u u u u u u u u u u u u u u u u u u u u u 3     @ $       @             j k + ",
"    @   @ o l d X @ f 1 1 1 u u u u u u u u u u u u u u u u u u u u u u u u u u u u u u u u 4       @       $ @           z x c ",
"+ @ * v % #   @ b u u u u u u u u u u n m m m m m m m m m m m m m m m m m m m m M u u u u u u u u u u N           @       + @ B ",
"B @   V % o   o C u u u u u u u u u u n m m m m m m m m m m m m m m m m m m m m M u u u u u u u u u u Z @     @         @ B t y ",
"  @ @ * @   @ @ 3 u u u u u u u u u u n m m m m m m m m m m m m m m m m m m m m M u u u u u u u u u u A $ @         @     = . o ",
"$ X * @ d i o o b u u u u u u u u u u n m m m m m m m m m m m m m m m m m m m m M u u u u u u u u u u A             $ @     @ $ ",
"$   @   +   @ . S u u u u u u u u u u n m m m m m m m m m m m m m m m m m m m m M u u u u u u u u u u A         $ @   @ @ o X @ ",
"  $ @ $ @ $ d   D u u u u u n n n n n M m m m m m m m m m m m m m m m m m m m m F n n n n n G u u u u H A A A A J     $   . ; $ ",
"@             @ 6 u u u u u m m m m m m m m m m m m m m m m m m m m m m m m m m m m m m m m K u u u u u u u u u L ; o B . o # $ ",
"                3 u u u u u m m m m m m m m m m m m m m m m m m m m m m m m m m m m m m m m K u u u u u u u u u P t # X + I o # ",
"    @     #   . D u u u u u m m m m m m m m m m m m m m m m m m m m m m m m m m m m m m m m K u u u u u u u u u U * f $ o v % * ",
"      @ $   $ $ 3 u u u u u m m m m m m m m m m m m m m m m m m m m m m m m m m m m m m m m K u u u u u u u u u Y . T i - R v @ ",
"      $   o #   3 u u u u u m m m m m m m m m m E M M M M M M M M M M F m m m m m m m m m m K u u u u u u u u u W Q ! y = @ O @ ",
"@         @ o @ 5 u u u u u m m m m m m m m m m M u u u u u u u u u u n m m m m m m m m m m K u u u u u u u u u W ~ Q X * @ @ $ ",
"  @       R ^ V / u u u u u m m m m m m m m m m M u u u u u u u u u u n m m m m m m m m m m K u u u u u u u u u L y f $ c * # X ",
"  $ @     ( ( V ) u u u u u m m m m m m m m m m M u u u u u u u u u u n m m m m m m m m m m K u u u u u u u u u _ o @ @ `     $ ",
"        @ ( ( V ) u u u u u m m m m m m m m m m M u u u u u u u u u u n m m m m m m m m m m K u u u u u u u u u L @   @   @ t B ",
"    @ $ @ R R V / u u u u u m m m m m m m m m m M u u u u u u u u u u n m m m m m m m m m m K u u u u u u u u u P $       i T t ",
"@         @ o @ 5 u u u u u K K K K K ' m m m m E M M M M M M M M M M F m m m m ] K K K K K [ u u u u u u u u u {   $ @   - t o ",
"$ @       @   @ 6 u u u u u u u u u u n m m m m m m m m m m m m m m m m m m m m M u u u u u u u u u u u u u u u {   @     } X $ ",
"      @ @ $ $ . 3 u u u u u u u u u u n m m m m m m m m m m m m m m m m m m m m M u u u u u u u u u u u u u u u { # $     |  .d ",
"    @ $ $ y #   3 u u u u u u u u u u n m m m m m m m m m m m m m m m m m m m m M u u u u u u u u u u u u u u u P $       ..z + ",
"  $       $     3 u u u u u u u u u u n m m m m m m m m m m m m m m m m m m m m M u u u u u u u u u u u u u u u { @       + d   ",
"  @   @       # 3 u u u u u n n n n n M m m m m m m m m m m m m m m m m m m m m F n n n n n G u u u u u u u u u {         . . ; ",
"@ $ #   @ + @ o 9 u u u u u m m m m m m m m m m m m m m m m m m m m m m m m m m m m m m m m K u u u u u u u u u X.# $ ; o.$ @ $ ",
"    $     y y i C u u u u u m m m m m m m m m m m m m m m m m m m m m m m m m m m m m m m m K u u u u u u u u u O.` *   +.$   $ ",
"    @   y 1 w @.#.u u u u u m m m m m m m m m m m m m m m m m m m m m m m m m m m m m m m m K u u u u u u u u u $.# } %.d @ @ @ ",
"        @ h h q &.u u u u u m m m m m m m m m m m m m m m m m m m m m m m m m m m m m m m m K u u u u u u u u u *.; o $ $ *     ",
"  @       q h q =.u u u u u m m m m m m m m m m m m m m m m m m m m m m m m m m m m m m m m K u u u u u u u u u -.;.y + I @     ",
"$         h a :.>.u u u u u m m m m m m m m m m M u u u u u u u u u u n m m m m m m m m m m K u u u u u u u u u ,.<.1.$ $ O * I ",
"@         y y f C u u u u u m m m m m m m m m m M u u u u u u u u u u n m m m m m m m m m m K u u u u u u u u u 2.. ` 3.4.^ v + ",
"    $ @   + @ o 9 u u u u u m m m m m m m m m m M u u u u u u u u u u n m m m m m m m m m m K u u u u u u u u u 5.O + 6.7.( R @ ",
"@ $ @   @     $ 3 u u u u u m m m m m m m m m m M u u u u u u u u u u n m m m m m m m m m m K u u u u u u u u u 8.9.R @     0.v ",
"@     $     @ @ 3 u u u u u m m m m m m m m m m M u u u u u u u u u u n m m m m m m m m m m K u u u u u u u u u q.w.v       I ^ ",
"  y     @       3 u u u u u m m m m m m m m m m E M M M M M M M M M M F m m m m m m m m m m K u u u u u u u u u 8.9.e.d @ @ d e.",
"* @ @ $ $     @ 4 u u u u u m m m m m m m m m m m m m m m m m m m m m m m m m m m m m m m m K u u u u u u u u u { r.r.@ + 0.0., ",
"w.* @ @ @ @     4 u u u u u m m m m m m m m m m m m m m m m m m m m m m m m m m m m m m m m K u u u u u u u u u t.d * v v % , * ",
"v $   $ $       3 u u u u u m m m m m m m m m m m m m m m m m m m m m m m m m m m m m m m m K u u u u u u u u u P @ + R R R v d ",
"v O @   f       3 u u u u u m m m m m m m m m m m m m m m m m m m m m m m m m m m m m m m m K u u u u u u u u u y.B @ o o @ * t ",
"v O $           3 u u u u u M M M M M F m m m m m m m m m m m m m m m m m m m m E M M M M M u.u u u u u u u u u y.$       + @ @ ",
"i.@ * : 0.      3 u u u u u u u u u u n m m m m m m m m m m m m m m m m m m m m M u u u u u u u u u u u u u u u p.@   * . ; a.; ",
"^ @ # * .       3 u u u u u u u u u u n m m m m m m m m m m m m m m m m m m m m M u u u u u u u u u u u u u u u U * # # @ o i s.",
"$ d.:.  #     @ 3 u u u u u u u u u u n m m m m m m m m m m m m m m m m m m m m M u u u u u u u u u u u u u u u P 9.R +   # = . ",
"$ s d.. @   @ $ 3 u u u u u u u u u u n m m m m m m m m m m m m m m m m m m m m M u u u u u u u u u u u u u u u f.R r.@   o g.  ",
"= h.h.* ;.o   @ 3 u u u u u u u u u u n m m m m m m m m m m m m m m m m m m m m M u u u u u u u u u u u u u u u W * O @ @ ` $ # ",
"O <.<.@       $   @       $ u u u u u u u u u u u u u u u u u u u u u u u u u u u u u u u u u u u u u u u u u u W d + *   } + @ ",
"X l l # @     @   @ @     @ u u u u u u u u u u u u u u u u u u u u u u u u u u u u u u u u u u u u u u u u u u P @ @ @ + $ g.X ",
"= f = o .           $     $ u u u u u u u u u u u u u u u u u u u u u u u u u u u u u u u u u u u u u u u u u u P $ $   f . = @ ",
"f       @   @           $ s u u u u u u u u u u u u u u u u u u u u u u u u u u u u u u u u u u u u u u u u u u P               ",
"                @     @   a u u u u u u u u u u u u u u u u u u u u u u u u u u u u u u u u u u u u u u u u u u {               ",
"    $ @       @ $ y $   @ j.k.N Z Z l.{ u u u u u u u u u u u u u u u u u u u u u u u u u u u u u u u P A A A A z.        $   @ ",
"    @             o @     $ $ - @     N u u u u u u u u u u u u u u u u u u u u u u u u u u u u u u u N @     @ @     @   @     ",
"  $     @ $       @     @ @ o @ @ *   N u u u u u u u u u u u u u u u u u u u u u u u u u u u u u u u Z $ # @ $         @       ",
"  @       @             @   B   i $   Z u u u u u u u u u u u u u u u u u u u u u u u u u u u u u u u A   $         @ $   $ @   ",
"@ $ @                     @   @ $ # $ N u u u u u u u u u u u u u u u u u u u u u u u u u u u u u u u N @ $ #   $ @         @ $ ",
"              @   @       @ @   $ # $ x.t.{ P L { P { { { L L P L { { L { { { { { L P { { { P { { { { J     $   #           @   ",
"@ $ @ - .     $ @   @ @ @       @ $     @ @     @         @ @ $     $ # @ @ @   X $ $ @ o       $ @         $ @ $   @           ",
"i c.X * @ *         @   @             @ $               @ $ $ $ . # X o * $ $ #   @ @ $ #     $ #           @       $ @   @ $   "
};
