/* XPM */
static char *_[] = {
/* columns rows colors chars-per-pixel */
"64 64 152 2 ",
"   c #6BBE31",
".  c #6CBC3A",
"X  c #6BB732",
"o  c #6CC12C",
"O  c #71BE2D",
"+  c #71BD32",
"@  c #6ABD2D",
"#  c #66BA2B",
"$  c #6DC133",
"%  c #96E854",
"&  c #8FE254",
"*  c #71C334",
"=  c #6BC125",
"-  c #66C225",
";  c #65C22C",
":  c #64B732",
">  c #72C92C",
",  c #8FE14E",
"<  c #3A8B4C",
"1  c #368C44",
"2  c #41924A",
"3  c #5DA527",
"4  c #508E25",
"5  c #4F8E22",
"6  c #559227",
"7  c #529126",
"8  c #4E891C",
"9  c #55912B",
"0  c #5EA926",
"q  c #348D3D",
"w  c #35913A",
"e  c #349234",
"r  c #3C9143",
"t  c #65BC26",
"y  c #65BB32",
"u  c #355F18",
"i  c black",
"p  c #6DC239",
"a  c #366019",
"s  c #358C4A",
"d  c #3A913B",
"f  c #3B8B50",
"g  c #6ABD25",
"h  c #355E16",
"j  c #67C031",
"k  c #35904A",
"l  c #1A4821",
"z  c #5C6CDD",
"x  c #566DDD",
"c  c #66BC3A",
"v  c #1B4622",
"b  c #5A71E1",
"n  c #5373D8",
"m  c #6AB72A",
"M  c #95E453",
"N  c #1B2F0F",
"B  c gray25",
"V  c white",
"C  c #71C23A",
"Z  c #94E34E",
"A  c #1A2F0F",
"S  c #1B300C",
"D  c #1C2F0D",
"F  c #1B2E0D",
"G  c #808080",
"H  c #9F9F9F",
"J  c #366016",
"K  c #1B300D",
"L  c #68B726",
"P  c #6FAA3A",
"I  c #73AC3E",
"U  c #6BBD43",
"Y  c #99E653",
"T  c gray81",
"R  c gray75",
"E  c #70AB3E",
"W  c #53A527",
"Q  c #53A72D",
"!  c #1C310D",
"~  c #57AA28",
"^  c #97E84D",
"/  c #253915",
"(  c #9AE54D",
")  c #263A15",
"_  c #508925",
"`  c #72BB3B",
"'  c #6CB73E",
"]  c #5B72D8",
"[  c #5A75E8",
"{  c #566BD6",
"}  c #1B300B",
"|  c #A3618E",
" . c #6CC11A",
".. c #A65F85",
"X. c #71B649",
"o. c #348C35",
"O. c #0F2411",
"+. c #4C9121",
"@. c #5EC32B",
"#. c #359142",
"$. c #0F2313",
"%. c #44931B",
"&. c #0D2313",
"*. c #5C882B",
"=. c #73BA44",
"-. c #3B8D3B",
";. c #3B8C43",
":. c #355D0E",
">. c #469220",
",. c #6CC827",
"<. c #66BB1E",
"1. c #356022",
"2. c #558E25",
"3. c #93E545",
"4. c #95E842",
"5. c #335D15",
"6. c #469719",
"7. c #88EE44",
"8. c #A2DF60",
"9. c #558E22",
"0. c #9CEB59",
"q. c #72C22D",
"w. c #4F8E1C",
"e. c #8DDF4B",
"r. c #58A42C",
"t. c #3C6B1B",
"y. c #A0EA59",
"u. c #90DF4E",
"i. c #518D2B",
"p. c #4C8B20",
"a. c #579A28",
"s. c #1B2F0B",
"d. c #273913",
"f. c #131D0A",
"g. c #94E55A",
"h. c #4D7226",
"j. c #6FAC43",
"k. c #7BB53A",
"l. c #9BE954",
"z. c #4A7127",
"x. c #5FB323",
"c. c #356012",
"v. c #5EC922",
"b. c #63B72C",
"n. c #365E1D",
"m. c #95E859",
"M. c #396116",
"N. c #355B19",
"B. c #3C9225",
"V. c #65BA41",
"C. c #539723",
"Z. c #64B63B",
/* pixels */
"          . . . X o O + @               @ #   @     X @     @ @ @   @ $               $ @     @         $ @               % & * ",
"  @       = - ; : >   @           o       @ *   * $ @ $   *   +     @ * @             @             $ @ @       $ @ @     % , $ ",
"      @   < 1 1 2 : . $ o 3 4 4 4 4 4 5 4 6 4 5 5 5 5 7 5 8 5 5 9 4 4 4 5 4 5 4 7 5 4 4 4 0         @       $ @ #     $ @ @ * = ",
"    @ $ @ q w e r t y $ @ u i i i i i i i i i i i i i i i i i i i i i i i i i i i i i i i u     @         $ #   $     @ @ @   * ",
"        @ 1 q e < - p $ o a i i i i i i i i i i i i i i i i i i i i i i i i i i i i i i i u     $ #     @ $     @         $   @ ",
"$ @     @ s 1 d f g . + @ h i i i i i i i i i i i i i i i i i i i i i i i i i i i i i i i a @     $     $ #               @ + @ ",
"@ $ $   $ # p = . = j 1 k l i i i i i i i i i i i i i i i i i i i i i i i i i i i i i i i a       @ $       @             z x + ",
"    @   @ o c g X @ j 1 1 v i i i i i i i i i i i i i i i i i i i i i i i i i i i i i i i h @       @       $ @           b n m ",
"+ @ * M % #   @ N i i i i i i i i i B V V V V V V V V V V V V V V V V V V V V V B i i i i i i i i i i $           @       + @ C ",
"C @   Z % o   o A i i i i i i i i i B V V V V V V V V V V V V V V V V V V V V V B i i i i i i i i i i @ @     @         @ C t y ",
"  @ @ * @   @ @ S i i i i i i i i i B V V V V V V V V V V V V V V V V V V V V V B i i i i i i i i i i   $ @         @     = . o ",
"$ X * @ g p o o N i i i i i i i i i B V V V V V V V V V V V V V V V V V V V V V B i i i i i i i i i i               $ @     @ $ ",
"$   @   +   @ . D i i i i i i i i i B V V V V V V V V V V V V V V V V V V V V V B i i i i i i i i i i           $ @   @ @ o X @ ",
"  $ @ $ @ $ g   F i i i i B G G G G H V V V V V V V V V V V V V V V V V V V V V H G G G G B i i i i i J u u u u 3     $   . ; $ ",
"@             @ K i i i i G V V V V V V V V V V V V V V V V V V V V V V V V V V V V V V V G i i i i i i i i i i 7 ; o C . o # $ ",
"                S i i i i G V V V V V V V V V V V V V V V V V V V V V V V V V V V V V V V G i i i i i i i i i i 5 t # X + L o # ",
"    @     #   . F i i i i G V V V V V V V V V V V V V V V V V V V V V V V V V V V V V V V G i i i i i i i i i i P * j $ o M % * ",
"      @ $   $ $ S i i i i G V V V V V V V V V V V V V V V V V V V V V V V V V V V V V V V G i i i i i i i i i i I . U p - Y M @ ",
"      $   o #   S i i i i G V V V V V V V V V V T R R R R R R R R R R V V V V V V V V V V G i i i i i i i i i i E W Q y = @ O @ ",
"@         @ o @ ! i i i i G V V V V V V V V V V B i i i i i i i i i i V V V V V V V V V V G i i i i i i i i i i E ~ W X * @ @ $ ",
"  @       Y ^ Z / i i i i G V V V V V V V V V V B i i i i i i i i i i V V V V V V V V V V G i i i i i i i i i i 7 y j $ m * # X ",
"  $ @     ( ( Z ) i i i i G V V V V V V V V V V B i i i i i i i i i i V V V V V V V V V V G i i i i i i i i i i _ o @ @ `     $ ",
"        @ ( ( Z ) i i i i G V V V V V V V V V V B i i i i i i i i i i V V V V V V V V V V G i i i i i i i i i i 7 @   @   @ t C ",
"    @ $ @ Y Y Z / i i i i G V V V V V V V V V V B i i i i i i i i i i V V V V V V V V V V G i i i i i i i i i i 5 $       p U t ",
"@         @ o @ ! i i i i G V V V V V V V V V V T R R R R R R R R R R V V V V V V V V V V G i i i i i i i i i i 4   $ @   - t o ",
"$ @       @   @ K i i i i G V V V V V V V V V V V V V V V V V V V V V V V V V V V V V V V G i i i i i i i i i i 4   @     ' X $ ",
"      @ @ $ $ . S i i i i G V V V V V V V V V V V V V V V V V V V V V V V V V V V V V V V G i i i i i i i i i i 4 # $     ] [ g ",
"    @ $ $ y #   S i i i i G V V V V V V V V V V V V V V V V V V V V V V V V V V V V V V V G i i i i i i i i i i 5 $       { b + ",
"  $       $     S i i i i G V V V V V V V V V V V V V V V V V V V V V V V V V V V V V V V G i i i i i i i i i i 4 @       + g   ",
"  @   @       # S i i i i B G G G G H V V V V V V V V V V V V V V V V V V V V V V V V V V G i i i i i i i i i i 4         . . ; ",
"@ $ #   @ + @ o } i i i i i i i i i B V V V V V V V V V V V V V V V V V V V V V V V V V V G i i i i i i i i i i | # $ ;  .$ @ $ ",
"    $     y y p A i i i i i i i i i B V V V V V V V V V V V V V V V V V V V V V V V V V V G i i i i i i i i i i ..` *   X.$   $ ",
"    @   y 1 w o.O.i i i i i i i i i B V V V V V V V V V V V V V V V V V V V V V V V V V V G i i i i i i i i i i +.# ' @.g @ @ @ ",
"        @ #.#.q $.i i i i i i i i i B V V V V V V V V V V V V V V V V V V V V V V V V V V G i i i i i i i i i i %.; o $ $ *     ",
"  @       q #.q &.i i i i i i i i i B V V V V V V V V V V V V V V V V V V V V V V V V V V G i i i i i i i i i i *.=.y + L @     ",
"$         #.d -.;.@ +   @ :.i i i i i i i i i i i i i i i i i i i i i V V V V V V V V V V G i i i i i i i i i i >.,.<.$ $ O * L ",
"@         y y j c @ @   j 1.i i i i i i i i i i i i i i i i i i i i i V V V V V V V V V V G i i i i i i i i i i 2.. ` 3.4.^ M + ",
"    $ @   + @ o o   + + ; 5.i i i i i i i i i i i i i i i i i i i i i V V V V V V V V V V G i i i i i i i i i i 6.O + 7.8.( Y @ ",
"@ $ @   @     $         @ a i i i i i i i i i i i i i i i i i i i i i V V V V V V V V V V G i i i i i i i i i i 9.0.Y @     q.M ",
"@     $     @ @           u i i i i i i i i i i i i i i i i i i i i i V V V V V V V V V V G i i i i i i i i i i w.e.M       L ^ ",
"  y     @             @ $ r.7 5 4 4 t.i i i i i i i i i i i i i i i i V V V V V V V V V V G i i i i i i i i i i 9.0.y.g @ @ g y.",
"* @ @ $ $     @ @         o @   $ @ 5 i i i i i i i i i i i i i i i i V V V V V V V V V V G i i i i i i i i i i 4 u.u.@ + q.q., ",
"e.* @ @ @ @     @ $             @   4 i i i i i i i i i i i i i i i i V V V V V V V V V V G i i i i i i i i i i i.g * M M % , * ",
"M $   $ $             @   @         4 i i i i i i i i i i i i i i i i V V V V V V V V V V G i i i i i i i i i i 5 @ + Y Y Y M g ",
"M O @   j                         @ 4 i i i i i i i i i i i i i i i i V V V V V V V V V V G i i i i i i i i i i p.C @ o o @ * t ",
"M O $             @ @ $             a.S S S K s.s./ ) d.d.f.i i i i i V V V V V V V V V V G i i i i i i i i i i p.$       + @ @ ",
"g.@ * : q.        $     @ $     @ $ $ # $ $ @ $ @ Y Z ( ( h.i i i i i V V V V V V V V V V G i i i i i i i i i i j.@   * . ; k.; ",
"^ @ # * .         @     @ $ @ $ $ @ @ $ @ # @ $ + M M l.l.z.i i i i i V V V V V V V V V V G i i i i i i i i i i P * # # @ o p x.",
"$ ;.-.  #     @       @ $ $ $ # # $ $   $     @ # * @ L t c.i i i i i V V V V V V V V V V G i i i i i i i i i i 5 0.Y +   # = . ",
"$ f ;.. @   @ $         @ @   $     $ # $   @       $ $ $ h i i i i i V V V V V V V V V V G i i i i i i i i i i 8 Y u.@   o v.  ",
"= b.b.* =.o   @   $ @     $ # g.&       @ $     $ X     # n.i i i i i V V V V V V V V V V G i i i i i i i i i i E * O @ @ ` $ # ",
"O ,.,.@       $   @       $ @ m.M $ $       @ @ $     j . h i i i i i i i i i i i i i i i i i i i i i i i i i i E g + *   ' + @ ",
"X c c # @     @   @ @     @ @ $     @ @   $   $ @ $ @   @ M.i i i i i i i i i i i i i i i i i i i i i i i i i i 5 @ @ @ + $ v.X ",
"= j = o .           $     $   # $   @ C @ #   $ # $ @ @   N.i i i i i i i i i i i i i i i i i i i i i i i i i i 5 $ $   j . = @ ",
"j       @   @           $ f o.U $ #   @ @   $ #   $ # C   u i i i i i i i i i i i i i i i i i i i i i i i i i i 5               ",
"                @     @   d B.y @ @ *   @   # $ * # @   # u i i i i i i i i i i i i i i i i i i i i i i i i i i 4               ",
"    $ @       @ $ y $   @ V.: $ @ @ +     $   g.& $ $   $ 4 u h u u h i i i i i i i i i i i i i i i i i i i i i 4         $   @ ",
"    @             o @     $ $ - @     $ $     g.& $   @ $     $     $ i i i i i i i i i i i i i i i i i i i i i 5     @   @     ",
"  $     @ $       @     @ @ o @ @ *   $     # * $ @   @ #     @       i i i i i i i i i i i i i i i i i i i i i 4       @       ",
"  @       @             @   C   p $   @ @ $   # # $ $ $ $       @     i i i i i i i i i i i i i i i i i i i i i 4   @ $   $ @   ",
"@ $ @                     @   @ $ # $ $ $ @ $ $   $   @ @       @     i i i i i i i i i i i i i i i i i i i i i 7 @         @ $ ",
"              @   @       @ @   $ # $ # .   @ $   @       $ $ @ $     K S S S S S K s.S S S s.S S S S s.S S K S C.          @   ",
"@ $ @ - .     $ @   @ @ @       @ $     @ @     @         @ @ $     $ # @ @ @   X $ $ @ o       $ @         $ @ $   @           ",
"p Z.X * @ *         @   @             @ $               @ $ $ $ . # X o * $ $ #   @ @ $ #     $ #           @       $ @   @ $   "
};
