/* XPM */
static char *floor[] = {
/* columns rows colors chars-per-pixel */
"64 64 113 2 ",
"   c #368C2D",
".  c #3C9225",
"X  c #348C35",
"o  c #3A8E33",
"O  c #348D3D",
"+  c #3B8D3B",
"@  c #349234",
"#  c #3B9334",
"$  c #35913A",
"%  c #3A913B",
"&  c #66BB1E",
"*  c #6BBA1D",
"=  c #53A527",
"-  c #53A827",
";  c #53A72D",
":  c #57AA28",
">  c #5FB323",
",  c #63B626",
"<  c #68B726",
"1  c #65BC26",
"2  c #6ABD25",
"3  c #63B72C",
"4  c #6AB72A",
"5  c #66BA2B",
"6  c #6ABD2D",
"7  c #71BE22",
"8  c #71BE2D",
"9  c #64B732",
"0  c #6BB732",
"q  c #65BB32",
"w  c #6BBE31",
"e  c #64B63B",
"r  c #6CB73E",
"t  c #66BC3A",
"y  c #6CBC3A",
"u  c #71BD32",
"i  c #7BB53A",
"p  c #72BB3B",
"a  c #6CC11A",
"s  c #5BC424",
"d  c #5EC922",
"f  c #5EC32B",
"g  c #66C225",
"h  c #6BC125",
"j  c #6CC827",
"k  c #65C22C",
"l  c #6CC12C",
"z  c #6DC928",
"x  c #72C421",
"c  c #72C22D",
"v  c #72C92C",
"b  c #67C031",
"n  c #6DC133",
"m  c #6DC239",
"M  c #71C334",
"N  c #73C935",
"B  c #71C23A",
"V  c #74CB3A",
"C  c #7BD03F",
"Z  c #368C44",
"A  c #3B8C43",
"S  c #3A854C",
"D  c #358C4A",
"F  c #3A8B4C",
"G  c #359142",
"H  c #3C9143",
"J  c #35904A",
"K  c #3B8B50",
"L  c #449342",
"P  c #41924A",
"I  c #65BA41",
"U  c #6BBD43",
"Y  c #66BA4B",
"T  c #73BA44",
"R  c #79BB40",
"E  c #71B649",
"W  c #6AC144",
"Q  c #7FD544",
"!  c #82D747",
"~  c #8DDF4B",
"^  c #93DE46",
"/  c #90DF4E",
"(  c #88EE44",
")  c #8FE14E",
"_  c #93E545",
"`  c #95E842",
"'  c #94E34E",
"]  c #9AE54D",
"[  c #97E84D",
"{  c #9BE84E",
"}  c #8FE254",
"|  c #95E453",
" . c #99E653",
".. c #96E854",
"X. c #9BE954",
"o. c #94E55A",
"O. c #9BE359",
"+. c #95E859",
"@. c #9CEB59",
"#. c #A0EA59",
"$. c #A2DF60",
"%. c #566BD6",
"&. c #566DDD",
"*. c #5C6CDD",
"=. c #5373D8",
"-. c #5B72D8",
";. c #5770E6",
":. c #5A71E1",
">. c #5A75E8",
",. c #DD7FB1",
"<. c #DB73BE",
"1. c #E073C4",
"2. c #D981BE",
/* pixels */
"w w w w w y y y 0 l 8 u 6 w w w w w w w 6 5 w 6 w w 0 6 w w 6 6 6 w 6 n w w w w w w w n 6 w w 6 w w w w n 6 w w w w w w w ..} M ",
"w 6 w w w h g k 9 v w 6 w w w w w l w w w 6 M w M n 6 n w M w u w w 6 M 6 w w w w w w 6 w w w w w w n 6 6 w w w n 6 6 w w ..) n ",
"w w w 6 w F Z Z P 9 y n l 6 w w w w w 6 w M w 6 6 6 6 n 6 < 6 6 B w w w 6 w 6 w n 6 w w w l w w w w 6 w w w n 6 5 w w n 6 6 M h ",
"w w 6 n 6 O $ @ H 1 q n 6 w w w w w w w w w 3 M M 6 n w 6 8 M < w w w w l w w w 6 w w w w w w w 6 w w w w n 5 w n w w 6 6 6 w M ",
"w w w w 6 Z O @ F g m n l n 6 w w w w w w 6 6 | ~ c l M w [ | M w w w w l w w w w w w w 6 w w w n 5 w w 6 n w w 6 w w w w n w 6 ",
"n 6 w w 6 D Z % K 2 y u 6 6 w w w w w w w n 5 @.| 6 6 6 w ]  .6 6 B b w w w w w w w w 6 w n 6 w w n w w n 5 w w w w w w w 6 u 6 ",
"6 n n w n 5 m h y h b Z J G Z k 2 u h y 6 w w w w w w w w p < B r 6 M 0 h 6 w y g K O Z D n w w w 6 n w w w 6 w w w w w w *.&.u ",
"w w 6 w 6 l t 2 0 6 b Z Z Z Z n 6 y 6 t l w w w w 6 w w 6 6 M l l 5 5 6 n w n w g F $ % G 6 6 w w w 6 w w w n 6 w w w w w :.=.4 ",
"u 6 M | ..5 w 6 y n n F Z % A m n y h w 6 w w w w w w w w 2 t g q H + b 5 5 n t 1 H @ $ O w w w w w 6 n w w w w w 6 w w w u 6 B ",
"B 6 w ' ..l w l t 6 3 o     # > 6 y w w l w w w w w 6 w w w t h b K A m 5 j n q 9 H H D D n w w w w w 6 6 w w 6 w w w w 6 B 1 q ",
"w 6 6 M 6 w 6 6 w 6 N I W W I V l w 6 6 w w w w w w w w w 6 B 6 a y 3 6 p 0 u 8 v q k g h n w w w 6 w w n 6 w w w w 6 w w h y l ",
"n 0 M 6 2 m l l y 2 2 6 k n 9 h 2 0 u l w w w w n 6 w 6 w 6 w 0 1 x c 6 y w 8 u 8 t w t 0 n w w 6 n w w w w w w w w n 6 w w 6 n ",
"n w 6 w u w 6 y u 6 c 6 h l w n 8 w u g 6 w n w 6 w w w 6 B w n m e t w 6 w w 6 w w w y 6 6 w w w w w w w w w w n 6 w 6 6 l 0 6 ",
"w n 6 n 6 n 2 w 0 6 y y 6 6 y w 6 y w 6 n w 6 w w w 6 w n 2 p 6 h n 6 h y b w w w 6 k 6 6 n w w w w w l w w w w 6 w w n w y k n ",
"6 w w w w w w 6 n 6 w 6 6 ] ] ' | 6 6 n n 6 6 w w w n 6 w y 1 6 n 6 w n h l b h 6 w l F G G Z b n 6 w w 6 w 0 y n k l B y l 5 n ",
"w w w w w w w w w 6 w w w {  . . .l 6 w w w n 6 w w w w w h B y t p n y B 0 q V w u 6 Z O @ o 5 6 6 n 6 6 M 6 2 6 1 5 0 u < l 5 ",
"w w 6 w w 5 w y 0 n 6 n n  . . .| w w w n 6 w w w w 6 w w w 6 2 c 6 6 B 6 c 5 6 5 0 6 P O D F t n h m 1 w | { ] ' M b n l | ..M ",
"w w w 6 n w n n w w 5 5 5  . . ./ M w 6 0 n 6 w w w n 6 w t l n y h 5 W l g 2 6 n y 5 L   A P 6 5 l b 5 p  .] ]  .y U m g  .| 6 ",
"w w w n w l 5 w w w n n n 2 8 6 M 6 w w n w n 6 n 6 w 6 w h m F S b h e 6 p w y n 6 h U t g 0 a 2 B t c 7 @.^ #.| = ; q h 6 8 6 ",
"6 w w w w 6 l 6 M , 6 6 w w w w w 6 w w 6 w w w w w 6 n w l > O Z n h B 2 0 c 0 n l h b b b t x u p t n 2 O./ @.| : = 0 M 6 6 n ",
"w 6 w w w  .[ ' | l M n w 6 w w 6 w w n 6 w w 6 6 w w w w w n n b h < ..' X.` M 6 w n r 0 Z A 6 w 6 n w B n 6 w n q b n 4 M 5 0 ",
"w n 6 w w ] ] '  .5 l 6 w n y w w w w w w w w w w n w w w h y 5 6 y 6 X.O.O._ y 5 n 8 w h H X m w 5 m , l 1 B w 0 l 6 6 p w w n ",
"w w w w 6 ] ] '  .2 6 w b q h u 2 6 w 6 6 w 6 l 1 c 7 y 5 b 0 n B < 8 X.] [  .6 w w n w M 6 6 n w 6 w w w w 6 w n 6 w 6 w 6 1 B ",
"w w 6 n 6  . .' | M n n w 2 c u 6 8 6 b w w l 5 5 y 2 y B l w w w 6 M  .[  .) n w w 6 w < w w w w w w w w w n 6 6 n w w w m U 1 ",
"6 w w w w 6 l 6 M , 6 5 6 k 6 6 6 6 6 w n 6 l w l l j 5 * w 6 6 y 6 6 M 8 M < n 5 n n |  .w w w w 6 w w w w n 6 w w n 6 w g 1 l ",
"n 6 w w w 6 w 6 n n n n n 6 6 6 6 6 6 w 5 w q l b l b n c 6 M 6 u M w w , 6 5 n w 6 n | | w 6 w w n 6 w w w 6 w w w 6 w w r 0 n ",
"w w w 6 6 n n y w w 6 5 5 6 , 6 w < w w l w n 5 w n n b 1 6 n 5 w w w w M M n l w w 6 l 6 w w w w w w w w w w w w 5 n w w -.>.2 ",
"w w 6 n n q 5 w w w w w n 6 n 5 5 6 3 6 5 n 5 n n w n b l w n w w 6 w 5 w 3 w 5 6 n n 5 l w w w 6 n w 6 n 6 w w 6 n w w w %.:.u ",
"w n w w w n w w w w u w w , > 6 6 6 l w 5 n l w w w n q q w w w n n n w w w M n w 5 w 5 n w w w w w n 6 w w w w w 6 w w w u 2 w ",
"w 6 w 6 w w w 5 w 5 w 6 6 3 > , 5 , 6 5 5 6 q 6 y b w y w b w w n 5 n 6 w w 6 w w 6 n 6 5 w w w w 6 w w w w w 6 w w w w w y y k ",
"6 n 5 w 6 u 6 l l y u w 6 C ! > , 5 6 6 w 6 n n n w w n y w w w w w w 6 w l w 0 m 6 l l l n w n 6 w n 5 w p g 1.2.5 n k a n 6 n ",
"w w n w w q q m t l 6 w n V Q , 5 5 5 6 w w q n n n b B q w w w w w 6 n w 2 6 6 n w w t y w 6 n n w 6 n 6 s t <.,.p M w E n w n ",
"w w 6 w q Z $ X H l p w 6 h 5 5 5 6 6 5 5 w l n n n y n k n w w 6 w w w 6 n m n l l 6 < 2 n n 5 5 n n w n T h w k 5 r f 2 6 6 6 ",
"w w w w 6 G G O F h y w n 1 k 6 k 5 w l n w w y m n t b 1 6 w w w w w w n 0 y y 0 y y w y 6 w M w w w 5 l 8 n s s k l n n M w w ",
"w 6 w w w O G O D g w w l M n l b n l q 6 6 w n m N 5 m c w w w w 6 n w n 6 2 h 1 l w w g n 5 +.| w w n 0 q p u i T q u < 6 w w ",
"n w w w w G % + A 6 u w 6 * 6 x l n n 6 l 6 n n W > j 2 * w w w w w 6 w 6 6 6 6 N 3 m b l M 6 o.o.w w n w u u f f j & n n 8 M < ",
"6 w w w w q q b t 6 6 w b W y 6 n m n n 6 * w M b w 6 y m w w w w w w l w y w q I o Z Z Z 6 w n w w w 5 w 6 l 0 u y p _ ` [ | u ",
"w w n 6 w u 6 l l w u u k 5 w 7 6 2 k q y n q b 5 c 7 0 5 w w w w w w 6 w h h l W   H D Z n w 5 n w 5 B 6 k y w d 8 u ( $.]  .6 ",
"6 n 6 w 6 w w n w w w w 6 n w w w w n 6 w 6 w w w w n b n k T * l F O m y t y 2 l Z D O + n w n 5 w w w w 6 n 2 8 @. .6 w w c | ",
"6 w w n w w 6 6 w w w w w w w w w w 6 n w w w w w 6 w w n 5 y 2 6 + # 1 6 5 6 u q + % Z Z n w M w M w w 0 M 5 c 2 ~ | w w w < [ ",
"w q w w 6 w w w w w w 6 n q n 6 w w w w w 5 w 6 6 w w 6 l M 0 h n e W n 6 M 6 u c q k b t 6 6 6 6 w 6 n w w 6 n 8 @.#.2 6 6 2 #.",
"M 6 6 n n w w 6 6 w w w w l 6 w n 6 6 n n n n 6 5 M 6 8 2 c 8 6 n 5 n 5 6 c < y 6 n l b 9 M w u y w 6 n 6 w w n w / / 6 u c c ) ",
"~ M 6 6 6 6 w w 6 n w w w w w w 6 w w 6 w w 5 w M '  . .X.' / p w h h w n l n m t 6 6 6 c < 6 w M n 6 w 5 n 5 w y 2 M | | ..) M ",
"| n w n n w w w w w w 6 w 6 w w w w w w w n w w u |  . . .#.@.0 9 l 6 y q * v > U M y u 8 8 M < 0 w w l n w 6 w 6 6 u  . . .| 2 ",
"| 8 6 w b w w w w w w w w w w w w 6 w w w q w 6 8  . . .{ ^ | n w B 6 6 m y Y X + q u ] [ ' | M w w y 6 l 6 M 6 5 B 6 l l 6 M 1 ",
"| 8 n w w w w w w 6 6 n w w w w w w w w w w n 6 6 |  .] ] { | g 1 p p 6 b a m % A M 2 @.o.] X.6 5 M w 6 l 6 w w 5 n w w w u 6 6 ",
"o.6 M 9 c w w w w n w w 6 n w w 6 n n 5 n n 6 n 6  .' ] ] ] | n h t 4 c y n q n m 4 8 X. .| ..h 6 n w 6 u M 1 O.o.6 w M y k i k ",
"[ 6 5 M y w w w w 6 w w 6 n 6 n n 6 6 n 6 5 6 n u | | X.X.' | k q N 6 n h w 5 w w w u | '  .) l 5 w n w 6 < M | ' M 5 5 6 l m > ",
"n A + w 5 w w 6 w w w 6 n n n 5 5 n n w n w w 6 5 M 6 < 1 h n + A q 2 r h 6 w 6 w 0 6 M c c 6 n 6 5 n w w  .| 8 6 @. .u w 5 h y ",
"n K A y 6 w 6 n w w w w 6 6 w n w w n 5 n w 6 w w w n n n 6 5 H K m h t 6 6 n 6 n M 6 6 , 2 6 6 n n n 6 u | | c <  ./ 6 w l d w ",
"h 3 3 M T l w 6 w n 6 w w n 5 o.} w w w 6 n w w n 0 w w 5 y N q 9 l 6 y l 6 n 6 w n w n M  ...6 5 l w 5 w 8 M O.| M 8 6 6 p n 5 ",
"8 j j 6 w w w n w 6 w w w n 6 +.| n n w w w 6 6 n w w b y 6 6 h c h 6 p w w n w w 6 w 5 6 ' o.6 w y n 5 w n ,  .| 2 u M w r u 6 ",
"0 t t 5 6 w w 6 w 6 6 w w 6 6 n w w 6 6 w n w n 6 n 6 w 6 c M t U y u m b w y 6 n w B w n < M 6 n b w 5 w m 6 B 6 6 6 6 u n d 0 ",
"h b h l y w w w w w n w w n w 5 n w 6 B 6 5 w n 5 n 6 6 w 0 l 1 l 6 n 5 g n l q w 5 n 6 6 n 6 n y w n 6 w w w 6 6 n n w b y h 6 ",
"b w w w 6 w 6 w w w w w n K X U n 5 w 6 6 w n 5 w n 5 B w w w w w w w w w w w w w w w w 6 w n w 6 6 w w w w w w 6 w w w w w w w ",
"w w w w w w w w 6 w w 6 w % . q 6 6 M w 6 w 5 n M 5 6 w 5 w w w w w w w w w 6 w w 6 w w w w 6 w 6 n w w w 6 w w w w w w w w w w ",
"w w n 6 w w w 6 n q n w 6 I 9 n 6 6 u w w n w o.} n n w n w w 6 w w 6 w w w w 6 w w 6 6 w w w w w w w 6 w w w w w w w w w n w 6 ",
"w w 6 w w w w w w l 6 w w n n g 6 w w n n w w o.} n w 6 n w w n w w n 6 w w 6 n w w n w w w 6 w w w w n 6 w w 6 6 w w 6 w 6 w w ",
"w n w w 6 n w w w 6 w w 6 6 l 6 6 M w n w w 5 M n 6 w 6 5 w w 6 w w w w 6 n w w 6 w w w w q l w 6 n w 6 n 5 6 n w w w w 6 w w w ",
"w 6 w w w 6 w w w w w w 6 w B w m n w 6 6 n w 5 5 n n n n w w w 6 w w w w w w w w n 6 w 6 n w w n 5 w w w n w w w w 6 n w n 6 w ",
"6 n 6 w w w w w w w w w w 6 w 6 n 5 n n n 6 n n w n w 6 6 w w w 6 w w 6 6 n 5 n w w w w w w n 6 w w 6 n 6 n 5 w n 6 w w w w 6 n ",
"w w w w w w w 6 w 6 w w w 6 6 w n 5 n 5 y w 6 n w 6 w w w n n 6 n w w n w w w w w n 6 w w w 6 w w w w 6 w w n w 5 w w w w w 6 w ",
"6 n 6 g y w w n 6 w 6 6 6 w w w 6 n w w 6 6 w w 6 w w w w 6 6 n w w n 5 6 6 6 w 0 n n 6 l w w w n 6 w w w w n 6 n w 6 w w w w w ",
"m e 0 M 6 M w w w w 6 w 6 w w w w w w 6 n w w w w w w w 6 n n n y 5 0 l M n n 5 w 6 6 n 5 w w n 5 w w w w w 6 w w w n 6 w 6 n w "
};
