/* XPM */
static char *player2[] = {
/* columns rows colors chars-per-pixel */
"64 64 123 2 ",
"   c #6BBE31",
".  c #6CBC3A",
"X  c #6BB732",
"o  c #6CC12C",
"O  c #71BE2D",
"+  c #71BD32",
"@  c #6ABD2D",
"#  c black",
"$  c #6DC133",
"%  c #96E854",
"&  c #8FE254",
"*  c #71C334",
"=  c #6BC125",
"-  c #66C225",
";  c #65C22C",
":  c #64B732",
">  c #72C92C",
",  c #8FE14E",
"<  c #3A8B4C",
"1  c #368C44",
"2  c #41924A",
"3  c #66BA2B",
"4  c #348D3D",
"5  c #35913A",
"6  c #349234",
"7  c #3C9143",
"8  c #65BC26",
"9  c #65BB32",
"0  c #6DC239",
"q  c #9B2424",
"w  c #358C4A",
"e  c #3A913B",
"r  c #3B8B50",
"t  c #6ABD25",
"y  c #67C031",
"u  c #35904A",
"i  c #359142",
"p  c #5C6CDD",
"a  c #566DDD",
"s  c #66BC3A",
"d  c #5A71E1",
"f  c #5373D8",
"g  c #6AB72A",
"h  c #95E453",
"j  c #71C23A",
"k  c #94E34E",
"l  c #63B72C",
"z  c #3A8E33",
"x  c #73C935",
"c  c #65BA41",
"v  c #263238",
"b  c #1A2429",
"n  c #272429",
"m  c #68B726",
"M  c #DBA281",
"N  c #D49977",
"B  c #99E653",
"V  c #97E84D",
"C  c #E6AE85",
"Z  c #9AE54D",
"A  c #72BB3B",
"S  c #6BBD43",
"D  c #896347",
"F  c #6CB73E",
"G  c #5B72D8",
"H  c #5A75E8",
"J  c #566BD6",
"K  c #01467A",
"L  c white",
"P  c #FFC596",
"I  c #EDAF80",
"U  c #6CC11A",
"Y  c #71B649",
"T  c #348C35",
"R  c #EDA4A4",
"E  c #F5B98B",
"W  c #5EC32B",
"Q  c #5BC424",
"!  c #7BB53A",
"~  c #73BA44",
"^  c #3B8D3B",
"/  c #6CC827",
"(  c #66BB1E",
")  c gray13",
"_  c #CF9574",
"`  c #C78C6C",
"'  c #93E545",
"]  c #95E842",
"[  c #5EC922",
"{  c #88EE44",
"}  c #A2DF60",
"|  c #9CEB59",
" . c #72C22D",
".. c #8DDF4B",
"X. c #A0EA59",
"o. c #90DF4E",
"O. c #2B3138",
"+. c #0F1416",
"@. c #2F3138",
"#. c #273238",
"$. c #111719",
"%. c #283238",
"&. c #94E55A",
"*. c #2C3138",
"=. c #181F23",
"-. c #0D1114",
";. c #0B0E10",
":. c #151B1F",
">. c #2A3238",
",. c #2B3238",
"<. c #2D3138",
"1. c #343038",
"2. c #3B3038",
"3. c #5FB323",
"4. c #3B8C43",
"5. c #6B4345",
"6. c #494040",
"7. c #545154",
"8. c gray26",
"9. c #2E2D2E",
"0. c #090909",
"q. c #080707",
"w. c #64B63B",
/* pixels */
"          . . . X o O + @               # # # # # # # # # # # # # # # # # # # # # # # # # # # #         $ @               % & * ",
"  @       = - ; : >   @           o     # # # # # # # # # # # # # # # # # # # # # # # # # # # #     $ @ @       $ @ @     % , $ ",
"      @   < 1 1 2 : . $ o @           @ # # # # # # # # # # # # # # # # # # # # # # # # # # # #     @       $ @ 3     $ @ @ * = ",
"    @ $ @ 4 5 6 7 8 9 $ @               # # # # # # # # # # # # # # # # # # # # # # # # # # # # @         $ 3   $     @ @ @   * ",
"        @ 1 4 6 < - 0 $ o $ @   # # # # q q q q q q q q q q q q q q q q q q q q q q q q q q q q # # # # @ $     @         $   @ ",
"$ @     @ w 1 e r t . + @ @     # # # # q q q q q q q q q q q q q q q q q q q q q q q q q q q q # # # # $ 3               @ + @ ",
"@ $ $   $ 3 0 = . = y 1 u i 1 ; # # # # q q q q q q q q q q q q q q q q q q q q q q q q q q q q # # # #     @             p a + ",
"    @   @ o s t X @ y 1 1 1 1 $ # # # # q q q q q q q q q q q q q q q q q q q q q q q q q q q q # # # #     $ @           d f g ",
"+ @ * h % 3   @ . $ $ < # # # # q q q q q q q q q q q q q q q q q q q q q q q q q q q q q q q q q q q q # # # #   @       + @ j ",
"j @   k % o   o s @ l z # # # # q q q q q q q q q q q q q q q q q q q q q q q q q q q q q q q q q q q q # # # #         @ j 8 9 ",
"  @ @ * @   @ @   @ x c # # # # q q q q q q q q q q q q q q q q q q q q q q q q q q q q q q q q q q q q # # # #     @     = . o ",
"$ X * @ t 0 o o . t t @ # # # # q q q q q q q q q q q q q q q q q q q q q q q q q q q q q q q q q q q q # # # #     $ @     @ $ ",
"$   @   +   @ . # # # # q q q q q q q q v v v v v v v v b b b b b b b b b b b b b b b n q q q q q q q q q q q q # # # # @ o X @ ",
"  $ @ $ @ $ t   # # # # q q q q q q q q v v v v v v v v b b b b b b b b b b b b b b b n q q q q q q q q q q q q # # # #   . ; $ ",
"@             @ # # # # q q q q q q q q v v v v v v v v b b b b b b b b b b b b b b b n q q q q q q q q q q q q # # # # . o 3 $ ",
"                # # # # q q q q q q q q v v v v v v v v b b b b b b b b b b b b b b b n q q q q q q q q q q q q # # # # + m o 3 ",
"    @     3   . # # # # q q q q v v v v M M M M M M M M M M M M N N N N N N N N N N N N n n n n q q q q q q q q # # # # o h % * ",
"      @ $   $ $ # # # # q q q q v v v v M M M M M M M M M M M M N N N N N N N N N N N N b b b n q q q q q q q q # # # # - B h @ ",
"      $   o 3   # # # # q q q q v v v v M M M M M M M M M M M M N N N N N N N N N N N N b b b n q q q q q q q q # # # # = @ O @ ",
"@         @ o @ # # # # q q q q v v v v M M M M M M M M M M M M N N N N N N N N N N N N b b b n q q q q q q q q # # # # * @ @ $ ",
"  @       B V k # # # # q q q q M M M M C C C C C C C C C C C C C C C C C C C C C C C C N N N N n n n n q q q q # # # # g * 3 X ",
"  $ @     Z Z k # # # # q q q q M M M M C C C C C C C C C C C C C C C C C C C C C C C C N N N N b b b n q q q q # # # # A     $ ",
"        @ Z Z k # # # # q q q q M M M M C C C C C C C C C C C C C C C C C C C C C C C C N N N N b b b n q q q q # # # #   @ 8 j ",
"    @ $ @ B B k # # # # q q q q M M M M C C C C C C C C C C C C C C C C C C C C C C C C N N N N b b b n q q q q # # # #   0 S 8 ",
"@         @ o @ # # # # q q q q D D D D D D D D C C C C C C C C D D D D D D D D C C C C N N N N b b b n q q q q # # # #   - 8 o ",
"$ @       @   @ # # # # q q q q D D D D D D D D C C C C C C C C D D D D D D D D C C C C N N N N b b b n q q q q # # # #   F X $ ",
"      @ @ $ $ . # # # # q q q q D D D D D D D D C C C C C C C C D D D D D D D D C C C C N N N N b b b n q q q q # # # #   G H t ",
"    @ $ $ 9 3   # # # # q q q q D D D D D D D D C C C C C C C C D D D D D D D D C C C C N N N N b b b n q q q q # # # #   J d + ",
"  $       $     # # # # q q q q K K K K L L L L P P P P P P P P K K K K L L L L P P P P I I I I N N N N q q q q # # # #   + t   ",
"  @   @       3 # # # # q q q q K K K K L L L L P P P P P P P P K K K K L L L L P P P P I I I I N N N N q q q q # # # #   . . ; ",
"@ $ 3   @ + @ o # # # # q q q q K K K K L L L L P P P P P P P P K K K K L L L L P P P P I I I I N N N N q q q q # # # # U $ @ $ ",
"    $     9 9 0 # # # # q q q q K K K K L L L L P P P P P P P P K K K K L L L L P P P P I I I I N N N N q q q q # # # # Y $   $ ",
"    @   9 1 5 T # # # # q q q q R R R R E E E E P P P P P P P P P P P P E E E E R R R R M M M M q q q q # # # # ; 3 F W t @ @ @ ",
"        @ i i 4 # # # # q q q q R R R R E E E E P P P P P P P P P P P P E E E E R R R R M M M M q q q q # # # # Q ; o $ $ *     ",
"  @       4 i 4 # # # # q q q q R R R R E E E E P P P P P P P P P P P P E E E E R R R R M M M M q q q q # # # # ! ~ 9 + m @     ",
"$         i e ^ # # # # q q q q R R R R E E E E P P P P P P P P P P P P E E E E R R R R M M M M q q q q # # # # W / ( $ $ O * m ",
"@         9 9 y s @ @   ) ) ) ) q q q q q q q q _ _ _ _ ` ` ` ` ` ` ` ` ` ` ` ` q q q q q q q q q q q q # # # # + . A ' ] V h + ",
"    $ @   + @ o o   + + ) ) ) ) q q q q q q q q _ _ _ _ ` ` ` ` ` ` ` ` ` ` ` ` q q q q q q q q q q q q # # # # [ O + { } Z B @ ",
"@ $ @   @     $         ) ) ) ) q q q q q q q q _ _ _ _ ` ` ` ` ` ` ` ` ` ` ` ` q q q q q q q q q q q q # # # # O | B @      .h ",
"@     $     @ @         ) ) ) ) q q q q q q q q _ _ _ _ ` ` ` ` ` ` ` ` ` ` ` ` q q q q q q q q q q q q # # # # t ..h       m V ",
"  9     @             @ # # # # q q q q q q q q # # # # q q q q q q q q # # # # q q q q q q q q q q q q # # # # O | X.t @ @ t X.",
"* @ @ $ $     @ @       # # # # q q q q q q q q # # # # q q q q q q q q # # # # q q q q q q q q q q q q # # # #   o.o.@ +  . ., ",
"..* @ @ @ @     @ $     # # # # q q q q q q q q # # # # q q q q q q q q # # # # q q q q q q q q q q q q # # # # . t * h h % , * ",
"h $   $ $             @ # # # # q q q q q q q q # # # # q q q q q q q q # # # # q q q q q q q q q q q q # # # # @ @ + B B B h t ",
"h O @   y       # # # # q q q q q q q q q q q q O.+.# @.q q q q q q q q #.# # O.q q q q q q q q q q q q # # # # 3 j @ o o @ * 8 ",
"h O $           # # # # q q q q q q q q q q q q #.$.# #.q q q q q q q q v # # %.q q q q q q q q q q q q # # # # 3 $       + @ @ ",
"&.@ * :  .      # # # # q q q q q q q q q q q q *.=.-.#.q q q q q q q q v ;.:.%.q q q q q q q q q q q q # # # # &.@   * . ; ! ; ",
"V @ 3 * .       # # # # q q q q q q q q q q q q *.%.>.,.q q q q q q q q %.<.1.2.q q q q q q q q q q q q # # # # k * 3 3 @ o 0 3.",
"$ 4.^   3     @ # # # # I I I I q q q q q q q q q q q q q q q q q q q q q q q q q q q q I I I I I I I I # # # # @ | B +   3 = . ",
"$ r 4.. @   @ $ # # # # I I I I q q q q q q q q q q q q q q q q q q q q q q q q q q q q I I I I I I I I # # # # m B o.@   o [   ",
"= l l * ~ o   @ # # # # I I I I q q q q q q q q q q q q q q q q q q q q q q q q q q q q I I I I I I I I # # # # h * O @ @ A $ 3 ",
"O / / @       $ # # # # I I I I q q q q q q q q q q q q q q q q q q q q q q q q q q q q I I I I I I I I # # # # h t + *   F + @ ",
"X s s 3 @     @   @ @   # # # # # # # # q q q q q q q q q q q q q q q q q q q q q q q q # # # # # # # #   0 @ j @ @ @ @ + $ [ X ",
"= y = o .           $   # # # # # # # # q q q q q q q q q q q q q q q q q q q q q q q q # # # # # # # #       @ @ $ $   y . = @ ",
"y       @   @           # # # # # # # # q q q q q q q q q q q q q q q q q q q q q q q q # # # # # # # #         @               ",
"                @     @ # # # # # # # # q q q q q q q q q q q q q q q q q q q q q q q q # # # # # # # #   @                     ",
"    $ @       @ $ 9 $   @ c : $ # # # # 5.5.5.5.# # # # # # # # # # # # # # # # 6.6.6.6.# # # #       @                   $   @ ",
"    @             o @     $ $ - # # # # 7.7.7.7.# # # # # # # # # # # # # # # # 8.8.8.8.# # # #       $ @     @ @     @   @     ",
"  $     @ $       @     @ @ o @ # # # # 7.7.7.7.# # # # # # # # # # # # # # # # 8.8.8.8.# # # # @ $   @ $ 3 @ $         @       ",
"  @       @             @   j   # # # # 7.7.7.7.# # # # # # # # # # # # # # # # 8.8.8.8.# # # # $ 3       $         @ $   $ @   ",
"@ $ @                     @   @ # # # # 9.9.9.9.0.0.0.0.@       @     @ q.q.q.q.9.9.9.9.# # # #     @ $ @ $ 3   $ @         @ $ ",
"              @   @       @ @   # # # # 9.9.9.9.0.0.0.0.  $ $ @ $     $ q.q.q.q.9.9.9.9.# # # #       @     $   3           @   ",
"@ $ @ - .     $ @   @ @ @       # # # # 9.9.9.9.0.0.0.0.  @ @ $     $ 3 q.q.q.q.9.9.9.9.# # # # $ @         $ @ $   @           ",
"0 w.X * @ *         @   @       # # # # 9.9.9.9.0.0.0.0.@ $ $ $ . 3 X o q.q.q.q.9.9.9.9.# # # # 3           @       $ @   @ $   "
};
