/* XPM */
static char *player[] = {
/* columns rows colors chars-per-pixel */
"64 64 109 2 ",
"   c #6BBE31",
".  c #6CBC3A",
"X  c #6BB732",
"o  c #6CC12C",
"O  c #71BE2D",
"+  c #71BD32",
"@  c #6ABD2D",
"#  c black",
"$  c #6DC133",
"%  c #96E854",
"&  c #8FE254",
"*  c #71C334",
"=  c #6BC125",
"-  c #66C225",
";  c #65C22C",
":  c #64B732",
">  c #72C92C",
",  c #8FE14E",
"<  c #3A8B4C",
"1  c #368C44",
"2  c #41924A",
"3  c #66BA2B",
"4  c #348D3D",
"5  c #35913A",
"6  c #349234",
"7  c #3C9143",
"8  c #65BC26",
"9  c #65BB32",
"0  c #6DC239",
"q  c #196499",
"w  c #0F5285",
"e  c #074775",
"r  c #358C4A",
"t  c #3A913B",
"y  c #3B8B50",
"u  c #6ABD25",
"i  c #67C031",
"p  c #35904A",
"a  c #359142",
"s  c #5C6CDD",
"d  c #566DDD",
"f  c #66BC3A",
"g  c #5A71E1",
"h  c #5373D8",
"j  c #6AB72A",
"k  c #95E453",
"l  c #71C23A",
"z  c #94E34E",
"x  c #63B72C",
"c  c #3A8E33",
"v  c #73C935",
"b  c #65BA41",
"n  c #263238",
"m  c #1A2429",
"M  c #68B726",
"N  c #DBA281",
"B  c #D49977",
"V  c #99E653",
"C  c #97E84D",
"Z  c #E6AE85",
"A  c #9AE54D",
"S  c #72BB3B",
"D  c #6BBD43",
"F  c #896347",
"G  c #6CB73E",
"H  c #5B72D8",
"J  c #5A75E8",
"K  c #566BD6",
"L  c #01467A",
"P  c white",
"I  c #FFC596",
"U  c #EDAF80",
"Y  c #6CC11A",
"T  c #71B649",
"R  c #348C35",
"E  c #115B8F",
"W  c #EDA4A4",
"Q  c #F5B98B",
"!  c #5EC32B",
"~  c #5BC424",
"^  c #7BB53A",
"/  c #73BA44",
"(  c #3B8D3B",
")  c #6CC827",
"_  c #66BB1E",
"`  c gray13",
"'  c #CF9574",
"]  c #C78C6C",
"[  c #93E545",
"{  c #95E842",
"}  c #5EC922",
"|  c #88EE44",
" . c #A2DF60",
".. c #9CEB59",
"X. c #72C22D",
"o. c #8DDF4B",
"O. c #042C47",
"+. c #A0EA59",
"@. c #90DF4E",
"#. c #063759",
"$. c #94E55A",
"%. c #5FB323",
"&. c #3B8C43",
"*. c #545154",
"=. c gray26",
"-. c #2E2D2E",
";. c #090909",
":. c #080707",
">. c #64B63B",
/* pixels */
"          . . . X o O + @               # # # # # # # # # # # # # # # # # # # # # # # # # # # #         $ @               % & * ",
"  @       = - ; : >   @           o     # # # # # # # # # # # # # # # # # # # # # # # # # # # #     $ @ @       $ @ @     % , $ ",
"      @   < 1 1 2 : . $ o @           @ # # # # # # # # # # # # # # # # # # # # # # # # # # # #     @       $ @ 3     $ @ @ * = ",
"    @ $ @ 4 5 6 7 8 9 $ @               # # # # # # # # # # # # # # # # # # # # # # # # # # # # @         $ 3   $     @ @ @   * ",
"        @ 1 4 6 < - 0 $ o $ @   # # # # q q q q q q q q q q q q q q q q w w w w e e e e e e e e # # # # @ $     @         $   @ ",
"$ @     @ r 1 t y u . + @ @     # # # # q q q q q q q q q q q q q q q q w w w w e e e e e e e e # # # # $ 3               @ + @ ",
"@ $ $   $ 3 0 = . = i 1 p a 1 ; # # # # q q q q q q q q q q q q q q q q w w w w e e e e e e e e # # # #     @             s d + ",
"    @   @ o f u X @ i 1 1 1 1 $ # # # # q q q q q q q q q q q q q q q q w w w w e e e e e e e e # # # #     $ @           g h j ",
"+ @ * k % 3   @ . $ $ < # # # # q q q q w w w w w w w w w w w w w w w w w w w w w w w w e e e e e e e e # # # #   @       + @ l ",
"l @   z % o   o f @ x c # # # # q q q q w w w w w w w w w w w w w w w w w w w w w w w w e e e e e e e e # # # #         @ l 8 9 ",
"  @ @ * @   @ @   @ v b # # # # q q q q w w w w w w w w w w w w w w w w w w w w w w w w e e e e e e e e # # # #     @     = . o ",
"$ X * @ u 0 o o . u u @ # # # # q q q q w w w w w w w w w w w w w w w w w w w w w w w w e e e e e e e e # # # #     $ @     @ $ ",
"$   @   +   @ . # # # # q q q q q q q q n n n n n n n n m m m m m m m m m m m m m m m m e e e e e e e e e e e e # # # # @ o X @ ",
"  $ @ $ @ $ u   # # # # q q q q q q q q n n n n n n n n m m m m m m m m m m m m m m m m e e e e e e e e e e e e # # # #   . ; $ ",
"@             @ # # # # q q q q q q q q n n n n n n n n m m m m m m m m m m m m m m m m e e e e e e e e e e e e # # # # . o 3 $ ",
"                # # # # q q q q q q q q n n n n n n n n m m m m m m m m m m m m m m m m e e e e e e e e e e e e # # # # + M o 3 ",
"    @     3   . # # # # q q q q n n n n N N N N N N N N N N N N B B B B B B B B B B B B m m m m e e e e e e e e # # # # o k % * ",
"      @ $   $ $ # # # # q q q q n n n n N N N N N N N N N N N N B B B B B B B B B B B B m m m m e e e e e e e e # # # # - V k @ ",
"      $   o 3   # # # # q q q q n n n n N N N N N N N N N N N N B B B B B B B B B B B B m m m m e e e e e e e e # # # # = @ O @ ",
"@         @ o @ # # # # q q q q n n n n N N N N N N N N N N N N B B B B B B B B B B B B m m m m e e e e e e e e # # # # * @ @ $ ",
"  @       V C z # # # # q q q q N N N N Z Z Z Z Z Z Z Z Z Z Z Z Z Z Z Z Z Z Z Z Z Z Z Z B B B B m m m m e e e e # # # # j * 3 X ",
"  $ @     A A z # # # # q q q q N N N N Z Z Z Z Z Z Z Z Z Z Z Z Z Z Z Z Z Z Z Z Z Z Z Z B B B B m m m m e e e e # # # # S     $ ",
"        @ A A z # # # # q q q q N N N N Z Z Z Z Z Z Z Z Z Z Z Z Z Z Z Z Z Z Z Z Z Z Z Z B B B B m m m m e e e e # # # #   @ 8 l ",
"    @ $ @ V V z # # # # q q q q N N N N Z Z Z Z Z Z Z Z Z Z Z Z Z Z Z Z Z Z Z Z Z Z Z Z B B B B m m m m e e e e # # # #   0 D 8 ",
"@         @ o @ # # # # q q q q F F F F F F F F Z Z Z Z Z Z Z Z F F F F F F F F Z Z Z Z B B B B m m m m e e e e # # # #   - 8 o ",
"$ @       @   @ # # # # q q q q F F F F F F F F Z Z Z Z Z Z Z Z F F F F F F F F Z Z Z Z B B B B m m m m e e e e # # # #   G X $ ",
"      @ @ $ $ . # # # # q q q q F F F F F F F F Z Z Z Z Z Z Z Z F F F F F F F F Z Z Z Z B B B B m m m m e e e e # # # #   H J u ",
"    @ $ $ 9 3   # # # # q q q q F F F F F F F F Z Z Z Z Z Z Z Z F F F F F F F F Z Z Z Z B B B B m m m m e e e e # # # #   K g + ",
"  $       $     # # # # q q q q L L L L P P P P I I I I I I I I L L L L P P P P I I I I U U U U B B B B e e e e # # # #   + u   ",
"  @   @       3 # # # # q q q q L L L L P P P P I I I I I I I I L L L L P P P P I I I I U U U U B B B B e e e e # # # #   . . ; ",
"@ $ 3   @ + @ o # # # # q q q q L L L L P P P P I I I I I I I I L L L L P P P P I I I I U U U U B B B B e e e e # # # # Y $ @ $ ",
"    $     9 9 0 # # # # q q q q L L L L P P P P I I I I I I I I L L L L P P P P I I I I U U U U B B B B e e e e # # # # T $   $ ",
"    @   9 1 5 R # # # # E E E E W W W W Q Q Q Q I I I I I I I I I I I I Q Q Q Q W W W W N N N N w w w w # # # # ; 3 G ! u @ @ @ ",
"        @ a a 4 # # # # E E E E W W W W Q Q Q Q I I I I I I I I I I I I Q Q Q Q W W W W N N N N w w w w # # # # ~ ; o $ $ *     ",
"  @       4 a 4 # # # # E E E E W W W W Q Q Q Q I I I I I I I I I I I I Q Q Q Q W W W W N N N N w w w w # # # # ^ / 9 + M @     ",
"$         a t ( # # # # E E E E W W W W Q Q Q Q I I I I I I I I I I I I Q Q Q Q W W W W N N N N w w w w # # # # ! ) _ $ $ O * M ",
"@         9 9 i f @ @   ` ` ` ` E E E E E E E E ' ' ' ' ] ] ] ] ] ] ] ] ] ] ] ] e e e e w w w w e e e e # # # # + . S [ { C k + ",
"    $ @   + @ o o   + + ` ` ` ` E E E E E E E E ' ' ' ' ] ] ] ] ] ] ] ] ] ] ] ] e e e e w w w w e e e e # # # # } O + |  .A V @ ",
"@ $ @   @     $         ` ` ` ` E E E E E E E E ' ' ' ' ] ] ] ] ] ] ] ] ] ] ] ] e e e e w w w w e e e e # # # # O ..V @     X.k ",
"@     $     @ @         ` ` ` ` E E E E E E E E ' ' ' ' ] ] ] ] ] ] ] ] ] ] ] ] e e e e w w w w e e e e # # # # u o.k       M C ",
"  9     @             @ # # # # q q q q E E E E O.O.O.O.e e e e E E E E O.O.O.O.E E E E w w w w e e e e # # # # O ..+.u @ @ u +.",
"* @ @ $ $     @ @       # # # # q q q q E E E E O.O.O.O.e e e e E E E E O.O.O.O.E E E E w w w w e e e e # # # #   @.@.@ + X.X., ",
"o.* @ @ @ @     @ $     # # # # q q q q E E E E O.O.O.O.e e e e E E E E O.O.O.O.E E E E w w w w e e e e # # # # . u * k k % , * ",
"k $   $ $             @ # # # # q q q q E E E E O.O.O.O.e e e e E E E E O.O.O.O.E E E E w w w w e e e e # # # # @ @ + V V V k u ",
"k O @   i       # # # # q q q q q q q q E E E E #.#.#.#.e e e e w w w w #.#.#.#.E E E E w w w w e e e e # # # # 3 l @ o o @ * 8 ",
"k O $           # # # # q q q q q q q q E E E E #.#.#.#.e e e e w w w w #.#.#.#.E E E E w w w w e e e e # # # # 3 $       + @ @ ",
"$.@ * : X.      # # # # q q q q q q q q E E E E #.#.#.#.e e e e w w w w #.#.#.#.E E E E w w w w e e e e # # # # $.@   * . ; ^ ; ",
"C @ 3 * .       # # # # q q q q q q q q E E E E #.#.#.#.e e e e w w w w #.#.#.#.E E E E w w w w e e e e # # # # z * 3 3 @ o 0 %.",
"$ &.(   3     @ # # # # U U U U q q q q E E E E E E E E w w w w w w w w w w w w e e e e U U U U U U U U # # # # @ ..V +   3 = . ",
"$ y &.. @   @ $ # # # # U U U U q q q q E E E E E E E E w w w w w w w w w w w w e e e e U U U U U U U U # # # # M V @.@   o }   ",
"= x x * / o   @ # # # # U U U U q q q q E E E E E E E E w w w w w w w w w w w w e e e e U U U U U U U U # # # # k * O @ @ S $ 3 ",
"O ) ) @       $ # # # # U U U U q q q q E E E E E E E E w w w w w w w w w w w w e e e e U U U U U U U U # # # # k u + *   G + @ ",
"X f f 3 @     @   @ @   # # # # # # # # E E E E E E E E w w w w w w w w e e e e e e e e # # # # # # # #   0 @ l @ @ @ @ + $ } X ",
"= i = o .           $   # # # # # # # # E E E E E E E E w w w w w w w w e e e e e e e e # # # # # # # #       @ @ $ $   i . = @ ",
"i       @   @           # # # # # # # # E E E E E E E E w w w w w w w w e e e e e e e e # # # # # # # #         @               ",
"                @     @ # # # # # # # # E E E E E E E E w w w w w w w w e e e e e e e e # # # # # # # #   @                     ",
"    $ @       @ $ 9 $   @ b : $ # # # # *.*.*.*.# # # # # # # # # # # # # # # # =.=.=.=.# # # #       @                   $   @ ",
"    @             o @     $ $ - # # # # *.*.*.*.# # # # # # # # # # # # # # # # =.=.=.=.# # # #       $ @     @ @     @   @     ",
"  $     @ $       @     @ @ o @ # # # # *.*.*.*.# # # # # # # # # # # # # # # # =.=.=.=.# # # # @ $   @ $ 3 @ $         @       ",
"  @       @             @   l   # # # # *.*.*.*.# # # # # # # # # # # # # # # # =.=.=.=.# # # # $ 3       $         @ $   $ @   ",
"@ $ @                     @   @ # # # # -.-.-.-.;.;.;.;.@       @     @ :.:.:.:.-.-.-.-.# # # #     @ $ @ $ 3   $ @         @ $ ",
"              @   @       @ @   # # # # -.-.-.-.;.;.;.;.  $ $ @ $     $ :.:.:.:.-.-.-.-.# # # #       @     $   3           @   ",
"@ $ @ - .     $ @   @ @ @       # # # # -.-.-.-.;.;.;.;.  @ @ $     $ 3 :.:.:.:.-.-.-.-.# # # # $ @         $ @ $   @           ",
"0 >.X * @ *         @   @       # # # # -.-.-.-.;.;.;.;.@ $ $ $ . 3 X o :.:.:.:.-.-.-.-.# # # # 3           @       $ @   @ $   "
};
