/* XPM */
static char *collec[] = {
/* columns rows colors chars-per-pixel */
"64 64 210 2 ",
"   c #2F6B35",
".  c #2F6B2F",
"X  c #4C500F",
"o  c #494F13",
"O  c #5F4F11",
"+  c #4D5413",
"@  c #475415",
"#  c #555816",
"$  c #4B4F0F",
"%  c #6C5A14",
"&  c #625F17",
"*  c #715C13",
"=  c #4D6719",
"-  c #566819",
";  c #4A751C",
":  c #53791D",
">  c #696314",
",  c #716712",
"<  c #7C6111",
"1  c #6C7518",
"2  c #707217",
"3  c #4C7A22",
"4  c #527E22",
"5  c #757322",
"6  c #69732D",
"7  c #865F10",
"8  c #BE5A17",
"9  c #876613",
"0  c #916A14",
"q  c #887514",
"w  c #947C15",
"e  c #9B7B12",
"r  c #917712",
"t  c #93660F",
"y  c #B67C12",
"u  c #B77B11",
"i  c #AA7613",
"p  c #807421",
"a  c #C4671B",
"s  c #C66917",
"d  c #CE7719",
"f  c #D17814",
"g  c #D97D15",
"h  c #D97C19",
"j  c #D27918",
"k  c #368C2D",
"l  c #348D3D",
"z  c #388D37",
"x  c #35913A",
"c  c #3A913B",
"v  c #359234",
"b  c #3C9225",
"n  c #57971D",
"m  c #69BB1E",
"M  c #67AC1F",
"N  c #4E8D25",
"B  c #548523",
"V  c #539325",
"C  c #5A9125",
"Z  c #55932B",
"A  c #579A29",
"S  c #599926",
"D  c #5D9A32",
"F  c #629036",
"G  c #58A628",
"H  c #5FB323",
"J  c #62AB2D",
"K  c #62A72E",
"L  c #63B626",
"P  c #68B726",
"I  c #65BC26",
"U  c #6ABD25",
"Y  c #64B52C",
"T  c #6AB72A",
"R  c #66BA2B",
"E  c #6ABD2D",
"W  c #71BE2D",
"Q  c #71BE22",
"!  c #65B632",
"~  c #6BB732",
"^  c #65BB32",
"/  c #6BBE31",
"(  c #6CB73E",
")  c #66BC3A",
"_  c #6CBC3A",
"`  c #64B63B",
"'  c #71BD32",
"]  c #72BB3B",
"[  c #7BB53A",
"{  c #6CC11A",
"}  c #5EC922",
"|  c #5DC328",
" . c #66C225",
".. c #6BC125",
"X. c #6CC827",
"o. c #65C22C",
"O. c #6CC12C",
"+. c #72C22D",
"@. c #72C727",
"#. c #67C031",
"$. c #6DC133",
"%. c #6DC239",
"&. c #71C334",
"*. c #71C23A",
"=. c #74CA38",
"-. c #7BD03F",
";. c #368C44",
":. c #358C4A",
">. c #3A8B4C",
",. c #3B8C43",
"<. c #359142",
"1. c #3C9143",
"2. c #35904A",
"3. c #3B8B50",
"4. c #429248",
"5. c #69BC42",
"6. c #74BA45",
"7. c #6AC144",
"8. c #7ED244",
"9. c #B78712",
"0. c #BA9313",
"q. c #A38814",
"w. c #85853A",
"e. c #C98713",
"r. c #DC8314",
"t. c #DD8A11",
"y. c #DC861B",
"u. c #C09613",
"i. c #CA9F16",
"p. c #DF9115",
"a. c #D49014",
"s. c #E08C15",
"d. c #E08D1C",
"f. c #E29314",
"g. c #E69B12",
"h. c #EC9E15",
"j. c #E2951B",
"k. c #E59C1E",
"l. c #E89E1C",
"z. c #D1A414",
"x. c #D9AA14",
"c. c #EBA316",
"v. c #E9A31B",
"b. c #EDAB1A",
"n. c #EAAA16",
"m. c #F0A315",
"M. c #F0A61A",
"N. c #F2AB1A",
"B. c #ECB816",
"V. c #E9B616",
"C. c #F3B416",
"Z. c #F4BC16",
"A. c #F3B31A",
"S. c #D58722",
"D. c #E59E22",
"F. c #EAA522",
"G. c #EAA927",
"H. c #F2AE26",
"J. c #EEB121",
"K. c #EDBE2A",
"L. c #F2B424",
"P. c #F4BC25",
"I. c #F5B92D",
"U. c #F4B528",
"Y. c #EBAD34",
"T. c #F3BB33",
"R. c #F4BE38",
"E. c #F1B631",
"W. c #EFB437",
"Q. c #F7C116",
"!. c #F6C11A",
"~. c #F6C125",
"^. c #F7C429",
"/. c #F8C72C",
"(. c #F8C524",
"). c #F9CB3A",
"_. c #F5C038",
"`. c #F0B844",
"'. c #8DDF4B",
"]. c #81D447",
"[. c #90DF4E",
"{. c #93DE46",
"}. c #86CB4B",
"|. c #8FE14E",
" X c #88EE44",
".X c #94E34E",
"XX c #9AE54D",
"oX c #97E84D",
"OX c #97E749",
"+X c #8FE254",
"@X c #95E453",
"#X c #99E653",
"$X c #96E854",
"%X c #94E55A",
"&X c #9CEB59",
"*X c #9AE657",
"=X c #A0EA59",
"-X c #A2DF60",
";X c #FACE46",
":X c #F8CE58",
">X c #F1CC5A",
",X c #F8CF60",
"<X c #FAD461",
"1X c #FBD86C",
"2X c #586CDB",
"3X c #5773D8",
"4X c #5A72E3",
"5X c #DC79B8",
"6X c #E073C4",
"7X c #D981BE",
/* pixels */
"/ / / / / _ _ _ ~ O.W ' E / / / / / / / E R / E / / ~ E / / E E E / E $./ / / / / / / $.E / / E / / / / $.E / / / / / / / $X+X&.",
"/ E / / / .. .o.! @./ E / / / / / O./ / / E &./ &.$.E $./ &./ ' / / E &.E / / / / / / E / / / / / / $.E E / / / $.E E / / $X|.$.",
"/ / / E / >.;.;.3.^ _ $.O.E / / / / / E / &./ E E E E $.E P E E *./ / / E / E / $.E / / / O./ / / / E / / / $.E R / / $.E E &...",
"/ / E $.E l x v 1. .^ $.E / / / / / / / / / Y &.&.E $./ E W &.P / / / / O./ / / E / / / / / / / E / / / / $.R / $./ / E E E / &.",
"/ / / / E ;.l v >. .%.$.O.$.E / / / / / / E E @X'.+.O.&./ oX@X&./ / / / O./ / / / / / / E / / / $.R / / E $./ / E / / $./ $./ E ",
"$.E / / E :.;.c 3.U _ ' E E / / / / / / / / E &X@XE E E / XX#XE E %.$./ / / / / / / / E / $.E / / $./ / $.R / / / / / / / E ' E ",
"E $.$./ $.R %..._ ..#.;.2.<.;.o.U ' .._ E / / / / / / / / ] P *.( E &.~ ..E / _  .3.l ;.:.$./ / / E $./ / / E / / / / / / 2X2X' ",
"/ / E / E O.) U ~ E #.;.;.;.;.$.E _ E ) O./ / / / E / / E E &.O.O.R R E $./ $./  .>.x c <.E E / / / E / / / $.E / / / / / 4X3XT ",
"' E &.@X$XR / E _ $.$.>.;.c ,.%.$._ ../ E / / / / / / / / U ) ..^ 1.c ^ R R $.) I 1.v x l / / / / / E $./ / / / / E / / / ' E *.",
"*.E / @X$XO./ O.) E Y k k k v H E _ / / O./ / / / / E / / / ) ..#.3.,.%.R X.$.^ ! 1.1.:.:.$./ / / / / E E / / E / / / / E %.I ^ ",
"/ E E &.E / E E / E =.5.7.7.5.=.O./ E E / / / / / / / / / E *.E m _ R E ] ~ ' W @.^ o. ...$./ / / E / / $.E / / / / E / / .._ O.",
"$.~ &.E U %.O.O._ U U E o.$.^ ..U ^ ' O./ / / / $.E / E / E / ^ I @.+.E _ / W / ' ) / ) ~ $./ / E $./ / / / / / / / $.E / / E $.",
"$./ E / ' / E _ ' E +.E ..O./ $.W / ' ..E / $./ E / / / E %.$.$.$.) ) / E / / E $./ / _ E E / / / / / / / / / / $.E / E E O.~ E ",
"/ $.E $.E $.U / ~ E _ _ E E _ / E _ / E $./ E / / / E / $.U ] E ..$.E O._ #./ $./ E o.E E $./ $./ / / O./ / / / E / / $./ _ o.$.",
"E / / / / / / E $.E / E E XXXX.X@XE E $.$.E E / / / $.E $._ I $.$./ / #...O.#...E / O.>.<.<.;.^ $.E / / E / ~ _ $.o.O.*._ O.R $.",
"/ / / / / / / / / E / / / XX#X#X#XO.E / / / / E / Y A A B + # + + # - D D K ^ =./ / E ;.l v k E E E $.E E &.E U E I R ~ ' P O.R ",
"/ / E / / R / _ ~ $.E $.$.#X#X#X@X/ / / $.E / ^ S - r w 9.B.B.B.B.V.z.r r 1 : Y R ~ E 4.l :.>._ $...%.I / @XXXXX@X&.#.#.O.@X$X&.",
"/ / / E $./ $.$./ / R R R #X#X#X'.&./ E ~ $.Y C 1 0.!.Q.Q.Q.Q.!.Q.Q.Q.Q.Q.z.q 3 ! _ U 4.k ,.4.E R O.#.R ] #XXXXX#X_ 5.%. .$X@XE ",
"/ / / $./ O.R / / / $.$.$.U W E &.E / / ' ^ - e V.Q.Q.Q./.;X;X;X;X;X).Q.Q.Q.Q.0.6 V ..5.)  .T m U *.) +.Q &X{.=X@XG G ^ ..E W E ",
"E / / / / E O.E &.L E E / / / / / E / / J o B.Z.Q.(.).,X:XY.v.v.v.k.y.r.f.C.Z.;XP.p S #.#.#.` @.' ] ) $.U *X.X&X@XG G ! &.E E $.",
"/ E / / / #XoX.X@XO.&.$./ E / / E / / J 1 z.Q.Q./.:XR.F.v.g.g.g.g.g.g.g.t.r.G././.>X6 F T ;.,.E / E $./ *.$.E / $.! $.$.E &.R ~ ",
"/ $.E / / XXXX.X#XR O.E / $._ E / $.~ @ z.Q.!./.:XY.g.g.g.g.k.c.g.g.g.g.g.f.g c.<X1X_.& K 4.k _ / R %.L O.I *./ ^ O.E E ] / / / ",
"/ / / / E XXXX.X#XU E / $.^ ..' U Y # n.A.Z./.<XW.g.g.g.g.g.g.g.g.g.g.g.g.g.f.g `.^.(.<X5 S E &./ E / / / / E / $.E / E / E I *.",
"/ / E $.E #X#X.X@X&.$.$./ U +./ T C t m.L./.:XF.g.g.g.f.g.c.g.f.c.c.g.g.g.g.g.f.g c.:X).i.3 Y / / / / / / / $.E E $./ / / %.5.I ",
"E / / / / E O.E &.L E R E o.E E C > g.m.H.:XY.t.t.g.s.g j.P.F.h P.P.g.g.k.g.g.g.f.r.Y.Q.Z.q.B ^ / E / / / / $.E / / $.E /  .I O.",
"$.E / / / E / E $.$.$.$.$.E E Y - u m.M.R.F.t.t.t.j y.L.P.^.P.U.(.(.P.J.g.g.g.g.g.f.g n.!.V.> J / $.E / / / E / / / E / / ( ~ $.",
"/ / / E E $.$._ / / E R R E L S 7 h.m.U.G.t.t.t.t.a S.^.^.^.^./.^.^./.^.n.g.g.g.g.g.s.g.Z.Q.0.3 / / / / / / / / / E / / E 3X4XE ",
"/ / E $.$.^ R / / / / / $.E $.V 0 m.m.R.f.t.t.t.t.j a d /.P.n.n.v.d.P.^.A.g.g.g.g.f.g.g B.Z.u.3 E $./ E $.E / / E $./ / E 2X4X' ",
"/ $./ / / $./ / / / ' / / L H 4 i m.N.R.s.s.t.t.t.t.f a ^.P.g.g.g.r.y.^.A.g.g.g.h.g.g.r.c.Q.z.: J / $.E / / / / / E / / / ' U / ",
"/ E / E / / / R / R / E E R H $ g.m.I.D.t.t.t.t.t.t.f a ^.P.g.g.f.r.D./.J.c.g.g.g.g.g.f.s.Z.Z., V E / / / / / E / / / / / _ _ O.",
"E $.R / E ' E O.O._ ' / E 8.8.$ g.m.I.f.t.t.t.t.t.t.f a ^.~.J.b.n.D.P.^.n.g.g.c.g.g.g.g.s.Q.Q., V / $.R / ]  .6X7XR $.o.{ $.E $.",
"/ / $./ / ^ ^ %.) O.E / $.=.8.$ j.m.I.f.t.t.t.t.t.t.f a /././.^.^.^.(.L.g.g.g.g.g.g.g.g.s.Q.Q., V / E $.E | ) 5X5X] &.^ 6.$.$.$.",
"/ / E / ! ;.x z 1.O.] / E ..R X g.m.T.p.t.t.t.t.t.t.f a /.(.P.P.P.L.^.^.h.g.g.g.g.g.g.g.s.Q.Q., N $.$./ $.6...E o.R ( | U E E E ",
"/ / / / E <.<.l >..._ / $.I o.X g.m.T.k.t.t.t.t.t.t.f a ^.P.g.g.g.r.D.P.P.n.g.g.g.g.g.f.s.Q.Q., V / / R O.W $.| | o.O.$.$.&./ / ",
"/ E / / O.l ;.l :.../ / O.&.$.= e.m.U.T.f.t.t.t.t.t.f a ^.P.c.g.g.f.h G.^.b.g.g.g.g.g.r.g.Q.V.5 6./ / $.~ ^ ] ' [ 6.^ / U E / / ",
"#./ / / / <.c c ,.E ' E E m O.n 0 m.m.R.t.t.t.t.t.t.f a ^.~.g.g.g.f.h F.^.b.g.g.g.g.g.g A.Z.u.F %X/ / $./ ' ' | | X.m $./ W &.T ",
"E / / / / ^ ^ #.) E E / #.7._ V 9 h.c.T.G.t.t.t.t.d a a.^.~.b.b.G.D.F.^.~.n.g.g.g.g.s.s.Z.Q.0.3 $./ / R / E O.~ ' _ ] OXOXoX@X' ",
"/ / $.E / ' E O.O./ ' ' o.R / M % e.m.N.E.j.t.s.t.8 d ^./.^.^.^.^.~.~.~.c.f.g.g.g.g.s.c.Q.B.q S $./ R *.E o._ / } W /  X-XXX#XE ",
"E $.E / E / / $./ / / / E $./ $.4 7 m.m.L.R.D.t.t.s a F.G.^.P.F.(.~.A.v.t.t.g.g.g.g g.Q.Q.0.- $.R / / / / E $.U W &X#XE / / +.@X",
"E / / $./ / E E / / / / / / / / ! 4 u m.b.U.R.p.t.t.s 8 d ^.F.h ^.P.f.t.t.t.p.f.g s.Z.Q.x.= K &./ &./ / ~ &.R +.U '.@X/ / E P oX",
"/ ^ / / E / / / / / / E $.^ $.E / J & n.N.c.P.T.D.s.t.t.t.f.t.t.p.p.t.t.t.t.t.g g.Z.Q.Q.w V E E E / E $./ / E $.W &X=XU E E U =X",
"&.E E $.$./ / E E / / / / O.E / $.E V 9 g.C.Z.I.T.j.t.t.t.t.t.t.t.t.t.t.t.r.g s.Z.Z.Z.e 3 &./ ' _ / E $.E / / $./ [.[.E ' +.+..X",
"|.&.E E E E / / E $./ / / / / / E / / C q V.m.m.U.E.D.p.t.t.t.t.t.t.t.t.s.g s.N.A.A.q.B W P E / &.$.E / R $.R / _ U &.@X@X@X'.&.",
"@X$./ $.$./ / / / / / E / E / / / / / / S O m.m.m.H.T.T.E.j.t.t.t.t.g f g f.m.m.C.e B ' W W $.U ~ / / O.$./ E / E E ' #X#X#X@XU ",
"@XW E / #./ / / / / / / / / / / / E / / / A * e.h.m.m.N.U.T.E.I.I.E.H.h.h.m.v.a.0 B ~ XXoX.X@X&./ / _ E O.E &.E R *.E O.O.E &.I ",
"@XW $./ / / / / / E E $./ / / / / / / / / / D = 9 g.m.m.m.m.m.m.M.c.m.c.m.c.y @   &.U &X%XXX#XE R &./ E E E / / R $.$./ / ' E E ",
"%XE &.! +./ / / / $./ / E $./ / E $.$.R $.$.O.! : * u 9.e.h.m.N.m.c.p.y u < = J %.T W *X#X@X$X..E $./ E ' &.I *X%XE / &._ o.[ o.",
"oXE R &._ / / / / E / / E $.E $.$.E E $.E R E $.W }.F F 6 * * * * * > ; ; A Y / / / ' @X.X#X.XO.R / $./ E P &.@X.X&.R R E O.%.H ",
"$.,.c / R / / E / / / E $.$.$.R R #.$./ $./ / E R &.E T H N V .   N S ( ..E / E / ~ E &.+.+.E $.E R $./ / #X@XW E &X#X' / R .._ ",
"$.3.,._ E / E $./ / / / E E / $./ / $.R $./ E / / / $.$.$.E R ,.3.%...) E E $.E $.&.E E L U E E $.$.$.E ' @X@X+.T #X[.E / O.} / ",
"..Y Y &.6.O./ E / $.E / $.$.I %X@X/ / / E $./ / $.~ / / R _ =.^ ^ O.E _ O.E $.E / $./ $.&.#X$XE R O./ R / W &.*X@X&.W E E ] $.R ",
"E X.X.E / / / $./ E / / / $.E %X@X$.$./ / / E E $./ / #._ E E ..+...E ] / / $./ / E / R E .X%XE / _ $.R / #.P #X@XU ' &./ ( ' E ",
"~ _ ) R E / / E / E E / / E E $./ / E E / $./ $.E $.E / E +.&.) 5._ ' %.#./ _ E $./ *./ $.U &.E $.#./ R / %.E *.E E E E ' $.} ~ ",
"..#...O._ / / / / / $./ / $./ R $./ E *.E R / $.R $.E E / ~ O.I O.E $.R  .$.O.^ / R $.E E $.E / _ / $.E / / / E E $.$./ #._ ..E ",
"#./ / / E / E / / / / / $.3.z 5.$.R / E E / $.R / $.R *./ / / / / / / / / / / / / / / / E / $./ E E / / / / / / E / / / / / / / ",
"/ / / / / / / / E / / E / x b ^ E E &./ E / R $.&.R E / R / / / / / / / / / E / / E / / / / E / E $./ / / E / / / / / / / / / / ",
"/ / $.E / / / E $.^ $./ E 5.! $.E E ' / / $./ %X@X$.$./ $./ / E / / E / / / / E / / E E / / / / / / / E / / / / / / / / / $./ E ",
"/ / E / / / / / / O.E / / $.$. .E / / $.$./ / %X+X$./ E $./ / $./ / $.E / / E $./ / $./ / / E / / / / $.E / / E E / / E / E / / ",
"/ $./ / E $./ / / E / / E E O.E E &./ $./ / R &.#./ / E R / / E / / / / E $./ / E / / / / ^ O./ E $./ E $.R E $./ / / / E / / / ",
"/ E / / / E / / / / / / E / %./ %.$./ E E $./ R R $.$.$.$./ / / E / / / / / / / / $.E / E $./ / $.R / / / $./ / / / E $./ $.E / ",
"E $.E / / / / / / / / / / E / E $.R $.$.$.E $.$./ $./ E E / / / E / / E E $.R $./ / / / / / $.E / / E $.E $.R / $.E / / / / E $.",
"/ / / / / / / E / E / / / E E / $.R $.R _ / E $./ E / / / $.$.E $./ / $./ / / / / $.E / / / E / / / / E / / $./ R / / / / / E / ",
"E &.E  ._ / / $.E / E E E / / / E $./ / E E / / E / / / / E E $./ / $.R E E E / ~ $.$.E O./ / / $.E / / / / $.E $./ E / / / / / ",
"%.` ^ &.E &./ / / / E / E / / / / / / E $./ / / / / / / E $.$.$._ R ~ O.&.$.$.R / E E $.R / / $.R / / / / / E / / / $.E / E $./ "
};
