/* XPM */
static char *collectible[] = {
/* columns rows colors chars-per-pixel */
"64 64 204 2 ",
"   c #030202",
".  c #01030A",
"X  c #0C0B0A",
"o  c #0A0806",
"O  c #140B05",
"+  c #1A0C02",
"@  c #120E0C",
"#  c #0E100E",
"$  c #0E0F12",
"%  c #141415",
"&  c #1A1B17",
"*  c #171B1A",
"=  c #191C1B",
"-  c #151817",
";  c #0F0F12",
":  c #211D1C",
">  c #1E221E",
",  c #22211D",
"<  c #2B221C",
"1  c #22281F",
"2  c #28391E",
"3  c #181C22",
"4  c #211F22",
"5  c #1E2221",
"6  c #222423",
"7  c #292926",
"8  c #262A29",
"9  c #2C2D2C",
"0  c #292824",
"q  c #302E2D",
"w  c #2E302E",
"e  c #283A21",
"r  c #31302E",
"t  c #2E2E30",
"y  c #292C3B",
"u  c #322F31",
"i  c #2E3130",
"p  c #343332",
"a  c #393635",
"s  c #3A3936",
"d  c #3C3C3A",
"f  c #373938",
"g  c #413D3C",
"h  c #2F4421",
"j  c #39492D",
"k  c #33402B",
"l  c #385726",
"z  c #3D423F",
"x  c #3D6425",
"c  c #376628",
"v  c #336A3A",
"b  c #327736",
"n  c #43413F",
"m  c #446C29",
"M  c #497927",
"N  c #49762A",
"B  c #496630",
"V  c #292942",
"C  c #313554",
"Z  c #35355D",
"A  c #2F314E",
"S  c #3C3C6C",
"D  c #3A3A67",
"F  c #3E3E73",
"G  c #3F3D7B",
"H  c #413F6D",
"J  c #413F74",
"K  c #433E7C",
"L  c #3E4140",
"P  c #3F4072",
"I  c #3F4078",
"U  c #444444",
"Y  c #494644",
"T  c #4C4946",
"R  c #4C4B4A",
"E  c #444849",
"W  c #514D4B",
"Q  c #4F514F",
"!  c #52514E",
"~  c #4D4E51",
"^  c #464C59",
"/  c #524D51",
"(  c #4E5152",
")  c #465A53",
"_  c #545453",
"`  c #5A5555",
"'  c #565856",
"]  c #585857",
"[  c #575959",
"{  c #5B5C5C",
"}  c #5A575A",
"|  c #605B5C",
" . c #4B645D",
".. c #5E605E",
"X. c #577854",
"o. c #506F4F",
"O. c #60625E",
"+. c #42416C",
"@. c #5C5E61",
"#. c #404074",
"$. c #43417A",
"%. c #485A62",
"&. c #615F62",
"*. c #4B6560",
"=. c #5E6263",
"-. c #5E6168",
";. c #616364",
":. c #626469",
">. c #696669",
",. c #6C696C",
"<. c #656868",
"1. c #716B6F",
"2. c #726D71",
"3. c #7A7578",
"4. c #817A7E",
"5. c #80777C",
"6. c #368E3D",
"7. c #39933C",
"8. c #4D842A",
"9. c #4C8421",
"0. c #528C2A",
"q. c #4E9629",
"w. c #56952A",
"e. c #59992B",
"r. c #569929",
"t. c #459A3B",
"y. c #509232",
"u. c #609837",
"i. c #5DA22D",
"p. c #5DAB2A",
"a. c #5EB32F",
"s. c #59A332",
"d. c #5EB333",
"f. c #5EB53B",
"g. c #4AA139",
"h. c #62AC2E",
"j. c #60A32E",
"k. c #69BE25",
"l. c #65BC2D",
"z. c #6ABD2E",
"x. c #64B128",
"c. c #63A532",
"v. c #65AE35",
"b. c #62A23C",
"n. c #64A93B",
"m. c #6BAC37",
"M. c #62B533",
"N. c #65B932",
"B. c #6BBE31",
"V. c #66B138",
"C. c #69B33B",
"Z. c #6CBB3A",
"A. c #6AB736",
"S. c #72BC37",
"D. c #71B437",
"F. c #65C22A",
"G. c #6BC12D",
"H. c #6AC125",
"J. c #71C12F",
"K. c #6DC032",
"L. c #6DC239",
"P. c #73C434",
"I. c #76C835",
"U. c #74C539",
"Y. c #76C939",
"T. c #7AC938",
"R. c #378D42",
"E. c #3C9341",
"W. c #359041",
"Q. c #459941",
"!. c #459841",
"~. c #568549",
"^. c #609941",
"/. c #64A846",
"(. c #6BB444",
"). c #78BB45",
"_. c #6AB051",
"`. c #86D544",
"'. c #8BDB46",
"]. c #8CDC4A",
"[. c #88D746",
"{. c #90DE4B",
"}. c #96DD53",
"|. c #94E24C",
" X c #99E64E",
".X c #92E344",
"XX c #99E653",
"oX c #93E452",
"OX c #8AE14B",
"+X c #5D7EB9",
"@X c #5D7DC5",
"#X c #887D83",
"$X c #5C82B7",
"%X c #5D80C6",
"&X c #8E8489",
"*X c #8E8386",
"=X c #938287",
"-X c #928489",
";X c #92A0B7",
":X c #A1A5BA",
">X c #8D95A3",
",X c #AEB7D3",
"<X c #C2CBDE",
"1X c #CEDCF8",
/* pixels */
"B.B.B.B.B.Z.Z.Z.B.z.z.B.z.B.B.B.B.B.B.B.z.z.B.z.B.B.A.z.B.B.z.z.z.z.z.B.z.B.B.B.B.B.K.K.G.B.B.z.B.B.B.B.K.z.B.B.B.B.B.B.K.oXoXK.",
"B.z.B.B.B.l.F.l.B.G.K.z.z.B.B.B.B.G.B.B.z.z.B.B.K.K.z.z.z.S.z.S.B.z.z.P.z.B.B.B.B.B.B.l.B.B.B.B.B.K.K.z.z.B.B.K.K.l.l.B.K.oXOXK.",
"B.B.B.z.N.Q.W.7.!.d.Z.K.J.z.B.B.B.B.B.z.K.B.K.z.z.z.z.P.z.k.z.z.U.B.B.B.z.z.z.B.B.B.B.B.B.G.B.B.B.B.z.B.B.B.B.z.z.z.B.K.z.K.P.H.",
"B.B.z.K.N.7.7.6.t.a.N.K.G.z.B.B.B.B.B.B.B.B.z.P.P.z.K.z.z.B.P.k.B.B.B.B.G.B.B.B.G.z.B.K.B.B.B.B.z.z.B.B.K.K.l.z.K.B.B.z.z.B.K.K.",
"B.B.B.B.N.7.6.6.t.a.L.L.K.z.B.z.z.B.B.K.B.z.P.'.'.P.G.G.P.{.{.P.B.B.B.B.z.B.B.B.G.N.K.l.N.L.B.B.B.z.N.G.z.K.B.B.B.B.B.z.B.G.B.z.",
"K.z.B.B.M.Q.Q.7.Q.M.N.B.N.N.N.B.z.h.e.i.i.i.c.).).j.i.z.G.{.{.z.B.K.K.z.z.i.i.i.i.s.i.i.h.N.B.F.B.K.K.B.B.z.z.B.B.B.B.B.Z.(.(.z.",
"z.K.B.B.B.M.N.N.N.B.N.Q.E.E.g.d.z.m * * * * = * > = = j.B.U.S.P.Z.B.B.A.i.* & & > - - > l d.K.K.B.B.K.B.B.N.z.K.B.B.B.B.Z.+X+XB.",
"B.B.K.P.P.z.B.l.B.z.d.!.W.R.E.s.e.l 7 8 8 8 8 8 9 * = 0.w.z.B.J.z.M.a.r.0.t 8 8 8 i 5 8 j y.r.r.h.B.z.z.B.K.K.z.z.B.B.B.(.$X$XA.",
"S.z.P.'.].J.B.B.A.K.d.!.R.6.t.c = p W ` =.=.=.=.=.8 * = & x.Z.H.N.Q.t.= 6 =.=...=.=.=.=.L > * * m B.z.B.B.B.B.B.B.z.B.B.B._._.B.",
"Z.z.B.'.].J.z.z.B.B.M.g.t.t.t.c = a W _ ..@.:.=.=.f w 7 7 8.y.k.l.v v 7 i ..=.=.<.=.=.=.E i i i x w.h.z.z.z.B.B.B.B.B.B.B.P.l.B.",
"K.z.B.T.I.G.z.z.N.z.B.M.f.f.N.x & p R } =.=.-.@.=.=.=.! T = = z.k.4 = T ( =.=.=.=.=.=.=.=.=.=.=.A , M B.B.B.B.B.B.z.z.B.B.z.B.z.",
"B.z.G.z.z.K.z.B.B.z.G.B.K.K.B.q.l j s R ] =.=.=.=.=.=.Q R = > M 9.6 6 _ [ ;.=.=.=.=.=.=.{ } [ [ d & M B.B.B.B.B.B.B.K.z.z.z.z.K.",
"K.B.B.B.z.z.z.S.B.z.B.z.F.z.B.z.B.m - d R [ ..=.:.....! T 5 = = = 9 t :.{ ;.=.=.=.<.;.=.} R R R r = M G.B.B.B.B.B.B.K.z.z.G.z.B.",
"B.B.z.B.S.z.z.z.B.z.B.B.B.P.Y.T.U.x * 8 s Q [ ' { [ [ U d > * * & i p } } ;.=.=.=.=.=.} R a a a j x e.G.B.B.B.B.z.z.G.J.Z.K.l.K.",
"z.P.B.B.B.B.B.B.B.z.B.B.P.`.].].`.m = = & s T R R T T p p = * > * p p R R -.=.=.=.;.} R f & * * m B.B.B.B.B.B.B.K.F.z.Z.Z.z.G.B.",
"z.B.z.B.B.B.B.B.B.z.z.z.I.].XXXX].N > = = r d T R n d w w p w r q 9 t d U =.{ [ ( z d p 8 = e c r.z.B.z.B.P.T.I.P.z.z.B.G.P.I.B.",
"B.B.z.B.B.z.B.Z.B.z.z.B.T.].XXXX].B 3 & = 7 9 U R p q r q Y T T T r r r a O.{ R d * = * * * l f.z.H.K.l.S.`.'.'.'.P.B.Z.G.'.].K.",
"B.B.B.B.K.z.K.B.B.B.B.z.P.`.{.m.N h = t s d g g g g g g g _ ] [ ] g d z U =.=._ R 8 8 5 5 * e l w.z.B.z.T.{. X X{.S.A.L.G.'.].G.",
"B.B.B.B.B.G.z.z.B.z.z.B.K.P.T.M = = = f ~ T W u w U R R W ..=.O.O.R R R Q =.:.=.( p i i 8 > * & m Z.Z.G.I.{.XXXX].M.p.N.G.P.I.l.",
"z.B.B.B.K.P.I.I.I.z.z.B.z.w.l j s L U / } [ } / ~ [ } [ ] =.;.=.;.[ ] ] } =.=.=.@.~ ~ ~ ~ L z f j l w.K.U.`.].].`.M.p.N.G.z.z.K.",
"B.B.z.B.K.'.].].`.P.z.z.B.M & p R [ ;.;.=.;.=.=.=.=.=.=.=.=.=.=.;.;.;.O.;.;.=.=.=.=.=.=.;...[ R r = N B.K.P.T.Y.P.N.N.B.z.K.z.A.",
"B.B.z.B.K.|. X X{.P.z.e.l j d R [ { =.@.@.@.=.=.=.;.=.{ -.;.=.=.=.=.=.=.@.;.;.;.=.=.=.:.=...{ [ T z j l e.B.K.B.B.z.z.z.S.z.z.K.",
"B.K.B.K.P.|. X X{.P.z.8.& q R ` ..=.=.=.=.=.=.;.;.O.;.=.=.=.=.=.=.-.=.@.=.;.;.=.=.=.=.=.=...=..._ R w = 8.J.B.B.B.B.z.z.B.B.z.K.",
"z.B.z.z.K.'.].'.[.c.h 2 = 0 a R ;.;.=.=.=.;.O.=.:.! ! ` ! =.;.=.@.;.@._ _ ! _ ;.;.=.;.@.;...{ Q U p 9 9 e h e.G.z.K.K.B.B.G.Z.z.",
"z.B.B.B.K.K.P.P.P.0.= = & 6 q U { ;.=.=.:.=.;.=.:.( T / T { =.-.=.:.@.R R T / ;.@.=.=.=.;.=.' T d p 9 q , & q.z.B.B.K.z.B.F.l.H.",
"K.z.B.z.B.z.G.i.2 e 9 p U U T _ ;.;.;.=.@.-.:.=.=.{ { @.O.=.;.=.@.=.=.{ | @.@.=.=.:.=.-.=.......} _ W E U z p e e.B.z.z.Z._._.K.",
"B.B.B.z.B.K.Z.e.= 6 u d R T T _ =.=.=.-.;.@.=.=.<.;...:...=.=.-.=.=.=.=.;.-.=.O.;.&.=.=.=.=...<.;.=._ R T E 7 - r.z.B.B.C.+X@Xz.",
"B.B.z.K.K.B.l.w.* 6 T / { { { =.=.=.=.=.=.8 ; @ # X ; U _ =.=.-.@.=.@.R U $ # # X ; t ;.=.=.=.=.@.;.=.{ ..{ w = e.K.B.B.C.+X@XB.",
"B.K.B.B.K.K.B.r.* 7 T _ ;.{ ;.=.=.=.=.=.=.6       . . U R @.=.=.=.:.<.E n       .   6 ;...;.;.=.=.;.=.;.=.=.9 * e.G.B.K.K.(.A.K.",
"B.z.B.z.B.i.1 , w s T _ =.@.=.=.=.=.=.=.=.5   : 0 :X<X4 . @.=.-.=.@._ o X , E <X>X  4 @.=.=.=.=.;.=.=.=.=...z 8 0 > i.K.B.Z.Z.F.",
"z.K.l.z.z.j.= 6 9 a T _ ;.=.=.=.=.=.=.=.;.6   & 4 ,X1X4   [ @.-.=.-.{   o < ^ 1X;X. 6 =.-.=.=.=.=...=.=...=.z w > * j.F.H.K.z.K.",
"B.B.K.B.B.s.= = i a R R T _ =.=.=.=.=...;.,   = 0 0 0 o   @.@.=.=.=.}   o 0 : 0 : . 5 =.=.=.=.=.[ R d 9 z R p i 5 * j.K.(.K.K.K.",
"B.B.z.B.d.6.* 3 9 a / W R [ ..=.=.=.=...| =   : < < < o   =.=.=.=.=.}     < < < :   6 @.=.@.=.=.) R d q n T p w = 5 s.F.z.z.z.z.",
"B.B.B.B.N.7.6.b = : q g ..;.;.=.=.=.=._ R *   o + + O     [ ..=.=.<.{     + + + O   & T [ =.=.=.=.O._ T a r , > q.F.K.K.K.P.z.z.",
"B.z.B.B.M.7.R.b = 6 p Y O.....=.=.=.=._ T =   O + + +     } ..<...{ [     + + + O   : W _ { =.=.=.=._ R s r , = u.L.N.B.k.z.B.B.",
"K.B.B.B.M.t.7.b = 7 R T T ' <.=.=.=.;._ T &   O + + +     U R ..[ _ T     + + + +   % / ` ;.=.=._ T } ;.' E 7 = r.H.H.K.P.B.P.z.",
"z.B.B.B.B.M.s.8.4 8 R Y W ' ..=.=.<.>.| | : o O O + @ o o U R ;.{ / L o o O O O o X 4 } | >.;.=.[ ( { =._ R w 6 0.c.P.'..X|.{.S.",
"B.B.K.z.B.i.= = t a W } O.....=.;.3.&X=X=XW 9 @       0 r T R ..{ R W q 9       @ u / #X#X&X3.;.=.=.;.=.=.{ Q T 6 & v.'.}.{.|.J.",
"z.K.z.B.z.i.= 5 a g / ` ..=.=.;.,.3.&X-X-X} U 4 % - % a d R Q ..;./ R s p % % % 4 U | -X=X-X5.>.:.;.&.=.=..._ Q 7 = S.T.T.P.I.{.",
"z.B.B.K.B.i.= 8 T ! ;.@.=.=...3.&X&X-X=X-X-X&X1.@.=.=.=.=.=.;.=.;.;.=.;.;.;.;.&.1.-X-X=X=X-X=X=X3.O.;...=.=.=.;.8 & ).P.A.z.k. X",
"B.N.B.K.z.i.* 6 W ! ....=...{ ,.#X*X-X-X=X#X#X>.=.-.:.=.=.=.=.=.:.=.=.=.=.=.=.-.<.#X#X&X-X=X#X5.2.;.{ } ..=...[ 9 = ).P.z.z.k.XX",
"Y.G.z.B.B.i.= 7 W W T ! =.[ T [ &.3.-X-X-X1.&.=.=.=.=.=.;.=.=.=.=.;.-.-.=.=.=.=.=.:.2.&X-X*X3.;.;.;._ R [ =._ R 8 = S.P.T.T.T.{.",
"[.K.z.z.B.i.* 6 T n n n { ' ! [ &.,.4.4.4.,.;.( E ....=.=.~ E ( ( ~ ~ =.=.=.=.L ( =.<.#X4.4.2.;.=.=.} _ _ [ T n 6 * m.].].{.'.T.",
"oXP.B.K.K.i.= 6 T z & 9 R _ ..=.;.;.;.=.;.=.@.t = ( ;.=.=.5 > w t * 5 =.:.=.) * i =.=.&.&.;.=.=.=.=.;.;._ E a r 4 = c.].].{.'.k.",
"|.P.B.B.K.h.l l a p r s R ! ] { =.=.@.@.@.=.=.d 9 n U E U r q g f u u U E U z 9 d [ { :.&.;.=.=.=.=.;.=.R z d s , & j.T.T.T.T.z.",
"oXJ.B.z.B.B.B.e.& 7 T W ! T T _ @.;.:.;.;.;.;./ T 7 = = > T n T Y R R = * = 0 T T R ! ;.=.=.=.=.=...=.=.z w n T 6 * i.B.A.z.z.l.",
"oXB.K.B.B.B.B.e.= 7 g n T ! _ } =.;.;.{ ] ..;./ W r p w w T Y W W T Y q i w r ! R T _ ;...[ [ O.{ ] =.=.T f a p B m h.B.B.G.S.z.",
"].M.M.B.Z.B.B.e.= > 9 s W ! ;.=.@.:.;._ R } { ! T W W T T T Y W W Y W W T R T T T T ! ;._ R ' O.] R { =._ T 7 = m.T.U.z.B.z.z.l.",
"Y.!.t.Z.B.B.B.h.m l 0 7 d T _ [ [ ~ E R R T U T R n g T T T T g g T W T W W n g n R W ` T d T _ _ W R E a p B M D.].[.S.G.z.H.B.",
"K.!.t.B.B.z.z.B.B.w.= 6 t s T R T d u d T d w U T p q T R R W q r T T ! W W n q a R R R n r d R R Y s u > = b.T.T.'.`.B.z.z.F.B.",
"z.d.M.B.Z.K.B.z.B.h.M l , 9 s d d r 6 p d d d d d g g g d d d g g R T s s T T g g d d d d g s w f d p u 6 * u.'.'.T.P.z.z.Z.G.z.",
"z.G.H.A.B.B.B.B.B.z.z.8.= > r r 9 6 * 7 9 U R a 9 U W u u q 9 R R T T q r W R R U r 9 q d R p & 6 u u t 6 = 0.[.`.P.z.P.B.Z.z.z.",
"z.B.K.l.z.K.B.B.B.n.o.) C y 5 5 4 3 = 7 9 p s r p a d t u 9 9 s s s s r r s d s p r w 9 a a 9 > 4 6 6 5 y C ) X.C.z.z.z.B.B.H.B.",
"z.B.l.G.B.B.B.G.B.^.S F P A * * * * = 7 u r q w t 9 i i u i 9 p w r r 9 r w 9 w r r i w u 7 6 * * = = & C J F +.b.B.B.B.K.Z.H.z.",
"G.B.z.z.B.n.*. . .%.F F F D Z C C C Z y 6 > 5 5 5 5 5 5 5 5 5 5 5 5 6 = 6 5 5 5 5 5 5 5 > 6 y Z Z C C C D F G F %. . .*.M.B.B.B.",
"z.B.K.B.B.n.F P S F F I I P P P F F H V 3 & = = * = * = * = & * = = = = * = = * = * = = * = V S F F #.$.#.F J F #.H J F V.K.B.B.",
"z.K.K.z.B.N.^.b./.X.D J J H S F K J F D Z Z Z Z Z Z Z Z Z Z Z Z Z Z Z D Z Z Z Z Z Z Z Z Z Z D S F F F G F F J D ~.b.^.b.Z.K.B.z.",
"K.K.N.z.B.K.K.B.G.u.+.J J J H F J F S #.#.F #.#.#.#.#.#.#.#.#.J #.P #.#.F P #.#.#.#.#.#.G K F P J J K F K J H +.b.B.z.z.G.z.B.B.",
"B.K.B.B.z.K.B.B.G.N.n.n.n.n.n.n.n.X.J F S S F J F F J F F F F F P F F F F F F F F F F J P +.o.n.n.n.n.n.n.n.n.n.A.B.B.z.z.B.z.B.",
"B.l.B.B.B.z.B.B.B.B.B.B.z.B.K.K.K.X.K K $.$.#.J #.#.#.J #.#.J J #.J #.J #.J #.#.J J J J J F X.z.B.B.B.B.B.B.B.B.z.B.z.P.B.K.z.B.",
"z.K.z.B.B.K.z.B.B.B.B.B.B.z.z.B.B.N.V.V.).(.V.V.V.V.V.v.v.V.V.V.v.V.V.v.V.V.v.V.V.V.V.V.v.V.N.B.B.B.z.B.B.G.z.B.K.l.B.B.B.B.z.K.",
"B.B.K.z.B.B.B.z.B.z.B.B.B.z.z.B.z.z.B.B.B.B.G.K.B.B.B.B.B.K.K.z.K.B.B.B.z.B.B.B.B.G.z.z.B.B.B.B.B.B.B.z.B.B.B.B.z.B.B.B.B.B.z.B.",
"z.L.z.F.Z.B.B.B.z.z.z.z.z.B.B.B.B.K.K.B.A.z.B.z.z.B.B.B.B.z.z.K.B.B.G.z.z.z.z.z.B.Z.K.z.z.K.B.B.B.z.B.B.B.K.K.B.B.B.z.B.B.B.B.B.",
"L.V.B.K.B.K.B.B.B.B.z.B.z.z.B.B.B.B.z.z.K.z.B.B.B.B.B.B.z.K.K.K.Z.z.A.z.P.K.B.z.z.z.z.B.z.z.K.K.l.B.B.B.B.B.l.z.B.K.K.z.B.z.K.B."
};