/* XPM */
static char *exit[] = {
/* columns rows colors chars-per-pixel */
"64 64 225 2 ",
"   c #1A120E",
".  c #1D1512",
"X  c #13111C",
"o  c #1A1716",
"O  c #090504",
"+  c #261A14",
"@  c #2D1D16",
"#  c #2B2019",
"$  c #24251F",
"%  c #3D2B1B",
"&  c #342719",
"*  c #2A3915",
"=  c #333F17",
"-  c #343F18",
";  c #37371A",
":  c #1A1929",
">  c #1A1827",
",  c #2A1B2A",
"<  c #291E35",
"1  c #292127",
"2  c #2B2628",
"3  c #35332D",
"4  c #222035",
"5  c #292435",
"6  c #2F2439",
"7  c #3D2D36",
"8  c #3A2738",
"9  c #373633",
"0  c #1F250D",
"q  c #442C1E",
"w  c #44331A",
"e  c #48341B",
"r  c #432E25",
"t  c #492C21",
"y  c #473620",
"u  c #4B3321",
"i  c #4F3229",
"p  c #493A20",
"a  c #533A24",
"s  c #52332A",
"d  c #59342B",
"f  c #573B28",
"g  c #583728",
"h  c #4B3538",
"j  c #593B39",
"k  c #573A35",
"l  c #653C2E",
"z  c #384519",
"x  c #39571A",
"c  c #2A4814",
"v  c #37601A",
"b  c #3D641B",
"n  c #424A1D",
"m  c #45571E",
"M  c #45771E",
"N  c #5C4524",
"B  c #5E4229",
"V  c #574725",
"C  c #495321",
"Z  c #555B26",
"A  c #514533",
"S  c #63422C",
"D  c #63492B",
"F  c #6A492B",
"G  c #635322",
"H  c #6C5027",
"J  c #72542E",
"K  c #7A5B2F",
"L  c #784B34",
"P  c #6D5235",
"I  c #745331",
"U  c #7C5B33",
"Y  c #765936",
"T  c #684A30",
"R  c #467822",
"E  c #596628",
"W  c #7A6234",
"Q  c #3C2247",
"!  c #4C2C46",
"~  c #4D2D55",
"^  c #64396D",
"/  c #59326A",
"(  c #464A42",
")  c #50544C",
"_  c #5C6459",
"`  c #62655D",
"'  c #64695F",
"]  c #676B62",
"[  c #6B7167",
"{  c #864F3A",
"}  c #825B36",
"|  c #8E563B",
" . c #885F38",
".. c #845737",
"X. c #90573C",
"o. c #905E3E",
"O. c #8C6A36",
"+. c #8E653B",
"@. c #8C6B3C",
"#. c #846436",
"$. c #946E3B",
"%. c #96693D",
"&. c #94713C",
"*. c #9D7B3C",
"=. c #9A733C",
"-. c #87703D",
";. c #A17B3D",
":. c #986B41",
">. c #9B7A41",
",. c #987341",
"<. c #A27444",
"1. c #A37D43",
"2. c #AA7C45",
"3. c #A97F54",
"4. c #96647C",
"5. c #368E3F",
"6. c #3B933A",
"7. c #4F8D25",
"8. c #508F25",
"9. c #528E29",
"0. c #529025",
"q. c #579A27",
"w. c #439A3E",
"e. c #479A3B",
"r. c #5B8832",
"t. c #5DA729",
"y. c #5EB431",
"u. c #58AC33",
"i. c #6BBE2E",
"p. c #64B72D",
"a. c #72AC3E",
"s. c #62B533",
"d. c #65B933",
"f. c #6BBE31",
"g. c #6BBB3B",
"h. c #65B73A",
"j. c #73BB39",
"k. c #6FB332",
"l. c #4A921F",
"z. c #6BC12D",
"x. c #66C32A",
"c. c #70C22E",
"v. c #6DC032",
"b. c #6BC037",
"n. c #73C434",
"m. c #77C838",
"M. c #3D9342",
"N. c #369141",
"B. c #368D43",
"V. c #439743",
"C. c #6BB346",
"Z. c #6FB04A",
"A. c #A7863F",
"S. c #AC8145",
"D. c #AC8B42",
"F. c #A98646",
"G. c #B88C47",
"H. c #BA8C4B",
"J. c #B48648",
"K. c #B29143",
"L. c #B89742",
"P. c #BC9B43",
"I. c #BB9A4A",
"U. c #B89448",
"Y. c #B08B54",
"T. c #BB9553",
"R. c #A68452",
"E. c #B1A06A",
"W. c #C1984C",
"Q. c #C19151",
"!. c #CC9C51",
"~. c #C6995D",
"^. c #C5A443",
"/. c #C9A846",
"(. c #CCAB4A",
"). c #C7A549",
"_. c #D2B24F",
"`. c #C5A553",
"'. c #CBAB55",
"]. c #DEAC5D",
"[. c #D5A556",
"{. c #D3B251",
"}. c #D9B955",
"|. c #DDBD5A",
" X c #D3B35B",
".X c #E0AD5D",
"XX c #E0BF5A",
"oX c #C99C63",
"OX c #CEA36D",
"+X c #CAAC65",
"@X c #D0A46E",
"#X c #D4B569",
"$X c #E7B76A",
"%X c #E3B865",
"&X c #EBBC74",
"*X c #88DA46",
"=X c #8CDC4A",
"-X c #87D847",
";X c #90DE4E",
":X c #93E14D",
">X c #97E44B",
",X c #96E251",
"<X c #8CE14D",
"1X c #DFC05B",
"2X c #E5C45E",
"3X c #E6C562",
"4X c #ECCC65",
"5X c #EECC6B",
"6X c #F0CF68",
"7X c #F4D36B",
"8X c #FAD96F",
"9X c #EFC079",
"0X c #E0C673",
"qX c #FAD970",
"wX c #F7D978",
"eX c #EFC978",
"rX c #77438A",
"tX c #5D82B6",
"yX c #5E83AD",
"uX c #6088A3",
"iX c #5D80C5",
"pX c #B6938D",
"aX c #EED58D",
"sX c #FBE293",
"dX c #FDE7A3",
/* pixels */
"f.f.f.f.f.g.g.b.f.z.z.f.i.f.f.f.f.v.f.i.i.i.f.i.v.f.d.i.f.f.i.i.i.i.i.z.f.f.f.f.d.v.z.v.i.f.f.i.f.f.f.f.v.i.f.f.f.f.f.f.v.<X<Xm.",
"f.i.f.f.f.p.p.y.d.z.v.i.f.f.f.f.f.i.f.f.f.i.v.f.v.v.i.n.i.i.f.R ; z t.i.i.f.f.f.v.z.v.i.f.f.i.v.f.f.v.i.i.f.f.f.f.i.i.f.v.=X=Xn.",
"f.f.f.i.d.V.N.6.V.y.b.v.i.i.f.f.f.f.f.i.f.v.f.i.i.i.i.f.i.M ; K A.A.e x t.f.i.f.v.d.v.b.v.z.d.v.z.d.i.i.v.z.f.i.i.z.f.v.i.v.n.v.",
"f.f.i.v.y.6.5.5.M.p.f.b.i.f.f.f.f.f.f.f.f.i.i.m.m.z.v.M ; I >.1X2X_.^.*.u - 0.f.i.v 9 9 9 9 9 v z.f.f.f.d.v.i.i.v.d.f.i.i.z.v.v.",
"f.f.f.f.s.M.5.6.M.s.b.v.c.f.i.f.f.f.f.f.f.i.n.=X*Xb & J K.`.%X8X}.^.^.^./.A.D = 9.v _ A ( ( _ v v.f.f.f.i.f.f.f.f.f.f.f.f.f.f.f.",
"v.i.f.f.s.M.M.6.V.d.f.b.d.i.d.f.i.f.i.f.f.v.v.a.  U U.`.wXqXqX2X|.(.^.^.^././.;.a O ) $ $ $ ) v f.v.f.f.v.i.f.f.f.f.f.f.f.g.C.d.",
"i.v.v.v.f.y.y.s.h.i.d.w.V.V.e.i.i.i.i.f.f.9.- D =.}.7X5XqXqXqX4X|./.^.^.^.^.^.^.A.G ( 0 o o ( v f.i.v.f.f.i.i.f.f.f.f.f.g.uXuXC.",
"f.f.z.v.v.f.g.i.i.i.y.M.N.B.w.d.i.f.i.7.z D *.}.7X}.qX7XqXqXqX7X}./.^.^.^.^.^.^.^.Z ) $ 2 2 ) x f.f.i.f.f.f.v.i.f.f.f.f.g.yXtXC.",
"j.i.n.=X*Xi.f.f.f.f.s.V.5.5.e.s.z.9.= D K.XX2X4XqXqX4X1X8X1XqX3X|./.^.^.^.^.^.^.^.G ; 3 3 3 3 c q.f.i.f.f.f.f.f.f.i.f.f.f.Z.Z.g.",
"v.i.n.=X*Xn.i.z.f.d.p.e.6.e.e.M = D K.XX7XqXqX7XqXqX7XqX7X3XqX4X|.^.^.^.^.^.^.^.^.G ' ] ` ' [ # V x q.i.i.i.f.f.f.f.f.f.f.f.i.b.",
"v.i.z.m.n.v.i.i.f.i.v.h.u.R ; J K.2X7XqX4XqXqX7XqXqX7XqXqXqX8X6X|./.^.^.^.^.^.^.^.G ' ' ` ' ` G P.=.V x q.v.f.f.f.f.i.f.f.z.d.z.",
"v.f.v.i.i.v.z.z.j.i.p.M n K P.2X7XqXqXqXqX4XqX_.qXqXqXqXqXqX8X4X|./.^.^.^.^.^.^.^.G ] ] ` ] ] G ^.^.P.@.a x q.f.f.f.f.i.f.z.f.v.",
"v.f.f.f.i.f.i.j.f.i.x J U.3X7X7XqXqXqXqXqXXXqX7XqXqXqXqXqXqXqX4X|./.^.^.^.^.^.^.^.G [ [ [ ` [ G ^.P.P.P.A.O.y q.v.i.f.z.i.v.f.i.",
"f.v.i.v.i.f.i.i.f.z.z I.qXqX2X6XqXqXqXqXqXqXqXqXqXqX7X2XqX7XqX6X}./.^.^.^.^.^.^.^.G ` ] ` ` ' G ^.^.^.P.K.D.a 9.i.f.v.j.f.f.i.v.",
"i.f.f.f.f.f.f.i.f.f.C %XqXqX7XqX8XqXXXqXqX2X7XqXqX8X6X4X7X}.qX3X}./.^.^.^.^.^.^.^.K 9 ) _ ] [ H ^.^.^.^.P.*.a 9.v.x.f.f.f.z.i.d.",
"f.f.f.f.f.f.f.f.f.f.Z |.qX7X8X7X2XqX7XqXqX7X7XqXqXqX4XqX8X7XqX4X|././.^.^.^.^.^.^.P.O.H 3 9 A Z ^.^.^.P.^.&.t q.v.i.i.f.f.n.n.z.",
"f.f.i.f.f.i.f.f.f.f.- I.8X8XqXqXqXqXqXqXqXqXqXqX8XqX8X8XqX8X8X4X}.(.(.(.^.^.^.^.^.^.^.L.D.D @ G ^.^.P.A.^.A.N k.-Xn.v.b.v.*X=Xn.",
"f.f.i.i.v.f.v.f.f.f.- I.2X7XqXqX8XqXqXqXqXqXqXqXqXqXqXqX8X8X8X3X2X(.{.4X^.{.^.{.^._.^.^.^./.D.D.^.^./.K.^.^.B a.=Xj.g.b.z.<X=Xn.",
"f.f.f.v.v.z.f.f.d.i.C 3XqXqXqXqXqX4XqXqXqXqX4XqXqXqX8X7X7X8XqX7X}.^.^.^.{.qX^.4X^.^.^.^.^.^.^.^.^.^./.^.^.A.g Z.=Xy.u.s.z.n.n.z.",
"i.f.f.f.v.z.n.v.n.i.- '.4XqX}.7XqXqXqXqX8X4X{.qXqX_.qXqX8X8XqX4X}./.^.^.(._.^.^.4X_.^.5X^.^.^.^.^.^.^.^.W.A.g a.-Xy.t.s.c.i.i.z.",
"f.i.f.f.n.=X:X=X=Xc.= `.7XXX3XqXXX4XqXqXqX8XqXqXqX4XqXqXqXqXqX2XXX(.^._.^.^.^.^.{.^.^.{.^.4X/.^.^.^.^.^.A.A.T q.n.d.s.f.i.f.i.i.",
"f.v.i.f.m.:X>X>X;Xn.n {.qX3X7XqXqXqX8XqXqXqXqXqXqX8XqXqXqXqXqX7X}.^.^.(.(._.|.^.XX/.XXXX^.^.^.^.^._.2X^.^.P.g 8.f.z.z.i.j.f.f.f.",
"f.f.f.f.n.>X>X>X;Xn.E 5XqXqXqXqXqXqXqXqXqXqXqXqX4XqXqXqXqXqX7X5X}.(.{.1X^.XX_.^.4X/.^.{.^.{.qX^.^.^._.^.^.D.f 8.f.i.i.i.f.i.i.j.",
"f.f.f.f.n.=X:X:X=Xn.= `.qXqXqX}.4X8XqX4XqXqXqXqX2XqX_.4XqXqX7X X2X(.^._.^.^.^.^.^.^._.^.^.^.^.^.^.^.^.^.^.L.n t.i.v.v.f.v.b.f.i.",
"i.f.f.f.f.v.v.v.n.i.E 4X7X3XqX4XqXqX4X_.qXqXqX4XqXqX4X7X8X%XD.,.$.K.P.A.(./.6X^.^.^.^._.^._.|.^.^.^.^.^./.A.Z t.f.v.v.i.f.d.x.i.",
"v.i.f.f.f.i.z.f.v.v.= D.5XqXqXqXqXqXqXqXqXqXqXqXqX2XqX2X^.F.-.D & q #.A.A.^.2X/.4X^.4X^.^._._.^.}.(.1X1X/.W.H 9.f.f.i.f.f.Z.Z.f.",
"f.f.f.i.v.v.f.f.f.f.= F.7X7XqXqXqXqXqXqXqX|.qXqX{.1XD.K.@.T & a L D w q O.^.A.^.4X^._._.{.^.^.^.^.^./.^.^.A.a 8.i.i.v.v.C.tXiXC.",
"f.f.i.v.v.f.d.f.f.f.z >.}.8XqXqXqX3X2X7XqX7X7X3XD.I.@.#.a e J =.S.;.#.N e G A.A.I.L.^.4XU.^.^._.}.(.(.2X_.A.B 9.i.f.f.f.h.tXtXC.",
"f.v.f.v.f.f.f.f.f.f.- D.7XqX3X6XqX2X7X7XT.XXU.>.:.P u q S U } F B S D ..I a q a A.A.A.(.L.(./.^.(./.(.1X/.L.g 7.f.f.f.f.f.Z.Z.h.",
"f.i.f.i.f.f.f.i.i.f.- >.4XqX2X8XqX7X7X|.D.>.$.P e p K =.S.G.$.1 > > 1 &.G.2.$.H % u O.D.^.).1X^.^.1X_.^.^.A.a r.j.f.f.v.f.f.b.b.",
"i.f.i.i.i.f.i.f.f.f.- R.qXwXqX3XqX{.'.,.&.P u e T .. .+.+.K 1 h 5 5 h , L +.+.....a % a A.D./.^./././._.^.K.g 4.pXC.v.z.i.v.i.v.",
"f.v.f.f.d.s.s.d.d.f.- >. X7X7X`.XX>.>.P u a K ;.J.G.G.G.G.$.> 5 h h 2 > $.G.W.A.G.A.$.D % D $.^.A./.A.^./.U.f 4.pXj.v.d.f.v.v.v.",
"f.f.v.z.y.w.6.6.e.d.- U.'.`.F.K.A.J e q F .. .+.+.+.o.:.:.} : 4 h h 5 > I :.+.+.o.+.+.....a % S $.A.P.^.^.A.D r.j.i.g.z.i.z.f.i.",
"f.f.f.d.d.M.N.5.M.y.- ,.P.,.+.D q a } ;.J.G.G.J.G.G.T.[.].T.2 h 5 5 h 1 H..X[.W.G.Q.G.G.G.A.$.H w N *.A.^.^.H l.p.i.z.v.i.v.v.f.",
"z.f.v.v.y.6.5.5.M.s.= #.@.D q u F ..#.+.+.+.+.+.:.:.3.3.R.3.Y , > > 1 P >.<.<.<.=.=.+. .+.+.+...} f w N *.P.F 0.f.f.f.i.i.i.f.i.",
"v.f.v.b.d.w.w.w.e.d.x a @ % N K #.O.O.O.O.O.O.;.1.F.Y.Y.Y.Y.R.K V N U F.2.F.S.S.;.;.;.O.O.O.O.O.O.#.H e + a e q.z.z.i.n.n.n.m.i.",
"i.f.f.d.f.s.s.s.d.i.p.* d s d d d d d d d d s d d d s d s d d d d g d d d d d d d d d d d d d d g d d d d q M i.i.f.n.*X>X:X;Xj.",
"f.f.v.z.f.f.i.z.v.v.v.w X.X.X.| X.X.| | X.X.X.X.X.X.X.X.| | | | | | X.X.X.X.| | X.X.| | | X.| X.X.X.X.| | l 0.i.x.n.n.*X>X>X:Xn.",
"i.v.z.f.i.f.f.v.f.f.f.- u s i s i u i i u i s t i u i i Y K P '.}.;.f &.I i i i t a i i u i i i u a i i i % 8.i.n.:X=Xm.n.n.m.=X",
"i.f.f.v.f.f.i.i.f.f.f.v & e w e w w w w w e w w e O e #.aXsXwXdXsXsX3XqX6XA.N & + w w w w w w w e w w w w 0 q.i.n.=X>Xm.i.i.i.>X",
"f.d.f.v.i.f.f.f.f.f.f.9.N +.+.+.O.+.+.:.+.:.+.+.*.E.,.Y R.&.I.dX X#X,.'.@.>.#X#X% +.+.+.+.%.:.o.+.o.+.+. .z i.n.m.>X,Xn.i.c.c.>X",
"n.z.i.v.v.f.f.i.i.f.f.0.$.%X&X$X2.[.$X&X&X9X&X].(.eXT.I.#XwX'.).} F.D.A.F.).+XsX).#X$X&X9X&X&X#XQ.~.&X&X[.C f.v.m.=X=Xm.j.c.n.=X",
"*Xn.f.f.i.i.f.i.i.v.i.9.F +.+.+.| a t t t a :.+.$.#.S.`.+X+XaX(.'.A.|.eXaX0XdXF.f +.%.I t q t t l  .+.+.+.n i.f.d.c.m.*X:X>X=Xm.",
";Xn.v.v.v.f.f.f.f.f.i.9.$.&X&XW.f l 4 4 4 j f $X$XN <.K T.+XaXW `.'.0XW |.`.W.P.I &X2.F 4 4 4 7 s #.%X&X].C i.f.i.i.n.;X:X:X=Xc.",
";Xn.f.f.d.i.f.f.f.f.f.9.I <.<.u j 4 j 4 7 7 j e +.N ].U 5 A P 8 A 7 A 5 P ,.!.!.u @.t 4 j 4 7 9 4 s U <.,.n n.d.i.v.i.n.v.n.n.i.",
";Xn.v.f.v.v.f.f.f.i.i.8.$.%X&XB ! 4 4 j 7 4 j I $XD .X&.: 4 4 4 4 4 4 4 4 X !.!.J $Xt 4 4 j 7 4 4 s R.&X[.C f.n.v.v.f.f.v.f.i.i.",
",Xv.v.f.z.f.f.f.f.f.f.9.I ,.>.u S 4 7 7 j 4 j e +.N .X$.: 4 4 4 4 4 4 4 4 X ~.!.u +.t 4 7 7 j 4 4 s U <.:.n n.;X=Xn.z.v.f.i.j.i.",
"*Xh.s.f.f.f.f.f.f.i.f.8.$.<.!.#.k 7 7 4 4 j s >.$XN .X$.: 4 4 4 4 4 4 4 4 X `.!.Y %Xa j 7 4 4 j 7 g T.J.J.Z m.=X-Xm.v.i.i.z.z.p.",
"n.V.e.f.f.f.f.i.f.f.f.0.O.+.J.J.D k 7 7 7 k f H.Q.D ].$.: 4 4 4 4 4 4 4 4 X !.!.S Q.=.d 8 h 7 h s } H.,.<.Z -Xm.m.;X*Xj.i.i.z.i.",
"d.V.e.j.f.f.i.f.f.f.i.9.U T.@XoXQ.U f a e J Q.@X~.D .X$.: 4 4 4 4 4 4 4 4 X !.!.D @X~.S.a e a S $.~.@XOXJ.C =Xm.m.;X;Xn.i.z.x.i.",
"z.y.s.j.g.z.i.f.f.f.i.0.} 2.2.J.S.S.2.<.%.2.2.S.S.N .X$.> 4 4 4 4 4 4 4 4 X !.!.N 2.2.2.;.+.<.S.2.2.2.S.S.C m.=X*Xm.m.c.i.j.z.i.",
"z.x.z.v.f.f.f.f.f.i.f.0.} H.Q.:.2.J.Q.oX@X@X@X~.W.N .X&.> 4 4 4 4 4 4 4 4 X !.!.D T.@X@X@X@XT.Q.J.=.J.Q.J.n j.=X*Xc.k.c.i.g.f.i.",
"i.f.d.i.i.v.f.i.f.i.f.0.U S.2.%.2.S.S.S.S.S.S.2.S.q Q.L > 4 < 6 6 6 6 6 < X <.<.N S.S.2.S.2.S.S.2.<.<.S.2.C f.m.n.i.i.i.f.f.x.f.",
"i.f.z.z.f.i.f.f.f.f.v.9.@.H.Q.@X@X@X@XH.:.@X@X~.J.q { l > 8 8 8 8 8 6 8 8 X { { B J.@X@XoX+.oX@X@X@XoXH.H.C f.i.i.f.v.f.v.f.z.i.",
"z.d.z.i.f.f.f.f.f.f.f.R & q y w u y u y & y e w q a  .U 8 ! ! ! ! ! ! ! ! , %.%.+ % y u i & y y u y w r y * y.f.i.f.f.f.f.f.i.f.",
"f.f.v.f.f.f.f.f.i.f.f.- d d k d d d k d d k k d d D .X&.~ ^ ^ ^ ^ ^ ^ ^ ^ < [.!.# k d d d d d k l d d d d r 8.k.f.f.f.f.f.f.f.f.",
"f.f.v.i.f.f.f.i.f.f.f.* y r 7 r r r y r r r r r r N .X&.^ rXrXrXrXrXrXrXrXQ ~.!.+ % r r r r y % y r r r r & 8.d.f.f.f.f.f.v.f.i.",
"i.f.i.f.f.f.f.f.f.i.z.* @ # # # # # + # # # # # # e [.W , , , , , , , , , + ;.2.  # # # # # # # + # # # + + 8.i.i.f.f.i.f.i.f.f.",
"v.v.f.f.i.v.f.f.f.i.i.q.8.0.0.8.8.0.0.0.9.7.7.0.0.c &   s L L L { L L L l u . m 7.0.0.7.9.7.8.7.9.0.0.7.9.7.p.f.f.f.f.f.i.f.f.f.",
"f.i.f.f.f.f.f.f.f.f.f.f.i.f.v.i.b.v.v.z.v.v.i.i.i.v.f.* l | X.X.| | | X.{ s x i.f.v.i.f.f.v.v.i.v.f.i.f.i.v.f.f.f.i.i.v.v.v.i.f.",
"i.v.i.f.f.f.f.f.f.f.f.f.i.i.i.i.v.i.v.d.v.v.v.v.i.v.f.* i k S l l S S S d r x v.f.v.f.f.f.v.v.i.f.i.i.v.z.v.i.f.v.i.i.f.f.f.i.v.",
"f.v.f.i.f.f.f.f.f.i.f.f.i.i.i.f.f.i.v.i.f.f.i.v.f.i.v.* d | X.X.X.X.X.| L i v z.f.v.i.f.v.f.i.i.f.f.f.i.f.f.v.f.i.f.f.f.f.f.i.f.",
"f.f.i.x.f.f.f.f.i.f.i.i.i.i.f.f.i.v.v.i.f.i.i.f.z.d.f.* d | X.X.X.X.X.X.L i x z.d.v.v.i.i.i.v.v.v.i.f.f.f.f.v.f.f.f.i.f.f.f.f.f.",
"f.g.d.v.f.v.f.f.f.f.i.f.i.f.f.f.f.f.f.i.v.d.f.f.v.v.v.b . + . . . . . . . o 7.i.i.i.i.v.i.f.d.v.i.i.f.f.f.f.i.i.i.v.v.i.f.i.v.f."
};
