/* XPM */
static char *player[] = {
/* columns rows colors chars-per-pixel */
"64 64 222 2 ",
"   c #000100",
".  c #080707",
"X  c #02090E",
"o  c #0C0C0B",
"O  c #050A05",
"+  c #0C1507",
"@  c #020B13",
"#  c #0E0F11",
"$  c #05121B",
"%  c #191B17",
"&  c #241B15",
"*  c #132208",
"=  c #182A0C",
"-  c #1D340D",
";  c #162E17",
":  c #213B0E",
">  c #253B13",
",  c #031B2C",
"<  c #031D30",
"1  c #1A2429",
"2  c #09253A",
"3  c #182730",
"4  c #182D3A",
"5  c #162A37",
"6  c #102E2D",
"7  c #222223",
"8  c #2C2C2D",
"9  c #262C2E",
"0  c #222D33",
"q  c #263239",
"w  c #2A3136",
"e  c #3A383A",
"r  c #254111",
"t  c #2D4817",
"y  c #2E5314",
"u  c #345A18",
"i  c #2A4614",
"p  c #376219",
"a  c #39651A",
"s  c #3F701C",
"d  c #2F4E26",
"f  c #3B6B21",
"g  c #41741E",
"h  c #437A1C",
"j  c #467B21",
"k  c #585C2E",
"l  c #052C47",
"z  c #09314C",
"x  c #14344A",
"c  c #06375A",
"v  c #06385C",
"b  c #0A3654",
"n  c #143954",
"m  c #223846",
"M  c #213B4C",
"N  c #063C63",
"B  c #093D62",
"V  c #194359",
"C  c #3C474F",
"Z  c #06416B",
"A  c #0B436A",
"S  c #0C4067",
"D  c #1A4A6B",
"F  c #074775",
"G  c #094876",
"H  c #01467A",
"J  c #0B4C7B",
"K  c #094773",
"L  c #134B73",
"P  c #0E507F",
"I  c #17517C",
"U  c #2A5371",
"Y  c #444443",
"T  c #4C4B4D",
"R  c #424B54",
"E  c #4C4F50",
"W  c #525156",
"Q  c #755D4F",
"!  c #7B6659",
"~  c #435D72",
"^  c #425462",
"/  c #4B6373",
"(  c #516578",
")  c #68747C",
"_  c #896347",
"`  c #84634A",
"'  c #806345",
"]  c #846654",
"[  c #916D53",
"{  c #956E51",
"}  c #9A7862",
"|  c #AE7F61",
" . c #378E3D",
".. c #37903A",
"X. c #518F24",
"o. c #569727",
"O. c #439A3C",
"+. c #46983B",
"@. c #488724",
"#. c #5CA429",
"$. c #5EA92A",
"%. c #4DA43B",
"&. c #51A63B",
"*. c #56AB37",
"=. c #5CB133",
"-. c #5CB038",
";. c #5FB42E",
":. c #62AC2C",
">. c #64AB27",
",. c #64B52E",
"<. c #6BBE2E",
"1. c #67BB2B",
"2. c #62B633",
"3. c #65B933",
"4. c #6BBE31",
"5. c #68BB3A",
"6. c #70BE32",
"7. c #72BB3A",
"8. c #63AC31",
"9. c #65C12C",
"0. c #6BC02D",
"q. c #6AC127",
"w. c #71C32F",
"e. c #6DC032",
"r. c #6AC135",
"t. c #73C434",
"y. c #7BCD3C",
"u. c #76C838",
"i. c #7FD03E",
"p. c #368D44",
"a. c #398E44",
"s. c #379142",
"d. c #479A41",
"f. c #69B14C",
"g. c #66A565",
"h. c #7CCE41",
"j. c #7FD144",
"k. c #81D13E",
"l. c #80CF3E",
"z. c #AD805E",
"x. c #88AC55",
"c. c #B48567",
"v. c #B48C76",
"b. c #AC9271",
"n. c #9B9D71",
"m. c #C78C6C",
"M. c #CA8F6E",
"N. c #CD9472",
"B. c #CC9C7D",
"V. c #C89676",
"C. c #D49977",
"Z. c #D59B77",
"A. c #C48F70",
"S. c #DBA37E",
"D. c #D6A17B",
"F. c #E9AB7F",
"G. c #83D343",
"H. c #8BDA46",
"J. c #8DDC4B",
"K. c #85D847",
"L. c #91DD4C",
"P. c #8DDF51",
"I. c #93E24E",
"U. c #98E54D",
"Y. c #95E452",
"T. c #99E652",
"R. c #8EE14D",
"E. c #0F5285",
"W. c #0D568A",
"Q. c #115485",
"!. c #185684",
"~. c #10578A",
"^. c #115B8E",
"/. c #1C5B88",
"(. c #145D91",
"). c #1B5E90",
"_. c #0E4F80",
"`. c #186297",
"'. c #196499",
"]. c #176195",
"[. c #28628C",
"{. c #326890",
"}. c #225880",
"|. c #506B85",
" X c #727B8F",
".X c #5C7BBE",
"XX c #5B75D2",
"oX c #827F82",
"OX c #DC79BB",
"+X c #6F8B8A",
"@X c #5F83B4",
"#X c #94878C",
"$X c #A8988C",
"%X c #B79688",
"&X c #A68B99",
"*X c #A7909A",
"=X c #C7A387",
"-X c #DBA281",
";X c #DEA880",
":X c #E6AD85",
">X c #EDAF80",
",X c #E2A781",
"<X c #E8B086",
"1X c #EDB389",
"2X c #E6B28B",
"3X c #F6B98C",
"4X c #F0B68B",
"5X c #EAA897",
"6X c #F0B39B",
"7X c #EDA5A3",
"8X c #F5BBA6",
"9X c #CA9D81",
"0X c #FFC596",
"qX c #FEC79B",
"wX c #FECDA5",
"eX c #FBD4B5",
"rX c #F5D1B5",
"tX c #F2CEB4",
"yX c #F5F1EF",
"uX c white",
"iX c #FAF8F7",
"pX c #EDEDED",
/* pixels */
"4.4.4.4.4.5.4.5.4.<.<.6.<.<.4.4.4.4.4.4.<.<.<.4.<.4.4.3.<.4.<.<.<.<.4.4.4.4.4.4.4.4.4.4.e.4.4.4.<.4.4.4.4.e.4.<.4.4.4.4.4.4.y.R.",
"4.<.4.4.e.0.9.0.3.0.t.6.<.<.4.4.4.<.<.4.4.<.4.4.4.t.6.<.<.6.t.4.4.<.4.4.t.<.<.4.4.4.4.4.4.<.4.4.4.4.4.4.4.<.<.4.3.e.4.<.<.4.y.Y.",
"4.4.4.<.3.%.O...d.-.4.4.0.<.4.4.4.4.4.<.<.4.t.4.<.<.<.<.<.<.1.<.4.6.4.4.4.<.4.<.4.4.<.4.4.<.0.<.4.4.4.4.4.<.4.4.0.<.<.4.e.4.e.t.",
"4.4.<.4.2.O.s...a.=.3.4.4.<.<.4.4.4.4.4.4.,.X.X.X.X.X.X.X.X.X.X.X.X.X.X.X.X.X.X.X.X.X.X.o.3.4.4.4.4.4.<.4.4.e.<.<.4.4.4.4.9.<.e.",
"4.4.<.4.2.O. ...s.=.4.r.0.e.0.4.4.4.4.4.<.#.O                                           * ,.4.4.4.e.<.<.3.0.e.e.<.4.4.0.4.4.4.4.",
"e.<.4.4.2.O.p...a.=.5.4.4.<.4.4.4.4.4.4.4.o.O                                           * :.e.4.<.4.4.<.4.4.0.3.4.<.4.e.4.4.4.4.",
"4.e.e.4.4.*.&.*.&.3.e.-.%.%.&.2.<.<.<.4.4.o.O                                           + +.2.<.4.4.<.e.4.4.4.<.4.4.4.3.r.3.f.+X",
"4.4.<.e.<.<.r.<.<.<.3.O.p.p.p.*.<.6.h = - ; L L L I L I L I L I I L I S B S v c c c c c c * = : $.4.4.<.4.4.4.4.<.4.<.<.r.r.g.XX",
"4.<.e.y.i.e.4.<.4.4.4.d.a.p. .*.r.4.p     $ ).'.'.'.'.'.'.'.'.'.'.'.`.E.W.E.G F F F F F N X   O o.4.4.<.e.4.4.e.4.4.4.<.4.4.f.+X",
"6.<.t.I.I.t.4.<.5.4.3.+.a. . .*.4.t.p     , (.'.'.'.'.'.'.'.'.'.'.'.'.E.E.E.J F F F F F v X   + #.4.4.<.<.4.<.4.4.<.<.4.4.4.r.r.",
"t.<.e.K.K.t.<.0.4.3.3.&.+.+.+.@.h j d 2 2 l ).(.(.).(.(.).(.(.(.(.`.(.E.E.E._.J J F F F N < , < f j j $.<.<.<.<.4.4.4.4.4.4.9.e.",
"4.<.0.t.e.e.<.<.4.4.6.4.;.f.5.-     z `.).).Q.E.E.W.W.Q.Q.Q.E.E.E.E.E.E.E.E.E.E.W._.F F K K K N @     g 4.e.e.4.4.4.4.<.<.4.0.0.",
"4.4.6.4.<.<.<.6.6.<.1.<.9.e.r.-     z '.'.).Q.E.E.E.E.E.E.E.E.E.E.E.Q.E.E.E.E.E.E._.F F F F G K @     j 4.4.4.4.4.4.4.4.e.<.4.<.",
"4.4.4.4.6.4.<.4.6.<.0.<.q.q.0.-     z '.'.(.Q.W.E.Q.E.E.Q.!.E.E.E.E.E.E.E.E.E.E.E.J F F F F H N @     s 4.4.4.4.4.e.4.4.4.<.<.<.",
"4.4.<.4.6.4.<.<.4.<.4.8.= = * V I I ^.'.'.).M m m m m m x 4 4 4 4 4 4 4 4 4 4 4 4 b G F F F F F N N N 6 * * u 4.4.4.4.4.e.r.4.5.",
"<.4.4.4.4.<.<.<.4.<.4.$.      G '.'.'.'.'./.q q q q q q 3 1 1 1 1 1 1 1 1 1 1 1 1 x G F F F F F F F F ,     > 3.4.4.0.0.e.4.4.0.",
"4.4.4.4.4.4.4.<.4.4.4.$.      L `.`.'.'.'.U m w q q q q q 1 1 1 1 1 1 1 1 1 1 1 1 x F F F F F F F F F <     r 4.<.<.<.1.<.4.4.<.",
"4.4.<.4.4.<.4.4.4.4.<.:.      L '.'./.D D U ! ] ! ! ! ! ! ! Q ! Q Q Q Q Q Q Q Q Q T b n n K H F F F F <     t J.H.H.y.t.4.4.u.H.",
"4.4.4.<.4.4.4.7.4.4.<.$..     L '.'.D w w Y =X-X-X-X-X-XS.-X-X-XC.C.C.C.C.C.C.C.C.! 1 1 5 K F F F F K ,     t T.U.U.H.r.r.e.u.I.",
"4.4.4.4.e.0.<.4.4.3.<.$.      L '.'.D w q Y B.-X-X-X-X-X-X-X-XD.C.C.C.C.C.C.C.C.C.] 1 1 4 N F F F F F <     t T.U.T.G.8.2.0.w.l.",
"4.4.4.4.4.<.1.0.0.<.<.:.      L '.'.D q q Y B.-X-X-X-X-XS.S.S.D.C.C.C.C.C.C.C.C.C.! 1 1 5 B _.F F F F <     t Y.Y.T.u.$.*.<.<.<.",
"<.4.4.4.e.y.i.i.k.t.<.$.      L '.). XV.V.B.:X<X:X:X:X:X:X:X2X:X:X:X:X,X:X:X:X,X,XC.A.c.} q 5 5 N F F <     i G.K.j.u.,.,.<.<.<.",
"4.<.4.4.t.H.I.I.I.u.0.:.O     L '.'.+X,X-X-X:X:X<X:X:X:X:X:X:X<X:X:X:X:X:X<X:X:X:X-XC.C.c.8 1 3 A F F <     r e.r.r.6.<.3.4.6.4.",
"4.e.<.0.t.H.U.U.U.u.<.:.      L '.'.+X-X-X-X:X:X:X:X:X:X:X:X<XF.:X:X:X:X:X:X:X:X:X-XC.C.c.9 1 3 A F F <     r 4.7.4.<.<.<.4.6.4.",
"4.4.4.4.w.H.U.U.Y.u.0.:.      L '.'.|.| | | c.c.c.F.:X:X2X:X:XD.c.c.| c.z.c.D.:X:X-XC.C.c.8 1 3 A F F <     r 4.4.e.e.<.4.<.4.<.",
"4.4.<.e.t.K.L.H.J.u.4.:.O     L '.'.( _ _ _ _ _ { Z.:X:X:X:X:XB._ _ _ _ _ _ V.:X:XS.C.C.c.9 1 3 A F F <     r 4.4.<.4.4.4.4.4.r.",
"<.4.4.4.4.e.e.0.t.<.<.$.      L '.'.( _ _ _ _ ` { S.:X:X:X:X:XB._ _ _ _ _ _ V.:X:XF.Z.Z.c.8 1 3 A F F ,     r 4.<.<.4.4.4.<.e.1.",
"e.<.0.3.4.<.0.0.4.4.4.:.      L '.)./ _ Q ` [ [ { S.<X<X:X:X2XB.' ` ` [ { { N.<X:XF.Z.Z.v.e 9 0 A F F <     r <.<.4.4.4.<.5.4.5.",
"e.4.4.<.<.e.e.5.4.4.<.$.      L '.'.^._.H {.pXpXyXqX0X0X0X0XqX=XG J !.pXyXyXrX0X0X3XF.F.F.A.m.v.U F F <     r 4.4.4.<.<.4.4.g.@X",
"4.4.<.4.e.3.<.3.4.4.4.$.      L '.'.W.N N {.pXuXiXwX0XqX0X0XqX=XH H !.iXuXuXeX0X0X3X<XF.:XZ.C.A.U H F <     r 4.4.4.4.4.e.4.g..X",
"4.4.4.e.e.e.<.<.4.4.4.$.      L '.'.W._._.{.iXuXiXwX0X0X0X0X0X=XH H !.iXuXuXeXqX0X3X>X>XF.C.Z.V.U F F ,     > 4.4.4.<.4.4.4.f.g.",
"<.4.4.<.e.4.4.<.4.4.4.$.O     A (.(.|.&XoX*XtXrXeXqX0X0X0X0X0X2X$X$X$XrXeXeX8X6X6X5X,X,X9X) |.( 2 , , d j h X.4.4.4.4.4.4.<.0.0.",
"<.<.<.<.<.4.1.9.4.4.4.#..     S (.`.oX7X7X7X3X3X3X0X0X0X0X0X0X0X0X0X0X3X3X3X5X7X7X-X-X-X%X!.E._.@     g <.4.5.<.x.$Xx.f.t.9.0.4.",
"4.e.4.0.4.4.<.r.4.4.4.>.      B (.'.oX7X7X7X3X3X3X0X0X0XqX0X0X0X0X0X0X3X3X3X7X7X7X5X-X-X%X}.E._.@ .   s 0.<.9.<.n.OXb.7.e.e.4.t.",
"4.4.e.3.2.*.%.%.&.2.6.:.i : : V B _.|.*X*X*X$X$X%X2X4X4X4X1X1X1X2X1X<X:X>X:X%X&X&X&Xn.#XoX!.E.E.@     j e.4.4.5.x.n.x.4.4.<.4.4.",
"4.4.4.4.2.O. ...p.2.6.6.1.1.1.d 9 7 V ).).).`.(.{.v.C.N.N.M.M.M.M.M.M.M.m.M.~ L L _.!.!.!.B N N @     f 4.4.6.6.q.9.q.<.5.<.<.4.",
"4.3.e.<.2.O.s.s.p.=.4.3.0.0.<.d 7 7 n ^.^.^.^.^.[.v.V.N.N.m.m.m.m.m.m.m.m.m.~ K F J E.E.E.F F Z @     g 4.4.4.6.e.9.0.5.0.4.<.6.",
"e.<.<.e.2.O.s. .p.-.<.4.0.9.e.d 7 7 n ^.^.^.^.^.[.b.N.N.M.M.m.m.m.m.m.m.m.m.~ K F J E.E.E.G F Z @     s 4.4.4.4.4.6.7.4.4.<.<.<.",
"e.4.4.4.3.%...+.d.2.6.<.r.1.1.r o . n ).].].^.^.(.C R R ^ ~ U / |.|.|.C R R I Q.W.W.E.E.P F F Z @     s 4.e.<.6.<.9.q.q.q.w.u.u.",
"<.4.4.4.4.3.2.2.2.4.<.<.e.r.r.-   . z '.'.`.(.(.~.b l z v G G J ^.W.W.l l l J ^.^.W.E.E.E.F F Z @     s 4.3.<.<.4.4.w.6.u.H.I.U.",
"4.4.e.<.<.4.<.0.0.4.4.6.e.<.0.-     z ).'.'.(.^.Q.b l l v H F J ^.^.W.z l l J ^.^.W.E.Q.P G F Z @     s 4.e.<.e.4.<.0.u.y.R.L.L.",
"<.e.4.<.<.4.4.4.<.4.4.,.h g s q 2 l D '.'.).(.^.~.c z z N F H J W.W.E.c z z J ^.^.W.W.E.E.G F Z @     s 4.4.<.4.0.1.y.L.H.t.t.t.",
"<.0.e.e.4.4.<.<.4.4.4.$.      L '.'.'.'.'.(.^.^.W.N c c N F F J E.E._.c c c _.^.(.~.E.E.E.G F Z @     g 4.4.4.4.<.w.y.I.L.<.<.<.",
"3.3.4.e.<.4.4.4.4.4.4.$.      L '.'.'.'.'.'.^.^.Q.N c v N F F J E.E.E.c c c _.^.W.~.E.E.P F F Z @     g 4.4.4.<.0.0.k.U.L.1.<.<.",
"e.<.<.e.e.4.4.4.<.<.4.:.      L '.'.'.'.'.'.(.^.Q.N c v N F F G E.E._.v c c _.^.(.Q.~.E.E.F K A @     s e.4.4.4.4.4.l.L.H.<.<.w.",
"G.t.<.<.<.<.<.4.<.4.4.$.      } =X=X+X'.'.'.^.^.^.W.Q.Q.E.E.E.E.E.E.W.J J J J G J |.;X;X=XB.D.b.&     s <.<.<.4.4.4.t.u.y.H.J.H.",
"J.t.4.e.e.<.4.4.<.e.4.:..     | 4X>X+X'.'.(.^.^.^.^.^.(.~.E.E.E.E.E.E.E.Q.E.J F G ) F.F.F.F.F.D.&     s 4.0.4.<.4.3.<.<.u.Y.T.T.",
"R.t.<.4.e.4.4.4.4.4.4.:.      | >X>X#X'.'.'.(.^.^.^.^.(.~.E.E.E.E.E.E.E.Q.Q.J F K ) F.F.F.F.F.F.&     g 4.0.0.<.4.<.<.4.u.k.k.k.",
"J.t.e.4.4.4.4.4.4.4.<.,.u y y Q ` _ E b n S ^.^.^.^.^.^.~.E.E.W.E.E.Q.J J J J F F ^ _ _ ` _ _ ' a t y X.<.<.0.0.e.<.4.6.e.t.<.t.",
"J.u.e.4.<.4.4.4.4.<.<.4.4.4.1.-           $ E.^.^.^.^.^.~.E.E.E.E.E.Q.F F F F F F l           + 8.6.4.t.<.<.6.<.t.u.r.4.4.r.4.<.",
"J.t.4.4.0.4.4.4.4.e.4.4.<.<.<.-           $ E.^.^.^.^.^.~.Q.E.E.E.E.E.F F F F F F 2           + >.<.<.4.<.6.6.<.y.Y.G.4.4.4.4.4.",
"K.2.=.4.5.4.4.4.4.<.4.<.<.0.<.:   .       $ Q.^.^.^.~.~.Q._._.E._._.J K F F K A F l         O + :.<.<.4.<.<.6.u.G.H.G.y.u.<.<.<.",
"5.d.d.8.3.<.4.<.4.4.4.<.4.e.t.:.#.$.u     # E W R $ X @ X X X X @ X @ X X X w C C 7     * o.>.>.<.4.<.4.4.4.G.Y.k.6.l.T.H.4.<.1.",
"2.d.d.4.3.4.<.4.4.4.4.<.<.<.4.t.u.4.u     # T W T #                         8 Y e 7     * :.w.u.4.4.e.r.<.4.l.J.K.u.l.H.G.<.<.<.",
"<.,.,.4.7.t.<.4.4.4.4.4.4.e.<.j.P.y.a     # T W T o                         8 e Y 7     * >.K.R.u.<.<.e.<.<.6.t.k.L.G.u.6.4.4.6.",
"<.0.9.0.4.4.4.4.4.4.<.4.4.e.<.j.P.G.a     o e Y e o . . = u u u u u y . .   8 e e 7     * ,.G.J.y.<.4.4.<.<.4.<.l.L.l.w.6.6.6.5.",
"4.3.3.<.<.4.4.<.4.<.<.<.4.0.<.u.u.t.p     . 8 8 8 # . o u 4.0.e.5.r.8.+ . . 7 8 8 % .   * :.t.u.t.4.3.4.<.<.e.e.u.u.t.<.<.6.6.e.",
"1.e.9.<.4.4.4.4.4.4.e.4.4.3.3.<.4.e.p     . 8 8 8 # . o u 4.4.0.<.0.:.+ . . 7 8 8 %     * :.<.<.4.r.e.e.3.0.3.4.4.<.<.4.<.4.r.4.",
"0.e.<.4.4.4.<.4.4.4.4.4.4.*.O.-.5.4.p     . 9 8 8 o . o u 6.4.<.<.<.:.o . . 7 8 8 %     * :.0.e.e.4.<.4.0.4.4.4.4.<.<.4.4.4.4.4.",
"e.e.4.4.4.4.<.4.<.4.4.<.4.*...*.4.<.<.e.4.<.4.<.<.<.<.4.4.4.4.4.4.4.4.4.4.4.4.6.4.4.<.4.4.4.4.4.4.<.e.4.4.4.4.<.4.4.4.4.4.4.4.4.",
"3.4.e.4.4.4.4.4.4.4.4.4.<.=.*.;.<.<.<.4.4.<.3.u.G.h.3.4.4.4.4.4.<.4.4.4.4.4.4.4.4.4.<.<.<.4.4.<.4.<.4.e.<.4.4.4.4.4.4.4.4.4.4.4.",
"0.4.4.<.4.4.4.4.4.<.4.4.4.5.3.<.0.<.4.4.e.e.e.h.Y.K.e.4.4.e.4.4.4.4.4.4.4.4.4.4.0.e.4.<.<.4.4.4.4.4.4.4.4.<.<.4.4.<.4.4.4.4.e.4.",
"4.4.4.4.4.4.4.4.4.<.<.<.4.4.e.9.1.e.4.e.e.4.0.u.j.y.e.4.<.4.4.4.<.4.4.4.<.<.4.<.3.0.4.e.4.4.4.0.<.<.4.4.4.e.<.<.<.<.<.4.4.<.<.4.",
"4.e.4.4.<.0.4.4.4.4.4.4.<.<.0.<.4.e.e.e.4.4.3.4.e.4.0.4.<.<.4.4.<.4.4.4.4.4.4.4.4.4.4.4.<.4.3.0.e.4.<.4.<.0.3.<.4.e.4.4.4.4.4.4."
};
