/* XPM */
static char *wall[] = {
/* columns rows colors chars-per-pixel */
"64 64 241 2 ",
"   c #050404",
".  c #1D1511",
"X  c #0E0E0F",
"o  c #311F19",
"O  c #201310",
"+  c #1A2F0C",
"@  c #1B300D",
"#  c #1F211D",
"$  c #36251A",
"%  c #2C3218",
"&  c #1D3A2E",
"*  c #1F3322",
"=  c #1E3A32",
"-  c #1F3837",
";  c #372A22",
":  c #23372E",
">  c #223A2E",
",  c #2D322A",
"<  c #233634",
"1  c #223A34",
"2  c #233639",
"3  c #243A3A",
"4  c #283634",
"5  c #363730",
"6  c #2F322C",
"7  c #452A1E",
"8  c #432B22",
"9  c #4C2E24",
"0  c #453026",
"q  c #47342B",
"w  c #5A3B2B",
"e  c #573629",
"r  c #443B32",
"t  c #643D2D",
"y  c #683D2A",
"u  c #633E30",
"i  c #673E39",
"p  c #324818",
"a  c #325918",
"s  c #37611E",
"d  c #1D4333",
"f  c #1F4E33",
"g  c #22452E",
"h  c #2A572A",
"j  c #345A2D",
"k  c #234334",
"l  c #294434",
"z  c #254B35",
"x  c #294B35",
"c  c #254439",
"v  c #254B39",
"b  c #294D39",
"n  c #28473D",
"m  c #255335",
"M  c #2B5534",
"N  c #265C35",
"B  c #2A5C36",
"V  c #265339",
"C  c #2A533B",
"Z  c #265D3A",
"A  c #2A5C3A",
"S  c #345A33",
"D  c #395B33",
"F  c #345736",
"G  c #3C4A28",
"H  c #36682D",
"J  c #3B742F",
"K  c #2B6336",
"L  c #2C633B",
"P  c #2D6B3B",
"I  c #276537",
"U  c #346E33",
"Y  c #3B6D34",
"T  c #31653B",
"R  c #326E3A",
"E  c #366837",
"W  c #2E743B",
"Q  c #2E773B",
"!  c #357133",
"~  c #3A7333",
"^  c #33753B",
"/  c #327C3C",
"(  c #3C7837",
")  c #43771E",
"_  c #4C4728",
"`  c #64402E",
"'  c #71442F",
"]  c #694531",
"[  c #744634",
"{  c #774934",
"}  c #476C28",
"|  c #457B2D",
" . c #447B33",
".. c #4A7B32",
"X. c #457738",
"o. c #406236",
"O. c #2C5B41",
"+. c #2A5542",
"@. c #305C44",
"#. c #2E7841",
"$. c #337440",
"%. c #367B42",
"&. c #2F6841",
"*. c #6A5A65",
"=. c #865239",
"-. c #8D563B",
";. c #895337",
":. c #91563B",
">. c #814B33",
",. c #8A5342",
"<. c #3A8436",
"1. c #3E8C33",
"2. c #35843C",
"3. c #3A8339",
"4. c #358D3D",
"5. c #3A8D3C",
"6. c #378333",
"7. c #34913D",
"8. c #3B933D",
"9. c #3C9838",
"0. c #338734",
"q. c #488C2E",
"w. c #528F24",
"e. c #5A9C2E",
"r. c #549728",
"t. c #438B33",
"y. c #4B8D33",
"u. c #448B39",
"i. c #478436",
"p. c #538837",
"a. c #449335",
"s. c #459B34",
"d. c #439B3C",
"f. c #499739",
"g. c #579D32",
"h. c #5A9C31",
"j. c #549735",
"k. c #48962F",
"l. c #61933B",
"z. c #4CA72D",
"x. c #4DA92E",
"c. c #47A92D",
"v. c #5CA62E",
"b. c #53AD2E",
"n. c #55A82D",
"m. c #5DB32D",
"M. c #5BB52D",
"N. c #46A334",
"B. c #4CA534",
"V. c #4CA933",
"C. c #4EA53A",
"Z. c #4CA939",
"A. c #46A436",
"S. c #52A533",
"D. c #5CA532",
"F. c #53AB34",
"G. c #5AAC32",
"H. c #52A53B",
"J. c #58AC3B",
"K. c #5CB333",
"L. c #5AB536",
"P. c #60AD2E",
"I. c #62B62E",
"U. c #65BB2C",
"Y. c #6BBE2E",
"T. c #6ABA2B",
"R. c #63AB35",
"E. c #62B532",
"W. c #65B933",
"Q. c #6BBE31",
"!. c #6BBD39",
"~. c #67B63A",
"^. c #70BE32",
"/. c #72BB3A",
"(. c #71BF2C",
"). c #65C12C",
"_. c #6BC02D",
"`. c #69C227",
"'. c #71C22E",
"]. c #72C027",
"[. c #6DC032",
"{. c #6FC33B",
"}. c #73C435",
"|. c #78C635",
" X c #76C935",
".X c #74C43A",
"XX c #78C53B",
"oX c #7CCC3C",
"OX c #77CA39",
"+X c #7ED13E",
"@X c #368D43",
"#X c #398D43",
"$X c #358445",
"%X c #359041",
"&X c #3A9343",
"*X c #2F9040",
"=X c #469A41",
"-X c #5C9242",
";X c #639B42",
":X c #4DA342",
">X c #57AA42",
",X c #70AE43",
"<X c #64B644",
"1X c #67B846",
"2X c #76B644",
"3X c #69AF51",
"4X c #65A846",
"5X c #66A565",
"6X c #7CCC44",
"7X c #7AC746",
"8X c #7ED144",
"9X c #81CD3C",
"0X c #82D13E",
"qX c #86D83E",
"wX c #93DF3F",
"eX c #94E03C",
"rX c #80865E",
"tX c #89A05C",
"yX c #84CE45",
"uX c #83D342",
"iX c #8AD643",
"pX c #8CD945",
"aX c #8DDC4B",
"sX c #87D847",
"dX c #94DE46",
"fX c #94DE4A",
"gX c #98DF4B",
"hX c #98DE47",
"jX c #93DD51",
"kX c #8DDB51",
"lX c #8EE147",
"zX c #94E146",
"xX c #94E14B",
"cX c #9DE04C",
"vX c #8FE154",
"bX c #95E452",
"nX c #98E553",
"mX c #5C7BBE",
"MX c #5B75D2",
"NX c #649785",
"BX c #5F83B4",
/* pixels */
"Q.Q.Q.Q.Q.!.!.Q.Q.Q.Y.^.Y.Y.Q.Q.Q.Q.Q.Q.Y.Y.Y.Q.Y.[.Q.Q.Y.Q.Y.Y.Y.Y.}.Q.Q.Q.Q.Q.Q.Q.Q.Q.Q.Y.Y.Q.Y.Q.Q.Q.Q.Q._.Y.Q.Q.Q.Q.Q.Q.OXvX",
"Q.Y.Q.Q.Y.Y.T.).W._.'.Y.Y.Q.Q.Q.Q.Y.Y.Q.Q.Y.Q.Q.Q.[.Q.Y.Q.Q.}.Q.^.Q.^.Y.[.Y.Q.Q.Q.Q.Q.Q.Y.Q.Q.Q.Q.Q.Q.Q.[.Y.Q.Q.Q.Q.Q.Y.Y.Q.+XvX",
"Q.Q.Q.Y.W.C.d.d.=XE.!.Q._.Y.Q.Q.Q.Q.Q.Y.Y.Q.[.Q.Y.Y.Y.Y.Q.| & : : =  .Y.Q.Y.Q.Y.Q.Q.Y.Q.Q.Q._.Q.Q.Q.Q.Q.Q.Y.Q.Q.Q.Y.Y.Q.[.[._. X",
"Q.Q.Y.Q.E.d.4.7.&XG.W.!.^.Y.Y.Q.Q.Q.Q.Q.Q.Q.Q.Y.}.^.j j j U t.t.h.q.Y F F j F P.Q.Y.Q.Q.Q.Q.Q.Q.Q.Q.Y.Q.Q.Q.Q.Q.Y.Q.Q.Q.Q.Y.Y.Y.",
"Q.Q.Y.Q.E.d.4.7.#XF.[.[._.[._.Q.Q.Q.Q.Q.Q.Q.Q.h...p.Y | ( y.M.K.Q.E.k...|  .| | ..y.Q.Q.Q.Y.Q.Q.Q.Q.Y.Y.Q.Q.Q.[.Q.Q.Q.Q.Q.Q.Y.Q.",
"Q.Y.Q.Q.E.d.@X8.#XL.Q.[.Y.Q.Q.Q.Q.Y.Q.Q.Q.[.D.X.h h t.~.[.!..XY.Y.XX X XXX.XU.Y h E h.h.Q.Q.Q.Q.Y.[.Q.Y.Q.Q.).W.Q.Q.Q.Q.Q.Q.Q.Q.",
"[.[.[.[.Q.F.H.Z.>XI.[.J.C.H.C.E.Y.Y.Y.Q.Q.Q.D ~ B.C.- 2XdXfXpX!.Y.iXxXdXhXfXn.B.V.u.< < C.C.W.[.Q.Q.Q.[.Q.Q.Y.Y.Q.Q.Q.Q.Q.Q.3XNX",
"Q.Q.Y.Q.Q.Y.[.Y.Q.Y.W.=X@X@X@XF.Y.Q.Y.Q.& = i./.fXhXz.9XdXzXiXQ.fXdXxXfXfXfXdXfX.XA.B.z.& = | _.Y.Q.Q.Y.Q.Q.Q.Q.Q.Y.Q.Q.Q.W.5XMX",
"Q.Q.[.oXoX[.Q.Y.Q.Q.W.:X#X@X#XJ._.y.D B t.t.T h.hXxXyXpXfXhXaXiXfXzXxXfXzXfXxXzXaX7Xz.B.t.u.~ } Q.Q.Q.Y.[.Q.Q.[.Q.Q.Q.Y.Q.Q.3XNX",
"^.[.[.xXbX XY.Y.Q.!.W.f.@X5.5.F.p.! L L m.m.-X2XhXlXxXhXfXfXfXfX<X<X1X7XfXjXxXdXyX!.B.B.x.V.! D Q.Q.Q.Q.Y.Q.Y.Q.Q.Y.Q.Y.Q.Q.Q.Q.",
"[.Q.[.sXsX}.Y.Y.Q.Q.W.H.s.9.f.y.S W 8.&XY.}.pXdXfXzXfXfXfXhXfXfX@X@X@X<XfXfXhXfX6XL.L.B.B.a.E j Q.Q.Q.Y.Y.Y.Y.Q.Q.Y.Q.Q.Q.Q.Q.[.",
"Q.Q._.}.[._.Y.Y.Q.W.[.Q.~.{.1X1 / %X1.B.Y.pXfXhXfXfXfXfXfXfXfXdX4.@X@X1XfXfXzXfXfXdXyXB.C.N 1 j Q.Q.Y.Q.Q.[.Y.Q.Q.Q.Q.Q.Q.Q._.Y.",
"Q.Q.Q.Y.Y.Q._.'.Q.Y.T.T.)._.[.2 #.%X8.V.< 2XfXfXfXfXfXfXfXzXfXaXzXlXxXfXdXzXgXfXfXzXgXdXz.B.B.u.& Y.Q.Q.Q.Q.Q.Q.Q.Q.Q.Q.[.Y.Q.Y.",
"}.Q.Y.Q.Y.^.Y.!.^.Y.].Y.)._.~ Z V &.2.M u.~.iXfXfXfXzXJ.:X:X<XfXfXfXzXfXfXfXfX9XiXxXiX|.W.U.b.t.- Y.Y.W.Q.Q.Q.Q.Q.[.Q.Q.Y.Y.Y.Y.",
"Q.Q.Q.Q.Q.Q.T.Q.Q.Y.!.!.E.p.A W I L B = B..XdXfXzXfXfX:X@X%X=X1XfXdXfXiXuXfXdX9XoX9XoXQ.[.Q.K.t.= ..| P._.Q.Q.Q.Q.Q.Y.[.Q.[.Q.Q.",
"Y.Q.Q.Q.Q.Q.Y.Y.Q.D.D.D.f.T I #X#XU z & <.7XfXfXfXfXpX>X=X%X#X:XfXhXfXuXoXqXiXiXoXY.Y.Y.Q.W.L.y.h 4 > p.h.g.e.Q.W.Q.Q._.[.!.Q.Q.",
"Q.Q.Q.Q.Q.Q.Q.Q.Y.A B B &.%X7.#X#X7.Q 3 1 u.uXfXdXfXY.iX<X@X:XfXfXfXfXgXiX[.W.[.^.Q.Q._.Q.[.M.H.z.= = < : 1 = [.Y.Y.Y.U.Y.Q.Q.T.",
"Q.Q.Y.Q.Q.Y.Q.D.N #X@XW &.@Xm B 2.L z 4.c.I.`.!.^.Y.fXjXxXzXxXfXdXfXgXhXuXQ.].Q.L.N./ & Z.z.S.N.S.< : 5.U = 4 pXdXpXoXQ.Q.[.OXiX",
"Q.Q.Y.Y.Q.D.u.X.A @X@X$X/ @XN A I A ( >XK.Q._.E.E.Y.9XaXzXfXfXfX{.sXhXqXoX_.Q.y.j.b.5.K ^ s.t.~ ! U ! s.t.H n j.l.yXsX.X{.[.oXxX",
"Q.Q.Q.Q.G.i.I P I *X4.2.4.4.&.&.c T 9.W.Y.Y.D.D.B.e.Q.+XpXpXiXpXG.6XqXoXW.h.g.H q.m.a.$.4 ~ ! V M S.n.z.F.s.L b z 4X,XE.L.[.'.oX",
"Q.Q.Q.Q.^ A T @X4.I $XW P @X%X%Xz L 9.x.!.Q.j Y u.> [.Y.Q.Y.Q.Q.Y.Y.W.^.h.- < t.B.N.^ = < > K 8.n.B.n.B.N.N.7.@X7.m  .n.n.Y._.Y.",
"Y.Y.Q.Q.( ^ @X4.4.= - < 1 < 1 1 > = m #X4.8.A.~ S [.Y.[.| ~ K._.!.S ..[.Q.Q.8.z K $.d O.B $Xd.B.V.c.B.W B ^ x.C.9.x X.m.I.Y.^.Y.",
"Q.Q.Q.Q.~.X.K / b - m m V +.m 4 z V x m V x x L 3.F.b.b.Y k M S j y.m.Y.Y.Y.A.2.I b M B $Xd.N.B.V.V.V.U A ^ V.8.W k | Y.Q.Q.^.Q.",
"Q.Q.Q.Q..X,Xp.M : z ~ 3.3.( 6.4 ! 6.! x < z > b W d.S.N.( m l I J D.Q.Q.U.M.S.8.L k Z Z $.8.s.d.V.B.x.t.( 1.B.d.6.! | q.Y.Q.^.Y.",
"Q.Q.Q.Q.R.,X;Xc M ^ f.B.f.q.M.m f.F.1.M l E v > z / u.%.#.A x #XN.m.I.W.L.Z.N.=XL d N I B $.5.d.V.f.F.Z.V.x.B.F.V.c.U S [.Q.Q.Q.",
"Q.Y.Y.Q.S 4 d ! V.F.W.y.N N Q.C.Y.M.u.& O.a.P x 4 2 & - 1 < x %X@XC.z.V.V.F.*X#XL k A B A A <.Z.B.N C.x.V.B.B.V.V.c.U S Q.Q.Q.[.",
"Y.Q.Q.1 V 6.F.I.z.!.( A ( Q.fXfXhX6X|.fXV.B.B.<.V : 1 V A v < - & Q @X#X%X@X< - v Z N A A B 3.V.C.B.V.c.i.U x.Z.V.z.U S [.Q.[.Y.",
"[._.Y.&  .D.W.W.E.Q.G.D.G.U.zXjXfXpXdXjX+Xi.j l m u.1.B C m m V z m m b v z & z A A A B O.3.N.S.S.V.Z.V.s.s.B.z.H M | v.Q.Q.W.~.",
"Q.Q.Q.( ~ i.j.S. .y.R..X9X9XzXxXfXhXsX<XjX,Xi.p.j.L.E.<.S m A B z c = g v z 4 v x x z Z K ( 3.6.3.B.B.S.x.s.~ ! l Y e.Y.[.Q.5XBX",
"Q.Q.Y.Q.J N T  .M ( ~.uXaXyX7XfXfXzX6XH.fXfX6XuXpX X^.F.~ x O.m = 1 1 k m I 2 F o.F k V ( X.X.( ^ t.y.t.1.( - < > i.R.Q.Q.Q.5XmX",
"Q.[.Q.Q.Y. .< M z.Q.sXdX6X#X#XbXgXzXfXfXfXfXfXzXfXeXQ.F.! z m < > m v 2 c A 4 2XfX2X1 1 Y.sXdXsX^.2 1 > 1 1 > < V k | Q.Q.Q.<X3X",
"Q.Y.Q.Y.Y.| D g.1 Q.iX<X#X$X7.#X7XgXfXbXfXaXfXfX2X2 Q.S x A m 3 B.V.V.x.t.1 gXfXzXqXh.- zXdXfXzXfXQ.Q.S 4 1 Z B B k  .Q.Q.Q.!.!.",
"Y.Q.Y.Y.J ..D.T.j._.iXaX1X@X@X6XaXhXfXdXgXfXXX|.~.u.S > z V 1 < x.B.G.W.K.e..XdXfXjXyX2XhXcXfXfXxXY.}.j.a.J d A L k X./.Y.Y.`.Q.",
"Q.Q.Q.Q.j X.K.Y.[.K.XX6XOX<X1XhXfXfXfXfX1X1XXX Xm.~ ~ l d B T ~ ! S.U.XX9XoXoX1XyXxXfXgX3X1X6XpX9X!.Q.I.b.t.< A V *.rX/.^.Q.^.^.",
"Q.Q.Y.Q.~ ~ k.R.D.F.E.Q.OXfXzXiXfXfXfXzX@X@X6X6Xg.F G.U k T d.L.j v.[.uXfXfXzX4X1XzXhXhX@X%X<XpX|.Q.Y.E.C.~ 1 m R tXtX!.Q.Q.!.Q.",
"Q.Q.Q.Q.E.~ M t.> W.Y.Q. XfXzX^.uXfXfXwX#X@X6X7XG.Y._.F.! ! F.!.Y.Y.9XgXfXfXfXzXlXhXfXfX%X5.1XzXaXQ.[.b.! > - < g.).).Y.Q._._.Y.",
"Q.Q.Q.Q.W.X.< M V.S.R y.W.B._.Q.pXzXiXY.hXzX|.Z.7.z.S.9.L 2 S _.Y.Y.H.#X:XzXfXxX9X XzXgXfX|.Y.Y.`.[.V.Z.z.H.F.< v.U.Y._.Q.Q.Y.}.",
"Q.Y.Y.Q.W.3.m l ~ 6.6.f.b.B.y.!. X0X9X_.6X+X[.y.^ 6.! K M M ( !.Q.Q.S.4.:XxXfXzX7X>X0XzX6X.X_.W.K.L.V.B.V.s.U 1 h.Q./.!.Q.W.T.Y.",
"[.Q.Q.Q.W.A.<.F M C t.N.N.a.v R.T.P.v.W.U.W.v.Y 1 C 4 - m $Xd.Q.K.Y.F.d.J.8XzXiX~.A.}.8Xe.E.v.g.H.B.q.q.1.J 3 S v.)._.`.Y. X X|.",
"Y.Q.Q.Q.Q.Q.E.E.E.4 +.3.d.C & O.R...B Y.B.z.F 1 1 < > & L d.b.[.x.~.!.Q.U.H.fXOXQ.`.m.A.2 i.J B c.z.- = 1 1 = _.Y.W.Q.!. XlXzXzX",
"Q.Q.[.Y.Q.Q.Y.Y._.2 1 : = = A #Xs.B.t.> B.V.x.2.m 1 A 3 I d.i.1 4.m  .G.N.5.V.V.V.B.A.#X%Xz ! x.B.F.z.C : 1 1 [.Q._._.OXoXlXfXaX",
"Y.[.Y.Q.Y.Q.Y.D.S - P / K = A #X9.3.K & 8.B.9./ V : Z k m 2.$XM m U a.F.a.P M 2.A.S.N.4.V 3 z M M V.B.h = = - S v.Y.+XaXpX}..X X",
"Y.[.Y.[.Q.Q.Y.g.1 v 2.2.P z f $.Q L v f K 9./ L x v B V n M I x = P 4.d.6.v 1 L 4.9.8.W 2 - k l < U U l k k : 2 e.Y.9XzXaXY.Q.Y.",
"Q.W.Q.Q.Y.Q.Y.D.S v #.&.A b = +.C n g N 1 &.A l z Z A m m c 1 k > z I ^ P 4 g v L %.P h c k m V d 4 d d z b : S v.'.0XnXaXT.Y.Y.",
"[.).Y.[.[.Q.Q.Q.Y.4 V A M 1 < 4 1 z A O.K 1 1 v A B m c L ^ A A 1 1 < < 4 = &.c 1 < - 1 O.Z Z B @.1 O.m b 1 2 Q.[.[.6XfXpXY.Y.^.",
"uX[.Y.Y.Y.Y.Y.Q.Y.^.j 1 c N N = - z P %X@XP L A V 1 2 / 7.4.$XA A A N B A Z & m A A A A I B #.0.V K 2 1 1 S Y.Q.Q.[.[. XoXaXaXpX",
"aX XQ.[.[.Y.Q.Q.Q.Q.R.h.q.1 d V V M +.v I K c V A b 1 A P L P A g V A B Z Z m c 3 v Z I Z z V I m A > 1 Y v.Q.Y.Y.Q.Y.Y.oXnXnXnX",
"aX.XY.Q.[.Q.Q.Q.Y.W.Y.Y.E...1 A N B M z z x c C A A v z z v z m z V I m b A Z k c h W N A V z k z x  ...h._.Y.Q.Q.Y.Y.Q.}.0X0X8X",
"aX XY.Q._.Q.Q.Q.Q.Q.Y.[.Q.Q.j C A N B A < k m A A A A k < 4 4 5 x m V b z Z V = c I Q Z A M k 1 E j Y.^.Q.Y._._.Q.Y.Q.Q.[.[._.}.",
"aXOXQ.Q.^.Q.Q.Q.Q.Y.Y.Q.Q.Q.Q.> b O.A Z > C B N B A A k ; ; 0 ` $ 4 1 z Z A & < < k A Z A g 4 o.oXT.[.[.Y.Y.^.Y.}.OX{.Q.Q.[.Q.Q.",
"kX}.Q.Q.Y.Q.Q.Q.Q.Q.[.Q.Y.Y.Q.Q.S & & = = > V I A A & 1 r u u t ` t e 6 < & - - 1 < - 2 2 < -XbXoXY.Q.Q.Q.Y.Y.Y.oXnXyX[.Q.Q.Q.Q.",
"sXW.m.!.!.Q.Q.Q.Q.Y.Q.Q.Q.[.Q.Q.v.g.g.g.< < k 1 c 1 - , w ;.{ y ` >.>.] ; X X X # ; _ h.R.~.7XpX XY.Y.Q.Y.Y.}.|.uXpXuXoX}.Y.Y.Y.",
"W.=X=XR.Y.W.Q.Y.Q.Q.Q.Y.Q.[.[.Y.Y.Q.[.[.| * 5 r 5 , 6 q [ =.[ u u [ =.{ e $ o o ; 9 _ ).[.'.'.Y._._.Y.Q.Q.Q.uXbXuX[.0XnXpXQ.Y.T.",
"W.=Xd.Q.Q.Y.Y.[.Q.Q.Q.Q.Y.Y.Q.}.OX[.Q.Q.w.% e ] e 9 ; w [ [ ] ] ' ` { [ t t u t t t _ w.Y.Y.'.|.[.Y.[.[.Y.Q.oXaXuX|.9XpXuXY.Q._.",
"Y.E.E.!./.Q.Q.Q.Q.Q.Y.Q.Q.Q.Q.8XvXOXQ.Y.  9 =.{ ` ] $ w t y ' -.,.' u t t t ` w t y ;   Q.[.sXfXoXY.Y.[.Y.Y.^.|.uXfX0XOX}.Y.Q.!.",
"T.`.`.Q.Q.Q.Q.Q.Q.Y.Y.Q.Q.[.Q.uXvX6XQ.Y.  $ ` { [ ; ; w w [ =.:.-.=.[ u t t t ` t e X   U.Y.sXaXOXY.Q.Q.Y.U.!.Y.oXbX9X^.^.Q.Q./.",
"Q.W.W.Y.Y.Q.Q.Q.Q.Y.Y.Y.Q.Q.Y.[.OX.XY.Q.s } _ 9 $ . O 7 ` =.:.:.:.:.=.` 9 $ o o o % s s Y.^.}.OX[.[.W.Q.U.Y.[.Q.}.XX}.Y.Y.Q.Q.[.",
"Y.[.).Y.Q.Q.Q.Y.Q.Q.[.Q.Q.Q.Q.Q.Q.Q.Y.Q.Y.Y.} % @ @ @ # w :.:.;.;.:.-.w # @ @ @ + a Y.W.Y.Y.Y.Y.[.[.[.Q.Y.W.[.Q.Q.Q.Y.Q._.Q.[.!.",
").Q.Y.Y.Q.Q.Y.Q.Q.Q.Q.Q.Q.J.d.L.!.Y.Y.Q.Y.Y.Q.Q.[.Q.).@ 9 -.:.:.-.:.;.9 @ Y.Y._.Q.Q.W.Q.Y.Y._.[.!.[.Q.Q.Q.Q.Q.Q.Q.Y.Y.Q.Q.Q.Q.Q.",
"[.Q.Q.Q.Q.Q.Q.Q.Y.Q.Q.Y.Q.C.1.F.Q.Y.Q.[.Y.Y.Y.Y.[.[.Y.@ . ` :.:.-.-.t O @ Q.Q.Y.Q.Q.).Y.Q.Q.Q.Q.Y.Y.).[.Q.Q.Y.Q.Q.Q.Q.Q.Q.Q.Q.Q.",
"Q.Q.Q.Y.Q.Q.Q.Y.Y.Q.Q.Y.Q.L.H.m.Q.Y.Q.Q.Q.Y.[.}.uX6XY.r.p 7 { :.:.{ $ p r.Q.Q.Y.Y.Q.Y.Y.Y.Q.Q.Q.Q.Y.[.Q.Q.Y.Q.Q.Q.Q.Q.Q.Q.Q.Q.[.",
"Q.Q.Q.Q.Q.Q.Q.Q.Q.Q.Q.Q.Q.!.Q.Y.).Y.Q.Q.[.[.[.6XvXsX[.[.r.% $ 7 7 $ p w.[.[.Q.Y.Q.Q.Q.[.Y.Y.Q.Q.Q.Q.Q.Q.[.Y.Y.Q.Q.Y.Y.Q.Q.Q.Q.Q.",
"Q.Q.Y.Q.Q.Q.Q.Q.Q.).Y.Q.Y.Q.[.Y.U._.Q.[.[.Q.Q..X8XOX[.Q.Y.) @ @ @ @ | Y.Y.Y.Q.Q.[.Y.Q.Q.Q.Q.Q.Y.Y.Q.Q.[.Q.Y.Y.Y.Y.Q.Q.Q.Q.Y.Y.Q.",
"Q.[.Q.Q.Y.Q.Q.Q.Q.Q.Q.Q.Y.Y.[._.Q.[.[.[.Q.Q.Q.[.[.Q._.Q.Y.Y.Q.Y.Y.Y.Q.Q.Q.Y.[.Q.Q.Q.Q.Y.Q.Q.Q._.Q.Q.Y.Y.Y.Q.Q.Y.Q.Q.Q.Y.Q.Q.Y.[."
};
